<mxfile host="app.diagrams.net" modified="2023-05-07T07:52:55.512Z" agent="Mozilla/5.0 (Windows NT 10.0; Win64; x64) AppleWebKit/537.36 (KHTML, like Gecko) Chrome/112.0.0.0 Safari/537.36" etag="y6d8gsOO5kOOUoNKX3-F" version="21.2.9" type="device" pages="8">
  <diagram name="Trang-1" id="6XotyYL9_uFTY7gm7kKD">
    <mxGraphModel dx="1434" dy="774" grid="1" gridSize="10" guides="1" tooltips="1" connect="1" arrows="1" fold="1" page="1" pageScale="1" pageWidth="827" pageHeight="1169" math="0" shadow="0">
      <root>
        <mxCell id="0" />
        <mxCell id="1" parent="0" />
        <mxCell id="LmFl_Jp6n6plH_pTkN_s-14" value="1: truy cập hệ thống" style="html=1;verticalAlign=bottom;endArrow=classic;edgeStyle=elbowEdgeStyle;elbow=vertical;curved=0;rounded=0;startArrow=none;startFill=0;endFill=1;" edge="1" parent="1">
          <mxGeometry width="80" relative="1" as="geometry">
            <mxPoint x="170" y="170.18" as="sourcePoint" />
            <mxPoint x="350" y="170.18" as="targetPoint" />
          </mxGeometry>
        </mxCell>
        <mxCell id="LmFl_Jp6n6plH_pTkN_s-15" value="LoginVIew" style="shape=umlLifeline;perimeter=lifelinePerimeter;whiteSpace=wrap;html=1;container=1;dropTarget=0;collapsible=0;recursiveResize=0;outlineConnect=0;portConstraint=eastwest;newEdgeStyle={&quot;edgeStyle&quot;:&quot;elbowEdgeStyle&quot;,&quot;elbow&quot;:&quot;vertical&quot;,&quot;curved&quot;:0,&quot;rounded&quot;:0};participant=umlBoundary;verticalAlign=bottom;labelPosition=center;verticalLabelPosition=top;align=center;" vertex="1" parent="1">
          <mxGeometry x="330" y="80" width="50" height="600" as="geometry" />
        </mxCell>
        <mxCell id="LmFl_Jp6n6plH_pTkN_s-23" value="" style="html=1;points=[];perimeter=orthogonalPerimeter;outlineConnect=0;targetShapes=umlLifeline;portConstraint=eastwest;newEdgeStyle={&quot;edgeStyle&quot;:&quot;elbowEdgeStyle&quot;,&quot;elbow&quot;:&quot;vertical&quot;,&quot;curved&quot;:0,&quot;rounded&quot;:0};" vertex="1" parent="LmFl_Jp6n6plH_pTkN_s-15">
          <mxGeometry x="20" y="90" width="10" height="460" as="geometry" />
        </mxCell>
        <mxCell id="LmFl_Jp6n6plH_pTkN_s-16" value="HomeView" style="shape=umlLifeline;perimeter=lifelinePerimeter;whiteSpace=wrap;html=1;container=1;dropTarget=0;collapsible=0;recursiveResize=0;outlineConnect=0;portConstraint=eastwest;newEdgeStyle={&quot;edgeStyle&quot;:&quot;elbowEdgeStyle&quot;,&quot;elbow&quot;:&quot;vertical&quot;,&quot;curved&quot;:0,&quot;rounded&quot;:0};participant=umlBoundary;labelPosition=center;verticalLabelPosition=top;align=center;verticalAlign=bottom;" vertex="1" parent="1">
          <mxGeometry x="500" y="80" width="50" height="590" as="geometry" />
        </mxCell>
        <mxCell id="LmFl_Jp6n6plH_pTkN_s-37" value="" style="html=1;points=[];perimeter=orthogonalPerimeter;outlineConnect=0;targetShapes=umlLifeline;portConstraint=eastwest;newEdgeStyle={&quot;edgeStyle&quot;:&quot;elbowEdgeStyle&quot;,&quot;elbow&quot;:&quot;vertical&quot;,&quot;curved&quot;:0,&quot;rounded&quot;:0};" vertex="1" parent="LmFl_Jp6n6plH_pTkN_s-16">
          <mxGeometry x="20" y="370" width="10" height="120" as="geometry" />
        </mxCell>
        <mxCell id="LmFl_Jp6n6plH_pTkN_s-17" value="AccountDAL" style="shape=umlLifeline;perimeter=lifelinePerimeter;whiteSpace=wrap;html=1;container=1;dropTarget=0;collapsible=0;recursiveResize=0;outlineConnect=0;portConstraint=eastwest;newEdgeStyle={&quot;edgeStyle&quot;:&quot;elbowEdgeStyle&quot;,&quot;elbow&quot;:&quot;vertical&quot;,&quot;curved&quot;:0,&quot;rounded&quot;:0};participant=umlControl;labelPosition=center;verticalLabelPosition=top;align=center;verticalAlign=bottom;" vertex="1" parent="1">
          <mxGeometry x="650" y="80" width="40" height="590" as="geometry" />
        </mxCell>
        <mxCell id="LmFl_Jp6n6plH_pTkN_s-33" value="" style="html=1;points=[];perimeter=orthogonalPerimeter;outlineConnect=0;targetShapes=umlLifeline;portConstraint=eastwest;newEdgeStyle={&quot;edgeStyle&quot;:&quot;elbowEdgeStyle&quot;,&quot;elbow&quot;:&quot;vertical&quot;,&quot;curved&quot;:0,&quot;rounded&quot;:0};" vertex="1" parent="LmFl_Jp6n6plH_pTkN_s-17">
          <mxGeometry x="15" y="270" width="10" height="80" as="geometry" />
        </mxCell>
        <mxCell id="LmFl_Jp6n6plH_pTkN_s-41" value="" style="html=1;points=[];perimeter=orthogonalPerimeter;outlineConnect=0;targetShapes=umlLifeline;portConstraint=eastwest;newEdgeStyle={&quot;edgeStyle&quot;:&quot;elbowEdgeStyle&quot;,&quot;elbow&quot;:&quot;vertical&quot;,&quot;curved&quot;:0,&quot;rounded&quot;:0};" vertex="1" parent="LmFl_Jp6n6plH_pTkN_s-17">
          <mxGeometry x="15" y="465" width="10" height="80" as="geometry" />
        </mxCell>
        <mxCell id="LmFl_Jp6n6plH_pTkN_s-20" value="Account" style="shape=umlLifeline;perimeter=lifelinePerimeter;whiteSpace=wrap;html=1;container=1;dropTarget=0;collapsible=0;recursiveResize=0;outlineConnect=0;portConstraint=eastwest;newEdgeStyle={&quot;edgeStyle&quot;:&quot;elbowEdgeStyle&quot;,&quot;elbow&quot;:&quot;vertical&quot;,&quot;curved&quot;:0,&quot;rounded&quot;:0};participant=umlEntity;labelPosition=center;verticalLabelPosition=top;align=center;verticalAlign=bottom;" vertex="1" parent="1">
          <mxGeometry x="790" y="80" width="40" height="600" as="geometry" />
        </mxCell>
        <mxCell id="LmFl_Jp6n6plH_pTkN_s-27" value="" style="html=1;points=[];perimeter=orthogonalPerimeter;outlineConnect=0;targetShapes=umlLifeline;portConstraint=eastwest;newEdgeStyle={&quot;edgeStyle&quot;:&quot;elbowEdgeStyle&quot;,&quot;elbow&quot;:&quot;vertical&quot;,&quot;curved&quot;:0,&quot;rounded&quot;:0};" vertex="1" parent="LmFl_Jp6n6plH_pTkN_s-20">
          <mxGeometry x="15" y="190" width="10" height="60" as="geometry" />
        </mxCell>
        <mxCell id="LmFl_Jp6n6plH_pTkN_s-21" value="" style="shape=umlLifeline;perimeter=lifelinePerimeter;whiteSpace=wrap;html=1;container=1;dropTarget=0;collapsible=0;recursiveResize=0;outlineConnect=0;portConstraint=eastwest;newEdgeStyle={&quot;edgeStyle&quot;:&quot;elbowEdgeStyle&quot;,&quot;elbow&quot;:&quot;vertical&quot;,&quot;curved&quot;:0,&quot;rounded&quot;:0};participant=umlActor;" vertex="1" parent="1">
          <mxGeometry x="140" y="80" width="20" height="590" as="geometry" />
        </mxCell>
        <mxCell id="LmFl_Jp6n6plH_pTkN_s-22" value="" style="html=1;points=[];perimeter=orthogonalPerimeter;outlineConnect=0;targetShapes=umlLifeline;portConstraint=eastwest;newEdgeStyle={&quot;edgeStyle&quot;:&quot;elbowEdgeStyle&quot;,&quot;elbow&quot;:&quot;vertical&quot;,&quot;curved&quot;:0,&quot;rounded&quot;:0};" vertex="1" parent="LmFl_Jp6n6plH_pTkN_s-21">
          <mxGeometry x="5" y="60" width="10" height="510" as="geometry" />
        </mxCell>
        <mxCell id="LmFl_Jp6n6plH_pTkN_s-24" value="2:Hiển thị" style="html=1;verticalAlign=bottom;endArrow=none;edgeStyle=elbowEdgeStyle;elbow=vertical;curved=0;rounded=0;startArrow=classic;startFill=1;endFill=0;dashed=1;" edge="1" parent="1">
          <mxGeometry width="80" relative="1" as="geometry">
            <mxPoint x="170" y="220" as="sourcePoint" />
            <mxPoint x="320" y="220" as="targetPoint" />
          </mxGeometry>
        </mxCell>
        <mxCell id="LmFl_Jp6n6plH_pTkN_s-25" value="3: Nhập thông tin" style="html=1;verticalAlign=bottom;endArrow=classic;edgeStyle=elbowEdgeStyle;elbow=vertical;curved=0;rounded=0;startArrow=none;startFill=0;endFill=1;" edge="1" parent="1" target="LmFl_Jp6n6plH_pTkN_s-15">
          <mxGeometry width="80" relative="1" as="geometry">
            <mxPoint x="170" y="260" as="sourcePoint" />
            <mxPoint x="250" y="260" as="targetPoint" />
          </mxGeometry>
        </mxCell>
        <mxCell id="LmFl_Jp6n6plH_pTkN_s-26" value="4: Gọi" style="html=1;verticalAlign=bottom;endArrow=block;edgeStyle=elbowEdgeStyle;elbow=vertical;curved=0;rounded=0;" edge="1" parent="1" target="LmFl_Jp6n6plH_pTkN_s-20">
          <mxGeometry width="80" relative="1" as="geometry">
            <mxPoint x="360" y="280" as="sourcePoint" />
            <mxPoint x="440" y="280" as="targetPoint" />
          </mxGeometry>
        </mxCell>
        <mxCell id="LmFl_Jp6n6plH_pTkN_s-31" value="5: setter()" style="html=1;align=left;spacingLeft=2;endArrow=block;rounded=0;edgeStyle=orthogonalEdgeStyle;curved=0;rounded=0;" edge="1" parent="1">
          <mxGeometry x="-0.0588" relative="1" as="geometry">
            <mxPoint x="820" y="290" as="sourcePoint" />
            <Array as="points">
              <mxPoint x="850" y="290" />
              <mxPoint x="850" y="320" />
            </Array>
            <mxPoint x="825" y="320" as="targetPoint" />
            <mxPoint as="offset" />
          </mxGeometry>
        </mxCell>
        <mxCell id="LmFl_Jp6n6plH_pTkN_s-32" value="6: Trả về kết quả" style="html=1;verticalAlign=bottom;endArrow=open;dashed=1;endSize=8;edgeStyle=elbowEdgeStyle;elbow=vertical;curved=0;rounded=0;" edge="1" parent="1" target="LmFl_Jp6n6plH_pTkN_s-15">
          <mxGeometry relative="1" as="geometry">
            <mxPoint x="800" y="310" as="sourcePoint" />
            <mxPoint x="720" y="310" as="targetPoint" />
          </mxGeometry>
        </mxCell>
        <mxCell id="LmFl_Jp6n6plH_pTkN_s-34" value="7: Gọi" style="html=1;verticalAlign=bottom;endArrow=block;edgeStyle=elbowEdgeStyle;elbow=vertical;curved=0;rounded=0;" edge="1" parent="1" target="LmFl_Jp6n6plH_pTkN_s-17">
          <mxGeometry width="80" relative="1" as="geometry">
            <mxPoint x="360" y="370" as="sourcePoint" />
            <mxPoint x="440" y="370" as="targetPoint" />
          </mxGeometry>
        </mxCell>
        <mxCell id="LmFl_Jp6n6plH_pTkN_s-35" value="8: checkLogin()" style="html=1;align=left;spacingLeft=2;endArrow=block;rounded=0;edgeStyle=orthogonalEdgeStyle;curved=0;rounded=0;" edge="1" parent="1">
          <mxGeometry x="-0.0588" relative="1" as="geometry">
            <mxPoint x="680" y="370" as="sourcePoint" />
            <Array as="points">
              <mxPoint x="710" y="370" />
              <mxPoint x="710" y="400" />
            </Array>
            <mxPoint x="685" y="400" as="targetPoint" />
            <mxPoint as="offset" />
          </mxGeometry>
        </mxCell>
        <mxCell id="LmFl_Jp6n6plH_pTkN_s-36" value="9: Trả kết quả" style="html=1;verticalAlign=bottom;endArrow=open;dashed=1;endSize=8;edgeStyle=elbowEdgeStyle;elbow=vertical;curved=0;rounded=0;" edge="1" parent="1" source="LmFl_Jp6n6plH_pTkN_s-17" target="LmFl_Jp6n6plH_pTkN_s-15">
          <mxGeometry relative="1" as="geometry">
            <mxPoint x="650" y="420" as="sourcePoint" />
            <mxPoint x="570" y="420" as="targetPoint" />
            <Array as="points">
              <mxPoint x="590" y="420" />
              <mxPoint x="560" y="400" />
            </Array>
          </mxGeometry>
        </mxCell>
        <mxCell id="LmFl_Jp6n6plH_pTkN_s-38" value="10: Gọi" style="html=1;verticalAlign=bottom;endArrow=block;edgeStyle=elbowEdgeStyle;elbow=vertical;curved=0;rounded=0;" edge="1" parent="1" target="LmFl_Jp6n6plH_pTkN_s-16">
          <mxGeometry width="80" relative="1" as="geometry">
            <mxPoint x="360" y="460" as="sourcePoint" />
            <mxPoint x="440" y="460" as="targetPoint" />
          </mxGeometry>
        </mxCell>
        <mxCell id="LmFl_Jp6n6plH_pTkN_s-39" value="11;: Hiển thị" style="html=1;verticalAlign=bottom;endArrow=open;dashed=1;endSize=8;edgeStyle=elbowEdgeStyle;elbow=vertical;curved=0;rounded=0;" edge="1" parent="1" target="LmFl_Jp6n6plH_pTkN_s-21">
          <mxGeometry x="0.2416" relative="1" as="geometry">
            <mxPoint x="520" y="490" as="sourcePoint" />
            <mxPoint x="440" y="490" as="targetPoint" />
            <mxPoint as="offset" />
          </mxGeometry>
        </mxCell>
        <mxCell id="LmFl_Jp6n6plH_pTkN_s-40" value="12: Chọn đăng suất" style="html=1;verticalAlign=bottom;endArrow=block;edgeStyle=elbowEdgeStyle;elbow=vertical;curved=0;rounded=0;" edge="1" parent="1" target="LmFl_Jp6n6plH_pTkN_s-37">
          <mxGeometry x="-0.4444" width="80" relative="1" as="geometry">
            <mxPoint x="160" y="520" as="sourcePoint" />
            <mxPoint x="240" y="520" as="targetPoint" />
            <mxPoint as="offset" />
          </mxGeometry>
        </mxCell>
        <mxCell id="LmFl_Jp6n6plH_pTkN_s-42" value="13: Gọi" style="html=1;verticalAlign=bottom;endArrow=block;edgeStyle=elbowEdgeStyle;elbow=vertical;curved=0;rounded=0;" edge="1" parent="1" target="LmFl_Jp6n6plH_pTkN_s-17">
          <mxGeometry width="80" relative="1" as="geometry">
            <mxPoint x="530" y="550" as="sourcePoint" />
            <mxPoint x="610" y="550" as="targetPoint" />
          </mxGeometry>
        </mxCell>
        <mxCell id="LmFl_Jp6n6plH_pTkN_s-43" value="14: logout()" style="html=1;align=left;spacingLeft=2;endArrow=block;rounded=0;edgeStyle=orthogonalEdgeStyle;curved=0;rounded=0;" edge="1" parent="1">
          <mxGeometry x="-0.0588" relative="1" as="geometry">
            <mxPoint x="680" y="560" as="sourcePoint" />
            <Array as="points">
              <mxPoint x="710" y="560" />
              <mxPoint x="710" y="590" />
            </Array>
            <mxPoint x="685" y="590" as="targetPoint" />
            <mxPoint as="offset" />
          </mxGeometry>
        </mxCell>
        <mxCell id="LmFl_Jp6n6plH_pTkN_s-44" value="15: Trả về" style="html=1;verticalAlign=bottom;endArrow=open;dashed=1;endSize=8;edgeStyle=elbowEdgeStyle;elbow=vertical;curved=0;rounded=0;" edge="1" parent="1" target="LmFl_Jp6n6plH_pTkN_s-15">
          <mxGeometry relative="1" as="geometry">
            <mxPoint x="660" y="590" as="sourcePoint" />
            <mxPoint x="580" y="590" as="targetPoint" />
          </mxGeometry>
        </mxCell>
        <mxCell id="LmFl_Jp6n6plH_pTkN_s-45" value="16: Hiển thị" style="html=1;verticalAlign=bottom;endArrow=open;dashed=1;endSize=8;edgeStyle=elbowEdgeStyle;elbow=vertical;curved=0;rounded=0;" edge="1" parent="1" target="LmFl_Jp6n6plH_pTkN_s-21">
          <mxGeometry relative="1" as="geometry">
            <mxPoint x="350" y="610" as="sourcePoint" />
            <mxPoint x="270" y="610" as="targetPoint" />
          </mxGeometry>
        </mxCell>
      </root>
    </mxGraphModel>
  </diagram>
  <diagram id="LIukdLdBNZHNreyKp5O9" name="Trang-2">
    <mxGraphModel dx="1434" dy="717" grid="1" gridSize="10" guides="1" tooltips="1" connect="1" arrows="1" fold="1" page="1" pageScale="1" pageWidth="827" pageHeight="1169" math="0" shadow="0">
      <root>
        <mxCell id="0" />
        <mxCell id="1" parent="0" />
        <mxCell id="BOG2cFmCHzh4NxabrbWe-1" value="1: truy cập hệ thống" style="html=1;verticalAlign=bottom;endArrow=classic;edgeStyle=elbowEdgeStyle;elbow=vertical;curved=0;rounded=0;startArrow=none;startFill=0;endFill=1;" edge="1" parent="1">
          <mxGeometry width="80" relative="1" as="geometry">
            <mxPoint x="170" y="170.18" as="sourcePoint" />
            <mxPoint x="350" y="170.18" as="targetPoint" />
          </mxGeometry>
        </mxCell>
        <mxCell id="BOG2cFmCHzh4NxabrbWe-2" value="LoginVIew" style="shape=umlLifeline;perimeter=lifelinePerimeter;whiteSpace=wrap;html=1;container=1;dropTarget=0;collapsible=0;recursiveResize=0;outlineConnect=0;portConstraint=eastwest;newEdgeStyle={&quot;edgeStyle&quot;:&quot;elbowEdgeStyle&quot;,&quot;elbow&quot;:&quot;vertical&quot;,&quot;curved&quot;:0,&quot;rounded&quot;:0};participant=umlBoundary;verticalAlign=bottom;labelPosition=center;verticalLabelPosition=top;align=center;" vertex="1" parent="1">
          <mxGeometry x="330" y="80" width="50" height="600" as="geometry" />
        </mxCell>
        <mxCell id="BOG2cFmCHzh4NxabrbWe-3" value="" style="html=1;points=[];perimeter=orthogonalPerimeter;outlineConnect=0;targetShapes=umlLifeline;portConstraint=eastwest;newEdgeStyle={&quot;edgeStyle&quot;:&quot;elbowEdgeStyle&quot;,&quot;elbow&quot;:&quot;vertical&quot;,&quot;curved&quot;:0,&quot;rounded&quot;:0};" vertex="1" parent="BOG2cFmCHzh4NxabrbWe-2">
          <mxGeometry x="20" y="90" width="10" height="110" as="geometry" />
        </mxCell>
        <mxCell id="BOG2cFmCHzh4NxabrbWe-4" value="RegisterView" style="shape=umlLifeline;perimeter=lifelinePerimeter;whiteSpace=wrap;html=1;container=1;dropTarget=0;collapsible=0;recursiveResize=0;outlineConnect=0;portConstraint=eastwest;newEdgeStyle={&quot;edgeStyle&quot;:&quot;elbowEdgeStyle&quot;,&quot;elbow&quot;:&quot;vertical&quot;,&quot;curved&quot;:0,&quot;rounded&quot;:0};participant=umlBoundary;labelPosition=center;verticalLabelPosition=top;align=center;verticalAlign=bottom;" vertex="1" parent="1">
          <mxGeometry x="500" y="80" width="50" height="590" as="geometry" />
        </mxCell>
        <mxCell id="BOG2cFmCHzh4NxabrbWe-5" value="" style="html=1;points=[];perimeter=orthogonalPerimeter;outlineConnect=0;targetShapes=umlLifeline;portConstraint=eastwest;newEdgeStyle={&quot;edgeStyle&quot;:&quot;elbowEdgeStyle&quot;,&quot;elbow&quot;:&quot;vertical&quot;,&quot;curved&quot;:0,&quot;rounded&quot;:0};" vertex="1" parent="BOG2cFmCHzh4NxabrbWe-4">
          <mxGeometry x="20" y="180" width="10" height="330" as="geometry" />
        </mxCell>
        <mxCell id="BOG2cFmCHzh4NxabrbWe-6" value="AccountDAL" style="shape=umlLifeline;perimeter=lifelinePerimeter;whiteSpace=wrap;html=1;container=1;dropTarget=0;collapsible=0;recursiveResize=0;outlineConnect=0;portConstraint=eastwest;newEdgeStyle={&quot;edgeStyle&quot;:&quot;elbowEdgeStyle&quot;,&quot;elbow&quot;:&quot;vertical&quot;,&quot;curved&quot;:0,&quot;rounded&quot;:0};participant=umlControl;labelPosition=center;verticalLabelPosition=top;align=center;verticalAlign=bottom;" vertex="1" parent="1">
          <mxGeometry x="760" y="80" width="40" height="590" as="geometry" />
        </mxCell>
        <mxCell id="BOG2cFmCHzh4NxabrbWe-7" value="" style="html=1;points=[];perimeter=orthogonalPerimeter;outlineConnect=0;targetShapes=umlLifeline;portConstraint=eastwest;newEdgeStyle={&quot;edgeStyle&quot;:&quot;elbowEdgeStyle&quot;,&quot;elbow&quot;:&quot;vertical&quot;,&quot;curved&quot;:0,&quot;rounded&quot;:0};" vertex="1" parent="BOG2cFmCHzh4NxabrbWe-6">
          <mxGeometry x="15" y="360" width="10" height="80" as="geometry" />
        </mxCell>
        <mxCell id="BOG2cFmCHzh4NxabrbWe-9" value="Account" style="shape=umlLifeline;perimeter=lifelinePerimeter;whiteSpace=wrap;html=1;container=1;dropTarget=0;collapsible=0;recursiveResize=0;outlineConnect=0;portConstraint=eastwest;newEdgeStyle={&quot;edgeStyle&quot;:&quot;elbowEdgeStyle&quot;,&quot;elbow&quot;:&quot;vertical&quot;,&quot;curved&quot;:0,&quot;rounded&quot;:0};participant=umlEntity;labelPosition=center;verticalLabelPosition=top;align=center;verticalAlign=bottom;" vertex="1" parent="1">
          <mxGeometry x="900" y="80" width="40" height="600" as="geometry" />
        </mxCell>
        <mxCell id="BOG2cFmCHzh4NxabrbWe-10" value="" style="html=1;points=[];perimeter=orthogonalPerimeter;outlineConnect=0;targetShapes=umlLifeline;portConstraint=eastwest;newEdgeStyle={&quot;edgeStyle&quot;:&quot;elbowEdgeStyle&quot;,&quot;elbow&quot;:&quot;vertical&quot;,&quot;curved&quot;:0,&quot;rounded&quot;:0};" vertex="1" parent="BOG2cFmCHzh4NxabrbWe-9">
          <mxGeometry x="15" y="280" width="10" height="60" as="geometry" />
        </mxCell>
        <mxCell id="BOG2cFmCHzh4NxabrbWe-11" value="" style="shape=umlLifeline;perimeter=lifelinePerimeter;whiteSpace=wrap;html=1;container=1;dropTarget=0;collapsible=0;recursiveResize=0;outlineConnect=0;portConstraint=eastwest;newEdgeStyle={&quot;edgeStyle&quot;:&quot;elbowEdgeStyle&quot;,&quot;elbow&quot;:&quot;vertical&quot;,&quot;curved&quot;:0,&quot;rounded&quot;:0};participant=umlActor;" vertex="1" parent="1">
          <mxGeometry x="140" y="80" width="20" height="590" as="geometry" />
        </mxCell>
        <mxCell id="BOG2cFmCHzh4NxabrbWe-12" value="" style="html=1;points=[];perimeter=orthogonalPerimeter;outlineConnect=0;targetShapes=umlLifeline;portConstraint=eastwest;newEdgeStyle={&quot;edgeStyle&quot;:&quot;elbowEdgeStyle&quot;,&quot;elbow&quot;:&quot;vertical&quot;,&quot;curved&quot;:0,&quot;rounded&quot;:0};" vertex="1" parent="BOG2cFmCHzh4NxabrbWe-11">
          <mxGeometry x="5" y="60" width="10" height="510" as="geometry" />
        </mxCell>
        <mxCell id="BOG2cFmCHzh4NxabrbWe-13" value="2:Hiển thị" style="html=1;verticalAlign=bottom;endArrow=none;edgeStyle=elbowEdgeStyle;elbow=vertical;curved=0;rounded=0;startArrow=classic;startFill=1;endFill=0;dashed=1;" edge="1" parent="1">
          <mxGeometry width="80" relative="1" as="geometry">
            <mxPoint x="170" y="220" as="sourcePoint" />
            <mxPoint x="320" y="220" as="targetPoint" />
          </mxGeometry>
        </mxCell>
        <mxCell id="BOG2cFmCHzh4NxabrbWe-14" value="3: Chọn đăng ký" style="html=1;verticalAlign=bottom;endArrow=classic;edgeStyle=elbowEdgeStyle;elbow=vertical;curved=0;rounded=0;startArrow=none;startFill=0;endFill=1;" edge="1" parent="1" target="BOG2cFmCHzh4NxabrbWe-2">
          <mxGeometry width="80" relative="1" as="geometry">
            <mxPoint x="170" y="260" as="sourcePoint" />
            <mxPoint x="250" y="260" as="targetPoint" />
          </mxGeometry>
        </mxCell>
        <mxCell id="BOG2cFmCHzh4NxabrbWe-27" value="14: Hiển thị" style="html=1;verticalAlign=bottom;endArrow=open;dashed=1;endSize=8;edgeStyle=elbowEdgeStyle;elbow=vertical;curved=0;rounded=0;" edge="1" parent="1" target="BOG2cFmCHzh4NxabrbWe-11" source="BOG2cFmCHzh4NxabrbWe-28">
          <mxGeometry relative="1" as="geometry">
            <mxPoint x="350" y="610" as="sourcePoint" />
            <mxPoint x="270" y="610" as="targetPoint" />
            <Array as="points">
              <mxPoint x="450" y="620" />
            </Array>
          </mxGeometry>
        </mxCell>
        <mxCell id="BOG2cFmCHzh4NxabrbWe-28" value="RegisterSuccessView" style="shape=umlLifeline;perimeter=lifelinePerimeter;whiteSpace=wrap;html=1;container=1;dropTarget=0;collapsible=0;recursiveResize=0;outlineConnect=0;portConstraint=eastwest;newEdgeStyle={&quot;edgeStyle&quot;:&quot;elbowEdgeStyle&quot;,&quot;elbow&quot;:&quot;vertical&quot;,&quot;curved&quot;:0,&quot;rounded&quot;:0};participant=umlBoundary;labelPosition=center;verticalLabelPosition=top;align=center;verticalAlign=bottom;" vertex="1" parent="1">
          <mxGeometry x="630" y="80" width="50" height="590" as="geometry" />
        </mxCell>
        <mxCell id="BOG2cFmCHzh4NxabrbWe-8" value="" style="html=1;points=[];perimeter=orthogonalPerimeter;outlineConnect=0;targetShapes=umlLifeline;portConstraint=eastwest;newEdgeStyle={&quot;edgeStyle&quot;:&quot;elbowEdgeStyle&quot;,&quot;elbow&quot;:&quot;vertical&quot;,&quot;curved&quot;:0,&quot;rounded&quot;:0};" vertex="1" parent="BOG2cFmCHzh4NxabrbWe-28">
          <mxGeometry x="20" y="465" width="10" height="80" as="geometry" />
        </mxCell>
        <mxCell id="BOG2cFmCHzh4NxabrbWe-29" value="4: Gọi" style="html=1;verticalAlign=bottom;endArrow=block;edgeStyle=elbowEdgeStyle;elbow=vertical;curved=0;rounded=0;" edge="1" parent="1" target="BOG2cFmCHzh4NxabrbWe-4">
          <mxGeometry width="80" relative="1" as="geometry">
            <mxPoint x="360" y="270" as="sourcePoint" />
            <mxPoint x="440" y="270" as="targetPoint" />
          </mxGeometry>
        </mxCell>
        <mxCell id="BOG2cFmCHzh4NxabrbWe-30" value="5: Hiển thị" style="html=1;verticalAlign=bottom;endArrow=open;dashed=1;endSize=8;edgeStyle=elbowEdgeStyle;elbow=vertical;curved=0;rounded=0;" edge="1" parent="1" target="BOG2cFmCHzh4NxabrbWe-11">
          <mxGeometry relative="1" as="geometry">
            <mxPoint x="520" y="310" as="sourcePoint" />
            <mxPoint x="440" y="310" as="targetPoint" />
          </mxGeometry>
        </mxCell>
        <mxCell id="BOG2cFmCHzh4NxabrbWe-31" value="6: Nhập thông tin" style="html=1;verticalAlign=bottom;endArrow=block;edgeStyle=elbowEdgeStyle;elbow=vertical;curved=0;rounded=0;" edge="1" parent="1" target="BOG2cFmCHzh4NxabrbWe-4">
          <mxGeometry width="80" relative="1" as="geometry">
            <mxPoint x="150" y="350" as="sourcePoint" />
            <mxPoint x="230" y="350" as="targetPoint" />
          </mxGeometry>
        </mxCell>
        <mxCell id="BOG2cFmCHzh4NxabrbWe-32" value="7: Gọi" style="html=1;verticalAlign=bottom;endArrow=block;edgeStyle=elbowEdgeStyle;elbow=vertical;curved=0;rounded=0;" edge="1" parent="1" target="BOG2cFmCHzh4NxabrbWe-9">
          <mxGeometry width="80" relative="1" as="geometry">
            <mxPoint x="530" y="370" as="sourcePoint" />
            <mxPoint x="610" y="370" as="targetPoint" />
          </mxGeometry>
        </mxCell>
        <mxCell id="BOG2cFmCHzh4NxabrbWe-33" value="8: setter()" style="html=1;align=left;spacingLeft=2;endArrow=block;rounded=0;edgeStyle=orthogonalEdgeStyle;curved=0;rounded=0;" edge="1" parent="1">
          <mxGeometry x="-0.0588" relative="1" as="geometry">
            <mxPoint x="930" y="370" as="sourcePoint" />
            <Array as="points">
              <mxPoint x="960" y="370" />
              <mxPoint x="960" y="400" />
            </Array>
            <mxPoint x="935" y="400" as="targetPoint" />
            <mxPoint as="offset" />
          </mxGeometry>
        </mxCell>
        <mxCell id="BOG2cFmCHzh4NxabrbWe-34" value="9: Trả về&amp;nbsp; kết quả" style="html=1;verticalAlign=bottom;endArrow=open;dashed=1;endSize=8;edgeStyle=elbowEdgeStyle;elbow=vertical;curved=0;rounded=0;" edge="1" parent="1" target="BOG2cFmCHzh4NxabrbWe-4">
          <mxGeometry relative="1" as="geometry">
            <mxPoint x="910" y="400" as="sourcePoint" />
            <mxPoint x="830" y="400" as="targetPoint" />
          </mxGeometry>
        </mxCell>
        <mxCell id="BOG2cFmCHzh4NxabrbWe-35" value="10: Gọi" style="html=1;verticalAlign=bottom;endArrow=block;edgeStyle=elbowEdgeStyle;elbow=vertical;curved=0;rounded=0;" edge="1" parent="1" target="BOG2cFmCHzh4NxabrbWe-6">
          <mxGeometry width="80" relative="1" as="geometry">
            <mxPoint x="530" y="460" as="sourcePoint" />
            <mxPoint x="610" y="460" as="targetPoint" />
          </mxGeometry>
        </mxCell>
        <mxCell id="BOG2cFmCHzh4NxabrbWe-36" value="11: register()" style="html=1;align=left;spacingLeft=2;endArrow=block;rounded=0;edgeStyle=orthogonalEdgeStyle;curved=0;rounded=0;" edge="1" parent="1">
          <mxGeometry x="-0.0588" relative="1" as="geometry">
            <mxPoint x="790" y="460" as="sourcePoint" />
            <Array as="points">
              <mxPoint x="820" y="460" />
              <mxPoint x="820" y="490" />
            </Array>
            <mxPoint x="795" y="490" as="targetPoint" />
            <mxPoint as="offset" />
          </mxGeometry>
        </mxCell>
        <mxCell id="BOG2cFmCHzh4NxabrbWe-37" value="12: Trả về kết quả" style="html=1;verticalAlign=bottom;endArrow=open;dashed=1;endSize=8;edgeStyle=elbowEdgeStyle;elbow=vertical;curved=0;rounded=0;" edge="1" parent="1" target="BOG2cFmCHzh4NxabrbWe-4">
          <mxGeometry relative="1" as="geometry">
            <mxPoint x="770" y="500" as="sourcePoint" />
            <mxPoint x="690" y="500" as="targetPoint" />
          </mxGeometry>
        </mxCell>
        <mxCell id="BOG2cFmCHzh4NxabrbWe-38" value="13: Gọi" style="html=1;verticalAlign=bottom;endArrow=block;edgeStyle=elbowEdgeStyle;elbow=vertical;curved=0;rounded=0;" edge="1" parent="1" target="BOG2cFmCHzh4NxabrbWe-28">
          <mxGeometry width="80" relative="1" as="geometry">
            <mxPoint x="530" y="570" as="sourcePoint" />
            <mxPoint x="610" y="570" as="targetPoint" />
          </mxGeometry>
        </mxCell>
      </root>
    </mxGraphModel>
  </diagram>
  <diagram id="pkFaYXTy5471n90LTJT_" name="Trang-3">
    <mxGraphModel dx="1434" dy="774" grid="1" gridSize="10" guides="1" tooltips="1" connect="1" arrows="1" fold="1" page="1" pageScale="1" pageWidth="827" pageHeight="1169" math="0" shadow="0">
      <root>
        <mxCell id="0" />
        <mxCell id="1" parent="0" />
        <mxCell id="RIWuHJ04wQVVc-qIHfRs-1" value="1: truy cập hệ thống" style="html=1;verticalAlign=bottom;endArrow=classic;edgeStyle=elbowEdgeStyle;elbow=vertical;curved=0;rounded=0;startArrow=none;startFill=0;endFill=1;" edge="1" parent="1">
          <mxGeometry width="80" relative="1" as="geometry">
            <mxPoint x="170" y="170.18" as="sourcePoint" />
            <mxPoint x="350" y="170.18" as="targetPoint" />
          </mxGeometry>
        </mxCell>
        <mxCell id="RIWuHJ04wQVVc-qIHfRs-2" value="LoginVIew" style="shape=umlLifeline;perimeter=lifelinePerimeter;whiteSpace=wrap;html=1;container=1;dropTarget=0;collapsible=0;recursiveResize=0;outlineConnect=0;portConstraint=eastwest;newEdgeStyle={&quot;edgeStyle&quot;:&quot;elbowEdgeStyle&quot;,&quot;elbow&quot;:&quot;vertical&quot;,&quot;curved&quot;:0,&quot;rounded&quot;:0};participant=umlBoundary;verticalAlign=bottom;labelPosition=center;verticalLabelPosition=top;align=center;" vertex="1" parent="1">
          <mxGeometry x="330" y="80" width="50" height="820" as="geometry" />
        </mxCell>
        <mxCell id="RIWuHJ04wQVVc-qIHfRs-3" value="" style="html=1;points=[];perimeter=orthogonalPerimeter;outlineConnect=0;targetShapes=umlLifeline;portConstraint=eastwest;newEdgeStyle={&quot;edgeStyle&quot;:&quot;elbowEdgeStyle&quot;,&quot;elbow&quot;:&quot;vertical&quot;,&quot;curved&quot;:0,&quot;rounded&quot;:0};" vertex="1" parent="RIWuHJ04wQVVc-qIHfRs-2">
          <mxGeometry x="20" y="90" width="10" height="220" as="geometry" />
        </mxCell>
        <mxCell id="RIWuHJ04wQVVc-qIHfRs-4" value="MovieList" style="shape=umlLifeline;perimeter=lifelinePerimeter;whiteSpace=wrap;html=1;container=1;dropTarget=0;collapsible=0;recursiveResize=0;outlineConnect=0;portConstraint=eastwest;newEdgeStyle={&quot;edgeStyle&quot;:&quot;elbowEdgeStyle&quot;,&quot;elbow&quot;:&quot;vertical&quot;,&quot;curved&quot;:0,&quot;rounded&quot;:0};participant=umlBoundary;labelPosition=center;verticalLabelPosition=top;align=center;verticalAlign=bottom;" vertex="1" parent="1">
          <mxGeometry x="500" y="80" width="50" height="810" as="geometry" />
        </mxCell>
        <mxCell id="RIWuHJ04wQVVc-qIHfRs-43" value="" style="html=1;points=[];perimeter=orthogonalPerimeter;outlineConnect=0;targetShapes=umlLifeline;portConstraint=eastwest;newEdgeStyle={&quot;edgeStyle&quot;:&quot;elbowEdgeStyle&quot;,&quot;elbow&quot;:&quot;vertical&quot;,&quot;curved&quot;:0,&quot;rounded&quot;:0};" vertex="1" parent="RIWuHJ04wQVVc-qIHfRs-4">
          <mxGeometry x="20" y="360" width="10" height="110" as="geometry" />
        </mxCell>
        <mxCell id="RIWuHJ04wQVVc-qIHfRs-6" value="MovieDAL" style="shape=umlLifeline;perimeter=lifelinePerimeter;whiteSpace=wrap;html=1;container=1;dropTarget=0;collapsible=0;recursiveResize=0;outlineConnect=0;portConstraint=eastwest;newEdgeStyle={&quot;edgeStyle&quot;:&quot;elbowEdgeStyle&quot;,&quot;elbow&quot;:&quot;vertical&quot;,&quot;curved&quot;:0,&quot;rounded&quot;:0};participant=umlControl;labelPosition=center;verticalLabelPosition=top;align=center;verticalAlign=bottom;" vertex="1" parent="1">
          <mxGeometry x="650" y="80" width="40" height="810" as="geometry" />
        </mxCell>
        <mxCell id="RIWuHJ04wQVVc-qIHfRs-8" value="" style="html=1;points=[];perimeter=orthogonalPerimeter;outlineConnect=0;targetShapes=umlLifeline;portConstraint=eastwest;newEdgeStyle={&quot;edgeStyle&quot;:&quot;elbowEdgeStyle&quot;,&quot;elbow&quot;:&quot;vertical&quot;,&quot;curved&quot;:0,&quot;rounded&quot;:0};" vertex="1" parent="RIWuHJ04wQVVc-qIHfRs-6">
          <mxGeometry x="15" y="360" width="10" height="80" as="geometry" />
        </mxCell>
        <mxCell id="RIWuHJ04wQVVc-qIHfRs-52" value="" style="html=1;points=[];perimeter=orthogonalPerimeter;outlineConnect=0;targetShapes=umlLifeline;portConstraint=eastwest;newEdgeStyle={&quot;edgeStyle&quot;:&quot;elbowEdgeStyle&quot;,&quot;elbow&quot;:&quot;vertical&quot;,&quot;curved&quot;:0,&quot;rounded&quot;:0};" vertex="1" parent="RIWuHJ04wQVVc-qIHfRs-6">
          <mxGeometry x="15" y="465" width="10" height="80" as="geometry" />
        </mxCell>
        <mxCell id="RIWuHJ04wQVVc-qIHfRs-61" value="" style="html=1;points=[];perimeter=orthogonalPerimeter;outlineConnect=0;targetShapes=umlLifeline;portConstraint=eastwest;newEdgeStyle={&quot;edgeStyle&quot;:&quot;elbowEdgeStyle&quot;,&quot;elbow&quot;:&quot;vertical&quot;,&quot;curved&quot;:0,&quot;rounded&quot;:0};" vertex="1" parent="RIWuHJ04wQVVc-qIHfRs-6">
          <mxGeometry x="15" y="640" width="10" height="80" as="geometry" />
        </mxCell>
        <mxCell id="RIWuHJ04wQVVc-qIHfRs-9" value="Movie" style="shape=umlLifeline;perimeter=lifelinePerimeter;whiteSpace=wrap;html=1;container=1;dropTarget=0;collapsible=0;recursiveResize=0;outlineConnect=0;portConstraint=eastwest;newEdgeStyle={&quot;edgeStyle&quot;:&quot;elbowEdgeStyle&quot;,&quot;elbow&quot;:&quot;vertical&quot;,&quot;curved&quot;:0,&quot;rounded&quot;:0};participant=umlEntity;labelPosition=center;verticalLabelPosition=top;align=center;verticalAlign=bottom;" vertex="1" parent="1">
          <mxGeometry x="790" y="80" width="40" height="810" as="geometry" />
        </mxCell>
        <mxCell id="RIWuHJ04wQVVc-qIHfRs-57" value="" style="html=1;points=[];perimeter=orthogonalPerimeter;outlineConnect=0;targetShapes=umlLifeline;portConstraint=eastwest;newEdgeStyle={&quot;edgeStyle&quot;:&quot;elbowEdgeStyle&quot;,&quot;elbow&quot;:&quot;vertical&quot;,&quot;curved&quot;:0,&quot;rounded&quot;:0};" vertex="1" parent="RIWuHJ04wQVVc-qIHfRs-9">
          <mxGeometry x="15" y="570" width="10" height="80" as="geometry" />
        </mxCell>
        <mxCell id="RIWuHJ04wQVVc-qIHfRs-11" value="" style="shape=umlLifeline;perimeter=lifelinePerimeter;whiteSpace=wrap;html=1;container=1;dropTarget=0;collapsible=0;recursiveResize=0;outlineConnect=0;portConstraint=eastwest;newEdgeStyle={&quot;edgeStyle&quot;:&quot;elbowEdgeStyle&quot;,&quot;elbow&quot;:&quot;vertical&quot;,&quot;curved&quot;:0,&quot;rounded&quot;:0};participant=umlActor;" vertex="1" parent="1">
          <mxGeometry x="140" y="80" width="20" height="820" as="geometry" />
        </mxCell>
        <mxCell id="RIWuHJ04wQVVc-qIHfRs-12" value="" style="html=1;points=[];perimeter=orthogonalPerimeter;outlineConnect=0;targetShapes=umlLifeline;portConstraint=eastwest;newEdgeStyle={&quot;edgeStyle&quot;:&quot;elbowEdgeStyle&quot;,&quot;elbow&quot;:&quot;vertical&quot;,&quot;curved&quot;:0,&quot;rounded&quot;:0};" vertex="1" parent="RIWuHJ04wQVVc-qIHfRs-11">
          <mxGeometry x="5" y="60" width="10" height="730" as="geometry" />
        </mxCell>
        <mxCell id="RIWuHJ04wQVVc-qIHfRs-13" value="2:Hiển thị" style="html=1;verticalAlign=bottom;endArrow=none;edgeStyle=elbowEdgeStyle;elbow=vertical;curved=0;rounded=0;startArrow=classic;startFill=1;endFill=0;dashed=1;" edge="1" parent="1">
          <mxGeometry width="80" relative="1" as="geometry">
            <mxPoint x="170" y="200" as="sourcePoint" />
            <mxPoint x="320" y="200" as="targetPoint" />
          </mxGeometry>
        </mxCell>
        <mxCell id="RIWuHJ04wQVVc-qIHfRs-14" value="3: Nhập thông tin" style="html=1;verticalAlign=bottom;endArrow=classic;edgeStyle=elbowEdgeStyle;elbow=vertical;curved=0;rounded=0;startArrow=none;startFill=0;endFill=1;" edge="1" parent="1">
          <mxGeometry x="-0.0244" width="80" relative="1" as="geometry">
            <mxPoint x="170" y="233" as="sourcePoint" />
            <mxPoint x="350" y="233" as="targetPoint" />
            <Array as="points">
              <mxPoint x="300" y="233" />
              <mxPoint x="320" y="233" />
            </Array>
            <mxPoint as="offset" />
          </mxGeometry>
        </mxCell>
        <mxCell id="RIWuHJ04wQVVc-qIHfRs-25" value="5: setter()" style="html=1;align=left;spacingLeft=2;endArrow=block;rounded=0;edgeStyle=orthogonalEdgeStyle;curved=0;rounded=0;" edge="1" parent="1">
          <mxGeometry x="-0.0588" relative="1" as="geometry">
            <mxPoint x="900" y="235" as="sourcePoint" />
            <Array as="points">
              <mxPoint x="930" y="235" />
              <mxPoint x="930" y="265" />
            </Array>
            <mxPoint x="905" y="265" as="targetPoint" />
            <mxPoint as="offset" />
          </mxGeometry>
        </mxCell>
        <mxCell id="RIWuHJ04wQVVc-qIHfRs-27" value="23: Hiển thị" style="html=1;verticalAlign=bottom;endArrow=open;dashed=1;endSize=8;edgeStyle=elbowEdgeStyle;elbow=vertical;curved=0;rounded=0;" edge="1" parent="1" target="RIWuHJ04wQVVc-qIHfRs-11" source="RIWuHJ04wQVVc-qIHfRs-50">
          <mxGeometry relative="1" as="geometry">
            <mxPoint x="350" y="610" as="sourcePoint" />
            <mxPoint x="270" y="610" as="targetPoint" />
            <Array as="points">
              <mxPoint x="470" y="620" />
            </Array>
          </mxGeometry>
        </mxCell>
        <mxCell id="RIWuHJ04wQVVc-qIHfRs-28" value="AdminHome" style="shape=umlLifeline;perimeter=lifelinePerimeter;whiteSpace=wrap;html=1;container=1;dropTarget=0;collapsible=0;recursiveResize=0;outlineConnect=0;portConstraint=eastwest;newEdgeStyle={&quot;edgeStyle&quot;:&quot;elbowEdgeStyle&quot;,&quot;elbow&quot;:&quot;vertical&quot;,&quot;curved&quot;:0,&quot;rounded&quot;:0};participant=umlBoundary;labelPosition=center;verticalLabelPosition=top;align=center;verticalAlign=bottom;" vertex="1" parent="1">
          <mxGeometry x="414" y="80" width="50" height="810" as="geometry" />
        </mxCell>
        <mxCell id="RIWuHJ04wQVVc-qIHfRs-39" value="" style="html=1;points=[];perimeter=orthogonalPerimeter;outlineConnect=0;targetShapes=umlLifeline;portConstraint=eastwest;newEdgeStyle={&quot;edgeStyle&quot;:&quot;elbowEdgeStyle&quot;,&quot;elbow&quot;:&quot;vertical&quot;,&quot;curved&quot;:0,&quot;rounded&quot;:0};" vertex="1" parent="RIWuHJ04wQVVc-qIHfRs-28">
          <mxGeometry x="20" y="280" width="10" height="50" as="geometry" />
        </mxCell>
        <mxCell id="RIWuHJ04wQVVc-qIHfRs-5" value="" style="html=1;points=[];perimeter=orthogonalPerimeter;outlineConnect=0;targetShapes=umlLifeline;portConstraint=eastwest;newEdgeStyle={&quot;edgeStyle&quot;:&quot;elbowEdgeStyle&quot;,&quot;elbow&quot;:&quot;vertical&quot;,&quot;curved&quot;:0,&quot;rounded&quot;:0};" vertex="1" parent="RIWuHJ04wQVVc-qIHfRs-28">
          <mxGeometry x="20" y="345" width="10" height="65" as="geometry" />
        </mxCell>
        <mxCell id="RIWuHJ04wQVVc-qIHfRs-29" value="MoveiDetail" style="shape=umlLifeline;perimeter=lifelinePerimeter;whiteSpace=wrap;html=1;container=1;dropTarget=0;collapsible=0;recursiveResize=0;outlineConnect=0;portConstraint=eastwest;newEdgeStyle={&quot;edgeStyle&quot;:&quot;elbowEdgeStyle&quot;,&quot;elbow&quot;:&quot;vertical&quot;,&quot;curved&quot;:0,&quot;rounded&quot;:0};participant=umlBoundary;labelPosition=center;verticalLabelPosition=top;align=center;verticalAlign=bottom;" vertex="1" parent="1">
          <mxGeometry x="570" y="80" width="50" height="820" as="geometry" />
        </mxCell>
        <mxCell id="RIWuHJ04wQVVc-qIHfRs-50" value="" style="html=1;points=[];perimeter=orthogonalPerimeter;outlineConnect=0;targetShapes=umlLifeline;portConstraint=eastwest;newEdgeStyle={&quot;edgeStyle&quot;:&quot;elbowEdgeStyle&quot;,&quot;elbow&quot;:&quot;vertical&quot;,&quot;curved&quot;:0,&quot;rounded&quot;:0};" vertex="1" parent="RIWuHJ04wQVVc-qIHfRs-29">
          <mxGeometry x="20" y="460" width="10" height="320" as="geometry" />
        </mxCell>
        <mxCell id="RIWuHJ04wQVVc-qIHfRs-31" value="AccountDAL" style="shape=umlLifeline;perimeter=lifelinePerimeter;whiteSpace=wrap;html=1;container=1;dropTarget=0;collapsible=0;recursiveResize=0;outlineConnect=0;portConstraint=eastwest;newEdgeStyle={&quot;edgeStyle&quot;:&quot;elbowEdgeStyle&quot;,&quot;elbow&quot;:&quot;vertical&quot;,&quot;curved&quot;:0,&quot;rounded&quot;:0};participant=umlControl;labelPosition=center;verticalLabelPosition=top;align=center;verticalAlign=bottom;" vertex="1" parent="1">
          <mxGeometry x="720" y="80" width="40" height="810" as="geometry" />
        </mxCell>
        <mxCell id="RIWuHJ04wQVVc-qIHfRs-7" value="" style="points=[];perimeter=orthogonalPerimeter;outlineConnect=0;targetShapes=umlLifeline;portConstraint=eastwest;newEdgeStyle={&quot;edgeStyle&quot;:&quot;elbowEdgeStyle&quot;,&quot;elbow&quot;:&quot;vertical&quot;,&quot;curved&quot;:0,&quot;rounded&quot;:0};" vertex="1" parent="RIWuHJ04wQVVc-qIHfRs-31">
          <mxGeometry x="15" y="210" width="10" height="80" as="geometry" />
        </mxCell>
        <mxCell id="RIWuHJ04wQVVc-qIHfRs-32" value="Account" style="shape=umlLifeline;perimeter=lifelinePerimeter;whiteSpace=wrap;html=1;container=1;dropTarget=0;collapsible=0;recursiveResize=0;outlineConnect=0;portConstraint=eastwest;newEdgeStyle={&quot;edgeStyle&quot;:&quot;elbowEdgeStyle&quot;,&quot;elbow&quot;:&quot;vertical&quot;,&quot;curved&quot;:0,&quot;rounded&quot;:0};participant=umlEntity;labelPosition=center;verticalLabelPosition=top;align=center;verticalAlign=bottom;" vertex="1" parent="1">
          <mxGeometry x="870" y="80" width="40" height="800" as="geometry" />
        </mxCell>
        <mxCell id="RIWuHJ04wQVVc-qIHfRs-34" value="4: Gọi" style="html=1;verticalAlign=bottom;endArrow=block;edgeStyle=elbowEdgeStyle;elbow=vertical;curved=0;rounded=0;" edge="1" parent="1" target="RIWuHJ04wQVVc-qIHfRs-10">
          <mxGeometry width="80" relative="1" as="geometry">
            <mxPoint x="360" y="240" as="sourcePoint" />
            <mxPoint x="890" y="240" as="targetPoint" />
          </mxGeometry>
        </mxCell>
        <mxCell id="RIWuHJ04wQVVc-qIHfRs-10" value="" style="html=1;points=[];perimeter=orthogonalPerimeter;outlineConnect=0;targetShapes=umlLifeline;portConstraint=eastwest;newEdgeStyle={&quot;edgeStyle&quot;:&quot;elbowEdgeStyle&quot;,&quot;elbow&quot;:&quot;vertical&quot;,&quot;curved&quot;:0,&quot;rounded&quot;:0};" vertex="1" parent="1">
          <mxGeometry x="885" y="220" width="10" height="60" as="geometry" />
        </mxCell>
        <mxCell id="RIWuHJ04wQVVc-qIHfRs-35" value="6: Trả về kết quả" style="html=1;verticalAlign=bottom;endArrow=open;dashed=1;endSize=8;edgeStyle=elbowEdgeStyle;elbow=vertical;curved=0;rounded=0;" edge="1" parent="1" target="RIWuHJ04wQVVc-qIHfRs-2">
          <mxGeometry relative="1" as="geometry">
            <mxPoint x="880" y="270" as="sourcePoint" />
            <mxPoint x="800" y="270" as="targetPoint" />
          </mxGeometry>
        </mxCell>
        <mxCell id="RIWuHJ04wQVVc-qIHfRs-36" value="7: Gọi" style="html=1;verticalAlign=bottom;endArrow=block;edgeStyle=elbowEdgeStyle;elbow=vertical;curved=0;rounded=0;" edge="1" parent="1" target="RIWuHJ04wQVVc-qIHfRs-31">
          <mxGeometry width="80" relative="1" as="geometry">
            <mxPoint x="360" y="310" as="sourcePoint" />
            <mxPoint x="440" y="310" as="targetPoint" />
          </mxGeometry>
        </mxCell>
        <mxCell id="RIWuHJ04wQVVc-qIHfRs-37" value="8: checkLogin()" style="html=1;align=left;spacingLeft=2;endArrow=block;rounded=0;edgeStyle=orthogonalEdgeStyle;curved=0;rounded=0;" edge="1" parent="1">
          <mxGeometry x="-0.0588" relative="1" as="geometry">
            <mxPoint x="750" y="310" as="sourcePoint" />
            <Array as="points">
              <mxPoint x="780" y="310" />
              <mxPoint x="780" y="340" />
            </Array>
            <mxPoint x="755" y="340" as="targetPoint" />
            <mxPoint as="offset" />
          </mxGeometry>
        </mxCell>
        <mxCell id="RIWuHJ04wQVVc-qIHfRs-38" value="9: Trả kết quả" style="html=1;verticalAlign=bottom;endArrow=open;dashed=1;endSize=8;edgeStyle=elbowEdgeStyle;elbow=vertical;curved=0;rounded=0;" edge="1" parent="1" target="RIWuHJ04wQVVc-qIHfRs-2">
          <mxGeometry relative="1" as="geometry">
            <mxPoint x="730" y="340" as="sourcePoint" />
            <mxPoint x="650" y="340" as="targetPoint" />
          </mxGeometry>
        </mxCell>
        <mxCell id="RIWuHJ04wQVVc-qIHfRs-40" value="10: Gọi" style="html=1;verticalAlign=bottom;endArrow=block;edgeStyle=elbowEdgeStyle;elbow=vertical;curved=0;rounded=0;" edge="1" parent="1" target="RIWuHJ04wQVVc-qIHfRs-28">
          <mxGeometry width="80" relative="1" as="geometry">
            <mxPoint x="360" y="370" as="sourcePoint" />
            <mxPoint x="440" y="370" as="targetPoint" />
          </mxGeometry>
        </mxCell>
        <mxCell id="RIWuHJ04wQVVc-qIHfRs-41" value="11; HIển thị" style="html=1;verticalAlign=bottom;endArrow=open;dashed=1;endSize=8;edgeStyle=elbowEdgeStyle;elbow=vertical;curved=0;rounded=0;" edge="1" parent="1" target="RIWuHJ04wQVVc-qIHfRs-11">
          <mxGeometry relative="1" as="geometry">
            <mxPoint x="430" y="400" as="sourcePoint" />
            <mxPoint x="350" y="400" as="targetPoint" />
          </mxGeometry>
        </mxCell>
        <mxCell id="RIWuHJ04wQVVc-qIHfRs-42" value="12: Chọn quản lý phim" style="html=1;verticalAlign=bottom;endArrow=block;edgeStyle=elbowEdgeStyle;elbow=vertical;curved=0;rounded=0;" edge="1" parent="1" target="RIWuHJ04wQVVc-qIHfRs-28">
          <mxGeometry width="80" relative="1" as="geometry">
            <mxPoint x="160" y="430" as="sourcePoint" />
            <mxPoint x="240" y="430" as="targetPoint" />
          </mxGeometry>
        </mxCell>
        <mxCell id="RIWuHJ04wQVVc-qIHfRs-44" value="13: Gọi" style="html=1;verticalAlign=bottom;endArrow=block;edgeStyle=elbowEdgeStyle;elbow=vertical;curved=0;rounded=0;" edge="1" parent="1">
          <mxGeometry width="80" relative="1" as="geometry">
            <mxPoint x="440" y="450" as="sourcePoint" />
            <mxPoint x="520" y="450" as="targetPoint" />
          </mxGeometry>
        </mxCell>
        <mxCell id="RIWuHJ04wQVVc-qIHfRs-45" value="14: Gọi" style="html=1;verticalAlign=bottom;endArrow=block;edgeStyle=elbowEdgeStyle;elbow=vertical;curved=0;rounded=0;" edge="1" parent="1" target="RIWuHJ04wQVVc-qIHfRs-6">
          <mxGeometry width="80" relative="1" as="geometry">
            <mxPoint x="530" y="460" as="sourcePoint" />
            <mxPoint x="610" y="460" as="targetPoint" />
          </mxGeometry>
        </mxCell>
        <mxCell id="RIWuHJ04wQVVc-qIHfRs-46" value="15: getMovieList()" style="html=1;align=left;spacingLeft=2;endArrow=block;rounded=0;edgeStyle=orthogonalEdgeStyle;curved=0;rounded=0;" edge="1" parent="1">
          <mxGeometry x="-0.0588" relative="1" as="geometry">
            <mxPoint x="680" y="470" as="sourcePoint" />
            <Array as="points">
              <mxPoint x="710" y="470" />
              <mxPoint x="710" y="500" />
            </Array>
            <mxPoint x="685" y="500" as="targetPoint" />
            <mxPoint as="offset" />
          </mxGeometry>
        </mxCell>
        <mxCell id="RIWuHJ04wQVVc-qIHfRs-47" value="16: Trả về kết quả" style="html=1;verticalAlign=bottom;endArrow=open;dashed=1;endSize=8;edgeStyle=elbowEdgeStyle;elbow=vertical;curved=0;rounded=0;" edge="1" parent="1" source="RIWuHJ04wQVVc-qIHfRs-6">
          <mxGeometry relative="1" as="geometry">
            <mxPoint x="620" y="500" as="sourcePoint" />
            <mxPoint x="530" y="510" as="targetPoint" />
            <Array as="points">
              <mxPoint x="620" y="510" />
            </Array>
          </mxGeometry>
        </mxCell>
        <mxCell id="RIWuHJ04wQVVc-qIHfRs-48" value="17: Hiển thị" style="html=1;verticalAlign=bottom;endArrow=open;dashed=1;endSize=8;edgeStyle=elbowEdgeStyle;elbow=vertical;curved=0;rounded=0;" edge="1" parent="1" target="RIWuHJ04wQVVc-qIHfRs-11">
          <mxGeometry relative="1" as="geometry">
            <mxPoint x="520" y="510" as="sourcePoint" />
            <mxPoint x="440" y="510" as="targetPoint" />
            <Array as="points">
              <mxPoint x="480" y="520" />
            </Array>
          </mxGeometry>
        </mxCell>
        <mxCell id="RIWuHJ04wQVVc-qIHfRs-49" value="18: Chọn 1 phim" style="html=1;verticalAlign=bottom;endArrow=block;edgeStyle=elbowEdgeStyle;elbow=vertical;curved=0;rounded=0;" edge="1" parent="1" target="RIWuHJ04wQVVc-qIHfRs-4">
          <mxGeometry width="80" relative="1" as="geometry">
            <mxPoint x="160" y="540" as="sourcePoint" />
            <mxPoint x="240" y="540" as="targetPoint" />
          </mxGeometry>
        </mxCell>
        <mxCell id="RIWuHJ04wQVVc-qIHfRs-51" value="19: Gọi" style="html=1;verticalAlign=bottom;endArrow=block;edgeStyle=elbowEdgeStyle;elbow=vertical;curved=0;rounded=0;" edge="1" parent="1" target="RIWuHJ04wQVVc-qIHfRs-29">
          <mxGeometry width="80" relative="1" as="geometry">
            <mxPoint x="530" y="550" as="sourcePoint" />
            <mxPoint x="600" y="550" as="targetPoint" />
          </mxGeometry>
        </mxCell>
        <mxCell id="RIWuHJ04wQVVc-qIHfRs-53" value="20: Gọi" style="html=1;verticalAlign=bottom;endArrow=block;edgeStyle=elbowEdgeStyle;elbow=vertical;curved=0;rounded=0;" edge="1" parent="1">
          <mxGeometry width="80" relative="1" as="geometry">
            <mxPoint x="600" y="570" as="sourcePoint" />
            <mxPoint x="670" y="570" as="targetPoint" />
          </mxGeometry>
        </mxCell>
        <mxCell id="RIWuHJ04wQVVc-qIHfRs-54" value="21: getMoviebyID()" style="html=1;align=left;spacingLeft=2;endArrow=block;rounded=0;edgeStyle=orthogonalEdgeStyle;curved=0;rounded=0;" edge="1" parent="1">
          <mxGeometry x="-0.0588" relative="1" as="geometry">
            <mxPoint x="680" y="570" as="sourcePoint" />
            <Array as="points">
              <mxPoint x="710" y="570" />
              <mxPoint x="710" y="600" />
            </Array>
            <mxPoint x="685" y="600" as="targetPoint" />
            <mxPoint as="offset" />
          </mxGeometry>
        </mxCell>
        <mxCell id="RIWuHJ04wQVVc-qIHfRs-55" value="22: Kết quả" style="html=1;verticalAlign=bottom;endArrow=open;dashed=1;endSize=8;edgeStyle=elbowEdgeStyle;elbow=vertical;curved=0;rounded=0;" edge="1" parent="1">
          <mxGeometry relative="1" as="geometry">
            <mxPoint x="670" y="600" as="sourcePoint" />
            <mxPoint x="600" y="600" as="targetPoint" />
          </mxGeometry>
        </mxCell>
        <mxCell id="RIWuHJ04wQVVc-qIHfRs-56" value="24: Sửa thông tin" style="html=1;verticalAlign=bottom;endArrow=block;edgeStyle=elbowEdgeStyle;elbow=vertical;curved=0;rounded=0;" edge="1" parent="1" target="RIWuHJ04wQVVc-qIHfRs-29">
          <mxGeometry width="80" relative="1" as="geometry">
            <mxPoint x="150" y="650" as="sourcePoint" />
            <mxPoint x="230" y="650" as="targetPoint" />
          </mxGeometry>
        </mxCell>
        <mxCell id="RIWuHJ04wQVVc-qIHfRs-58" value="25: Gọi" style="html=1;verticalAlign=bottom;endArrow=block;edgeStyle=elbowEdgeStyle;elbow=vertical;curved=0;rounded=0;" edge="1" parent="1" target="RIWuHJ04wQVVc-qIHfRs-9">
          <mxGeometry width="80" relative="1" as="geometry">
            <mxPoint x="600" y="670" as="sourcePoint" />
            <mxPoint x="790" y="670" as="targetPoint" />
          </mxGeometry>
        </mxCell>
        <mxCell id="RIWuHJ04wQVVc-qIHfRs-59" value="26: setter()" style="html=1;align=left;spacingLeft=2;endArrow=block;rounded=0;edgeStyle=orthogonalEdgeStyle;curved=0;rounded=0;" edge="1" parent="1">
          <mxGeometry x="-0.0588" relative="1" as="geometry">
            <mxPoint x="820" y="670" as="sourcePoint" />
            <Array as="points">
              <mxPoint x="850" y="670" />
              <mxPoint x="850" y="700" />
            </Array>
            <mxPoint x="825" y="700" as="targetPoint" />
            <mxPoint as="offset" />
          </mxGeometry>
        </mxCell>
        <mxCell id="RIWuHJ04wQVVc-qIHfRs-60" value="27: Trả kết quả" style="html=1;verticalAlign=bottom;endArrow=open;dashed=1;endSize=8;edgeStyle=elbowEdgeStyle;elbow=vertical;curved=0;rounded=0;" edge="1" parent="1" target="RIWuHJ04wQVVc-qIHfRs-29">
          <mxGeometry relative="1" as="geometry">
            <mxPoint x="800" y="700" as="sourcePoint" />
            <mxPoint x="720" y="700" as="targetPoint" />
          </mxGeometry>
        </mxCell>
        <mxCell id="RIWuHJ04wQVVc-qIHfRs-62" value="28: Gọi" style="html=1;verticalAlign=bottom;endArrow=block;edgeStyle=elbowEdgeStyle;elbow=vertical;curved=0;rounded=0;" edge="1" parent="1">
          <mxGeometry width="80" relative="1" as="geometry">
            <mxPoint x="600" y="740" as="sourcePoint" />
            <mxPoint x="670" y="740" as="targetPoint" />
          </mxGeometry>
        </mxCell>
        <mxCell id="RIWuHJ04wQVVc-qIHfRs-63" value="29: updateMovie()" style="html=1;align=left;spacingLeft=2;endArrow=block;rounded=0;edgeStyle=orthogonalEdgeStyle;curved=0;rounded=0;" edge="1" parent="1">
          <mxGeometry x="-0.0588" relative="1" as="geometry">
            <mxPoint x="680" y="740" as="sourcePoint" />
            <Array as="points">
              <mxPoint x="710" y="740" />
              <mxPoint x="710" y="770" />
            </Array>
            <mxPoint x="685" y="770" as="targetPoint" />
            <mxPoint as="offset" />
          </mxGeometry>
        </mxCell>
        <mxCell id="RIWuHJ04wQVVc-qIHfRs-64" value="30: Kết quả" style="html=1;verticalAlign=bottom;endArrow=open;dashed=1;endSize=8;edgeStyle=elbowEdgeStyle;elbow=vertical;curved=0;rounded=0;" edge="1" parent="1">
          <mxGeometry relative="1" as="geometry">
            <mxPoint x="670" y="770" as="sourcePoint" />
            <mxPoint x="600" y="770" as="targetPoint" />
          </mxGeometry>
        </mxCell>
        <mxCell id="RIWuHJ04wQVVc-qIHfRs-65" value="31: Thông báo thành công" style="html=1;verticalAlign=bottom;endArrow=open;dashed=1;endSize=8;edgeStyle=elbowEdgeStyle;elbow=vertical;curved=0;rounded=0;" edge="1" parent="1" target="RIWuHJ04wQVVc-qIHfRs-11">
          <mxGeometry relative="1" as="geometry">
            <mxPoint x="590" y="790" as="sourcePoint" />
            <mxPoint x="510" y="790" as="targetPoint" />
          </mxGeometry>
        </mxCell>
      </root>
    </mxGraphModel>
  </diagram>
  <diagram id="RA1HsOy-WsbIrUKmhmoB" name="Trang-4">
    <mxGraphModel dx="1434" dy="774" grid="1" gridSize="10" guides="1" tooltips="1" connect="1" arrows="1" fold="1" page="1" pageScale="1" pageWidth="827" pageHeight="1169" math="0" shadow="0">
      <root>
        <mxCell id="0" />
        <mxCell id="1" parent="0" />
        <mxCell id="SY0zPpIJ2oUqB_J_oxIl-1" value="1: truy cập hệ thống" style="html=1;verticalAlign=bottom;endArrow=classic;edgeStyle=elbowEdgeStyle;elbow=vertical;curved=0;rounded=0;startArrow=none;startFill=0;endFill=1;" edge="1" parent="1">
          <mxGeometry width="80" relative="1" as="geometry">
            <mxPoint x="170" y="170.18" as="sourcePoint" />
            <mxPoint x="350" y="170.18" as="targetPoint" />
          </mxGeometry>
        </mxCell>
        <mxCell id="SY0zPpIJ2oUqB_J_oxIl-2" value="LoginVIew" style="shape=umlLifeline;perimeter=lifelinePerimeter;whiteSpace=wrap;html=1;container=1;dropTarget=0;collapsible=0;recursiveResize=0;outlineConnect=0;portConstraint=eastwest;newEdgeStyle={&quot;edgeStyle&quot;:&quot;elbowEdgeStyle&quot;,&quot;elbow&quot;:&quot;vertical&quot;,&quot;curved&quot;:0,&quot;rounded&quot;:0};participant=umlBoundary;verticalAlign=bottom;labelPosition=center;verticalLabelPosition=top;align=center;" vertex="1" parent="1">
          <mxGeometry x="330" y="80" width="50" height="820" as="geometry" />
        </mxCell>
        <mxCell id="SY0zPpIJ2oUqB_J_oxIl-3" value="" style="html=1;points=[];perimeter=orthogonalPerimeter;outlineConnect=0;targetShapes=umlLifeline;portConstraint=eastwest;newEdgeStyle={&quot;edgeStyle&quot;:&quot;elbowEdgeStyle&quot;,&quot;elbow&quot;:&quot;vertical&quot;,&quot;curved&quot;:0,&quot;rounded&quot;:0};" vertex="1" parent="SY0zPpIJ2oUqB_J_oxIl-2">
          <mxGeometry x="20" y="90" width="10" height="220" as="geometry" />
        </mxCell>
        <mxCell id="SY0zPpIJ2oUqB_J_oxIl-4" value="TicketList" style="shape=umlLifeline;perimeter=lifelinePerimeter;whiteSpace=wrap;html=1;container=1;dropTarget=0;collapsible=0;recursiveResize=0;outlineConnect=0;portConstraint=eastwest;newEdgeStyle={&quot;edgeStyle&quot;:&quot;elbowEdgeStyle&quot;,&quot;elbow&quot;:&quot;vertical&quot;,&quot;curved&quot;:0,&quot;rounded&quot;:0};participant=umlBoundary;labelPosition=center;verticalLabelPosition=top;align=center;verticalAlign=bottom;" vertex="1" parent="1">
          <mxGeometry x="500" y="80" width="50" height="810" as="geometry" />
        </mxCell>
        <mxCell id="SY0zPpIJ2oUqB_J_oxIl-5" value="" style="html=1;points=[];perimeter=orthogonalPerimeter;outlineConnect=0;targetShapes=umlLifeline;portConstraint=eastwest;newEdgeStyle={&quot;edgeStyle&quot;:&quot;elbowEdgeStyle&quot;,&quot;elbow&quot;:&quot;vertical&quot;,&quot;curved&quot;:0,&quot;rounded&quot;:0};" vertex="1" parent="SY0zPpIJ2oUqB_J_oxIl-4">
          <mxGeometry x="20" y="360" width="10" height="110" as="geometry" />
        </mxCell>
        <mxCell id="SY0zPpIJ2oUqB_J_oxIl-6" value="TicketDAL" style="shape=umlLifeline;perimeter=lifelinePerimeter;whiteSpace=wrap;html=1;container=1;dropTarget=0;collapsible=0;recursiveResize=0;outlineConnect=0;portConstraint=eastwest;newEdgeStyle={&quot;edgeStyle&quot;:&quot;elbowEdgeStyle&quot;,&quot;elbow&quot;:&quot;vertical&quot;,&quot;curved&quot;:0,&quot;rounded&quot;:0};participant=umlControl;labelPosition=center;verticalLabelPosition=top;align=center;verticalAlign=bottom;" vertex="1" parent="1">
          <mxGeometry x="650" y="80" width="40" height="810" as="geometry" />
        </mxCell>
        <mxCell id="SY0zPpIJ2oUqB_J_oxIl-7" value="" style="html=1;points=[];perimeter=orthogonalPerimeter;outlineConnect=0;targetShapes=umlLifeline;portConstraint=eastwest;newEdgeStyle={&quot;edgeStyle&quot;:&quot;elbowEdgeStyle&quot;,&quot;elbow&quot;:&quot;vertical&quot;,&quot;curved&quot;:0,&quot;rounded&quot;:0};" vertex="1" parent="SY0zPpIJ2oUqB_J_oxIl-6">
          <mxGeometry x="15" y="360" width="10" height="80" as="geometry" />
        </mxCell>
        <mxCell id="SY0zPpIJ2oUqB_J_oxIl-8" value="" style="html=1;points=[];perimeter=orthogonalPerimeter;outlineConnect=0;targetShapes=umlLifeline;portConstraint=eastwest;newEdgeStyle={&quot;edgeStyle&quot;:&quot;elbowEdgeStyle&quot;,&quot;elbow&quot;:&quot;vertical&quot;,&quot;curved&quot;:0,&quot;rounded&quot;:0};" vertex="1" parent="SY0zPpIJ2oUqB_J_oxIl-6">
          <mxGeometry x="15" y="465" width="10" height="80" as="geometry" />
        </mxCell>
        <mxCell id="SY0zPpIJ2oUqB_J_oxIl-9" value="" style="html=1;points=[];perimeter=orthogonalPerimeter;outlineConnect=0;targetShapes=umlLifeline;portConstraint=eastwest;newEdgeStyle={&quot;edgeStyle&quot;:&quot;elbowEdgeStyle&quot;,&quot;elbow&quot;:&quot;vertical&quot;,&quot;curved&quot;:0,&quot;rounded&quot;:0};" vertex="1" parent="SY0zPpIJ2oUqB_J_oxIl-6">
          <mxGeometry x="15" y="640" width="10" height="80" as="geometry" />
        </mxCell>
        <mxCell id="SY0zPpIJ2oUqB_J_oxIl-10" value="Ticket" style="shape=umlLifeline;perimeter=lifelinePerimeter;whiteSpace=wrap;html=1;container=1;dropTarget=0;collapsible=0;recursiveResize=0;outlineConnect=0;portConstraint=eastwest;newEdgeStyle={&quot;edgeStyle&quot;:&quot;elbowEdgeStyle&quot;,&quot;elbow&quot;:&quot;vertical&quot;,&quot;curved&quot;:0,&quot;rounded&quot;:0};participant=umlEntity;labelPosition=center;verticalLabelPosition=top;align=center;verticalAlign=bottom;" vertex="1" parent="1">
          <mxGeometry x="790" y="80" width="40" height="810" as="geometry" />
        </mxCell>
        <mxCell id="SY0zPpIJ2oUqB_J_oxIl-11" value="" style="html=1;points=[];perimeter=orthogonalPerimeter;outlineConnect=0;targetShapes=umlLifeline;portConstraint=eastwest;newEdgeStyle={&quot;edgeStyle&quot;:&quot;elbowEdgeStyle&quot;,&quot;elbow&quot;:&quot;vertical&quot;,&quot;curved&quot;:0,&quot;rounded&quot;:0};" vertex="1" parent="SY0zPpIJ2oUqB_J_oxIl-10">
          <mxGeometry x="15" y="570" width="10" height="80" as="geometry" />
        </mxCell>
        <mxCell id="SY0zPpIJ2oUqB_J_oxIl-12" value="Admin" style="shape=umlLifeline;perimeter=lifelinePerimeter;whiteSpace=wrap;html=1;container=1;dropTarget=0;collapsible=0;recursiveResize=0;outlineConnect=0;portConstraint=eastwest;newEdgeStyle={&quot;edgeStyle&quot;:&quot;elbowEdgeStyle&quot;,&quot;elbow&quot;:&quot;vertical&quot;,&quot;curved&quot;:0,&quot;rounded&quot;:0};participant=umlActor;labelPosition=center;verticalLabelPosition=top;align=center;verticalAlign=bottom;" vertex="1" parent="1">
          <mxGeometry x="140" y="80" width="20" height="820" as="geometry" />
        </mxCell>
        <mxCell id="SY0zPpIJ2oUqB_J_oxIl-13" value="" style="html=1;points=[];perimeter=orthogonalPerimeter;outlineConnect=0;targetShapes=umlLifeline;portConstraint=eastwest;newEdgeStyle={&quot;edgeStyle&quot;:&quot;elbowEdgeStyle&quot;,&quot;elbow&quot;:&quot;vertical&quot;,&quot;curved&quot;:0,&quot;rounded&quot;:0};" vertex="1" parent="SY0zPpIJ2oUqB_J_oxIl-12">
          <mxGeometry x="5" y="60" width="10" height="730" as="geometry" />
        </mxCell>
        <mxCell id="SY0zPpIJ2oUqB_J_oxIl-14" value="2:Hiển thị" style="html=1;verticalAlign=bottom;endArrow=none;edgeStyle=elbowEdgeStyle;elbow=vertical;curved=0;rounded=0;startArrow=classic;startFill=1;endFill=0;dashed=1;" edge="1" parent="1">
          <mxGeometry width="80" relative="1" as="geometry">
            <mxPoint x="170" y="200" as="sourcePoint" />
            <mxPoint x="320" y="200" as="targetPoint" />
          </mxGeometry>
        </mxCell>
        <mxCell id="SY0zPpIJ2oUqB_J_oxIl-15" value="3: Nhập thông tin" style="html=1;verticalAlign=bottom;endArrow=classic;edgeStyle=elbowEdgeStyle;elbow=vertical;curved=0;rounded=0;startArrow=none;startFill=0;endFill=1;" edge="1" parent="1">
          <mxGeometry x="-0.0244" width="80" relative="1" as="geometry">
            <mxPoint x="170" y="233" as="sourcePoint" />
            <mxPoint x="350" y="233" as="targetPoint" />
            <Array as="points">
              <mxPoint x="300" y="233" />
              <mxPoint x="320" y="233" />
            </Array>
            <mxPoint as="offset" />
          </mxGeometry>
        </mxCell>
        <mxCell id="SY0zPpIJ2oUqB_J_oxIl-16" value="5: setter()" style="html=1;align=left;spacingLeft=2;endArrow=block;rounded=0;edgeStyle=orthogonalEdgeStyle;curved=0;rounded=0;" edge="1" parent="1">
          <mxGeometry x="-0.0588" relative="1" as="geometry">
            <mxPoint x="900" y="235" as="sourcePoint" />
            <Array as="points">
              <mxPoint x="930" y="235" />
              <mxPoint x="930" y="265" />
            </Array>
            <mxPoint x="905" y="265" as="targetPoint" />
            <mxPoint as="offset" />
          </mxGeometry>
        </mxCell>
        <mxCell id="SY0zPpIJ2oUqB_J_oxIl-17" value="23: Hiển thị" style="html=1;verticalAlign=bottom;endArrow=open;dashed=1;endSize=8;edgeStyle=elbowEdgeStyle;elbow=vertical;curved=0;rounded=0;" edge="1" parent="1" source="SY0zPpIJ2oUqB_J_oxIl-22" target="SY0zPpIJ2oUqB_J_oxIl-12">
          <mxGeometry relative="1" as="geometry">
            <mxPoint x="350" y="610" as="sourcePoint" />
            <mxPoint x="270" y="610" as="targetPoint" />
            <Array as="points">
              <mxPoint x="470" y="620" />
            </Array>
          </mxGeometry>
        </mxCell>
        <mxCell id="SY0zPpIJ2oUqB_J_oxIl-18" value="AdminHome" style="shape=umlLifeline;perimeter=lifelinePerimeter;whiteSpace=wrap;html=1;container=1;dropTarget=0;collapsible=0;recursiveResize=0;outlineConnect=0;portConstraint=eastwest;newEdgeStyle={&quot;edgeStyle&quot;:&quot;elbowEdgeStyle&quot;,&quot;elbow&quot;:&quot;vertical&quot;,&quot;curved&quot;:0,&quot;rounded&quot;:0};participant=umlBoundary;labelPosition=center;verticalLabelPosition=top;align=center;verticalAlign=bottom;" vertex="1" parent="1">
          <mxGeometry x="414" y="80" width="50" height="810" as="geometry" />
        </mxCell>
        <mxCell id="SY0zPpIJ2oUqB_J_oxIl-19" value="" style="html=1;points=[];perimeter=orthogonalPerimeter;outlineConnect=0;targetShapes=umlLifeline;portConstraint=eastwest;newEdgeStyle={&quot;edgeStyle&quot;:&quot;elbowEdgeStyle&quot;,&quot;elbow&quot;:&quot;vertical&quot;,&quot;curved&quot;:0,&quot;rounded&quot;:0};" vertex="1" parent="SY0zPpIJ2oUqB_J_oxIl-18">
          <mxGeometry x="20" y="280" width="10" height="50" as="geometry" />
        </mxCell>
        <mxCell id="SY0zPpIJ2oUqB_J_oxIl-20" value="" style="html=1;points=[];perimeter=orthogonalPerimeter;outlineConnect=0;targetShapes=umlLifeline;portConstraint=eastwest;newEdgeStyle={&quot;edgeStyle&quot;:&quot;elbowEdgeStyle&quot;,&quot;elbow&quot;:&quot;vertical&quot;,&quot;curved&quot;:0,&quot;rounded&quot;:0};" vertex="1" parent="SY0zPpIJ2oUqB_J_oxIl-18">
          <mxGeometry x="20" y="345" width="10" height="65" as="geometry" />
        </mxCell>
        <mxCell id="SY0zPpIJ2oUqB_J_oxIl-21" value="TicketDetail" style="shape=umlLifeline;perimeter=lifelinePerimeter;whiteSpace=wrap;html=1;container=1;dropTarget=0;collapsible=0;recursiveResize=0;outlineConnect=0;portConstraint=eastwest;newEdgeStyle={&quot;edgeStyle&quot;:&quot;elbowEdgeStyle&quot;,&quot;elbow&quot;:&quot;vertical&quot;,&quot;curved&quot;:0,&quot;rounded&quot;:0};participant=umlBoundary;labelPosition=center;verticalLabelPosition=top;align=center;verticalAlign=bottom;" vertex="1" parent="1">
          <mxGeometry x="570" y="80" width="50" height="820" as="geometry" />
        </mxCell>
        <mxCell id="SY0zPpIJ2oUqB_J_oxIl-22" value="" style="html=1;points=[];perimeter=orthogonalPerimeter;outlineConnect=0;targetShapes=umlLifeline;portConstraint=eastwest;newEdgeStyle={&quot;edgeStyle&quot;:&quot;elbowEdgeStyle&quot;,&quot;elbow&quot;:&quot;vertical&quot;,&quot;curved&quot;:0,&quot;rounded&quot;:0};" vertex="1" parent="SY0zPpIJ2oUqB_J_oxIl-21">
          <mxGeometry x="20" y="460" width="10" height="320" as="geometry" />
        </mxCell>
        <mxCell id="SY0zPpIJ2oUqB_J_oxIl-23" value="AccountDAL" style="shape=umlLifeline;perimeter=lifelinePerimeter;whiteSpace=wrap;html=1;container=1;dropTarget=0;collapsible=0;recursiveResize=0;outlineConnect=0;portConstraint=eastwest;newEdgeStyle={&quot;edgeStyle&quot;:&quot;elbowEdgeStyle&quot;,&quot;elbow&quot;:&quot;vertical&quot;,&quot;curved&quot;:0,&quot;rounded&quot;:0};participant=umlControl;labelPosition=center;verticalLabelPosition=top;align=center;verticalAlign=bottom;" vertex="1" parent="1">
          <mxGeometry x="720" y="80" width="40" height="810" as="geometry" />
        </mxCell>
        <mxCell id="SY0zPpIJ2oUqB_J_oxIl-24" value="" style="points=[];perimeter=orthogonalPerimeter;outlineConnect=0;targetShapes=umlLifeline;portConstraint=eastwest;newEdgeStyle={&quot;edgeStyle&quot;:&quot;elbowEdgeStyle&quot;,&quot;elbow&quot;:&quot;vertical&quot;,&quot;curved&quot;:0,&quot;rounded&quot;:0};" vertex="1" parent="SY0zPpIJ2oUqB_J_oxIl-23">
          <mxGeometry x="15" y="210" width="10" height="80" as="geometry" />
        </mxCell>
        <mxCell id="SY0zPpIJ2oUqB_J_oxIl-25" value="Account" style="shape=umlLifeline;perimeter=lifelinePerimeter;whiteSpace=wrap;html=1;container=1;dropTarget=0;collapsible=0;recursiveResize=0;outlineConnect=0;portConstraint=eastwest;newEdgeStyle={&quot;edgeStyle&quot;:&quot;elbowEdgeStyle&quot;,&quot;elbow&quot;:&quot;vertical&quot;,&quot;curved&quot;:0,&quot;rounded&quot;:0};participant=umlEntity;labelPosition=center;verticalLabelPosition=top;align=center;verticalAlign=bottom;" vertex="1" parent="1">
          <mxGeometry x="870" y="80" width="40" height="800" as="geometry" />
        </mxCell>
        <mxCell id="SY0zPpIJ2oUqB_J_oxIl-26" value="4: Gọi" style="html=1;verticalAlign=bottom;endArrow=block;edgeStyle=elbowEdgeStyle;elbow=vertical;curved=0;rounded=0;" edge="1" parent="1" target="SY0zPpIJ2oUqB_J_oxIl-27">
          <mxGeometry width="80" relative="1" as="geometry">
            <mxPoint x="360" y="240" as="sourcePoint" />
            <mxPoint x="890" y="240" as="targetPoint" />
          </mxGeometry>
        </mxCell>
        <mxCell id="SY0zPpIJ2oUqB_J_oxIl-27" value="" style="html=1;points=[];perimeter=orthogonalPerimeter;outlineConnect=0;targetShapes=umlLifeline;portConstraint=eastwest;newEdgeStyle={&quot;edgeStyle&quot;:&quot;elbowEdgeStyle&quot;,&quot;elbow&quot;:&quot;vertical&quot;,&quot;curved&quot;:0,&quot;rounded&quot;:0};" vertex="1" parent="1">
          <mxGeometry x="885" y="220" width="10" height="60" as="geometry" />
        </mxCell>
        <mxCell id="SY0zPpIJ2oUqB_J_oxIl-28" value="6: Trả về kết quả" style="html=1;verticalAlign=bottom;endArrow=open;dashed=1;endSize=8;edgeStyle=elbowEdgeStyle;elbow=vertical;curved=0;rounded=0;" edge="1" parent="1" target="SY0zPpIJ2oUqB_J_oxIl-2">
          <mxGeometry relative="1" as="geometry">
            <mxPoint x="880" y="270" as="sourcePoint" />
            <mxPoint x="800" y="270" as="targetPoint" />
          </mxGeometry>
        </mxCell>
        <mxCell id="SY0zPpIJ2oUqB_J_oxIl-29" value="7: Gọi" style="html=1;verticalAlign=bottom;endArrow=block;edgeStyle=elbowEdgeStyle;elbow=vertical;curved=0;rounded=0;" edge="1" parent="1" target="SY0zPpIJ2oUqB_J_oxIl-23">
          <mxGeometry width="80" relative="1" as="geometry">
            <mxPoint x="360" y="310" as="sourcePoint" />
            <mxPoint x="440" y="310" as="targetPoint" />
          </mxGeometry>
        </mxCell>
        <mxCell id="SY0zPpIJ2oUqB_J_oxIl-30" value="8: checkLogin()" style="html=1;align=left;spacingLeft=2;endArrow=block;rounded=0;edgeStyle=orthogonalEdgeStyle;curved=0;rounded=0;" edge="1" parent="1">
          <mxGeometry x="-0.0588" relative="1" as="geometry">
            <mxPoint x="750" y="310" as="sourcePoint" />
            <Array as="points">
              <mxPoint x="780" y="310" />
              <mxPoint x="780" y="340" />
            </Array>
            <mxPoint x="755" y="340" as="targetPoint" />
            <mxPoint as="offset" />
          </mxGeometry>
        </mxCell>
        <mxCell id="SY0zPpIJ2oUqB_J_oxIl-31" value="9: Trả kết quả" style="html=1;verticalAlign=bottom;endArrow=open;dashed=1;endSize=8;edgeStyle=elbowEdgeStyle;elbow=vertical;curved=0;rounded=0;" edge="1" parent="1" target="SY0zPpIJ2oUqB_J_oxIl-2">
          <mxGeometry relative="1" as="geometry">
            <mxPoint x="730" y="340" as="sourcePoint" />
            <mxPoint x="650" y="340" as="targetPoint" />
          </mxGeometry>
        </mxCell>
        <mxCell id="SY0zPpIJ2oUqB_J_oxIl-32" value="10: Gọi" style="html=1;verticalAlign=bottom;endArrow=block;edgeStyle=elbowEdgeStyle;elbow=vertical;curved=0;rounded=0;" edge="1" parent="1" target="SY0zPpIJ2oUqB_J_oxIl-18">
          <mxGeometry width="80" relative="1" as="geometry">
            <mxPoint x="360" y="370" as="sourcePoint" />
            <mxPoint x="440" y="370" as="targetPoint" />
          </mxGeometry>
        </mxCell>
        <mxCell id="SY0zPpIJ2oUqB_J_oxIl-33" value="11; HIển thị" style="html=1;verticalAlign=bottom;endArrow=open;dashed=1;endSize=8;edgeStyle=elbowEdgeStyle;elbow=vertical;curved=0;rounded=0;" edge="1" parent="1" target="SY0zPpIJ2oUqB_J_oxIl-12">
          <mxGeometry relative="1" as="geometry">
            <mxPoint x="430" y="400" as="sourcePoint" />
            <mxPoint x="350" y="400" as="targetPoint" />
          </mxGeometry>
        </mxCell>
        <mxCell id="SY0zPpIJ2oUqB_J_oxIl-34" value="12; Chọn quản lý vé" style="html=1;verticalAlign=bottom;endArrow=block;edgeStyle=elbowEdgeStyle;elbow=vertical;curved=0;rounded=0;" edge="1" parent="1" target="SY0zPpIJ2oUqB_J_oxIl-18">
          <mxGeometry width="80" relative="1" as="geometry">
            <mxPoint x="160" y="430" as="sourcePoint" />
            <mxPoint x="240" y="430" as="targetPoint" />
          </mxGeometry>
        </mxCell>
        <mxCell id="SY0zPpIJ2oUqB_J_oxIl-35" value="13: Gọi" style="html=1;verticalAlign=bottom;endArrow=block;edgeStyle=elbowEdgeStyle;elbow=vertical;curved=0;rounded=0;" edge="1" parent="1">
          <mxGeometry width="80" relative="1" as="geometry">
            <mxPoint x="440" y="450" as="sourcePoint" />
            <mxPoint x="520" y="450" as="targetPoint" />
          </mxGeometry>
        </mxCell>
        <mxCell id="SY0zPpIJ2oUqB_J_oxIl-36" value="14: Gọi" style="html=1;verticalAlign=bottom;endArrow=block;edgeStyle=elbowEdgeStyle;elbow=vertical;curved=0;rounded=0;" edge="1" parent="1" target="SY0zPpIJ2oUqB_J_oxIl-6">
          <mxGeometry width="80" relative="1" as="geometry">
            <mxPoint x="530" y="460" as="sourcePoint" />
            <mxPoint x="610" y="460" as="targetPoint" />
          </mxGeometry>
        </mxCell>
        <mxCell id="SY0zPpIJ2oUqB_J_oxIl-37" value="15: getListTIcket()" style="html=1;align=left;spacingLeft=2;endArrow=block;rounded=0;edgeStyle=orthogonalEdgeStyle;curved=0;rounded=0;" edge="1" parent="1">
          <mxGeometry x="-0.0588" relative="1" as="geometry">
            <mxPoint x="680" y="470" as="sourcePoint" />
            <Array as="points">
              <mxPoint x="710" y="470" />
              <mxPoint x="710" y="500" />
            </Array>
            <mxPoint x="685" y="500" as="targetPoint" />
            <mxPoint as="offset" />
          </mxGeometry>
        </mxCell>
        <mxCell id="SY0zPpIJ2oUqB_J_oxIl-38" value="16: Trả về kết quả" style="html=1;verticalAlign=bottom;endArrow=open;dashed=1;endSize=8;edgeStyle=elbowEdgeStyle;elbow=vertical;curved=0;rounded=0;" edge="1" parent="1" source="SY0zPpIJ2oUqB_J_oxIl-6">
          <mxGeometry relative="1" as="geometry">
            <mxPoint x="620" y="500" as="sourcePoint" />
            <mxPoint x="530" y="510" as="targetPoint" />
            <Array as="points">
              <mxPoint x="620" y="510" />
            </Array>
          </mxGeometry>
        </mxCell>
        <mxCell id="SY0zPpIJ2oUqB_J_oxIl-39" value="17: Hiển thị" style="html=1;verticalAlign=bottom;endArrow=open;dashed=1;endSize=8;edgeStyle=elbowEdgeStyle;elbow=vertical;curved=0;rounded=0;" edge="1" parent="1" target="SY0zPpIJ2oUqB_J_oxIl-12">
          <mxGeometry relative="1" as="geometry">
            <mxPoint x="520" y="510" as="sourcePoint" />
            <mxPoint x="440" y="510" as="targetPoint" />
            <Array as="points">
              <mxPoint x="480" y="520" />
            </Array>
          </mxGeometry>
        </mxCell>
        <mxCell id="SY0zPpIJ2oUqB_J_oxIl-40" value="18: Chọn một vé" style="html=1;verticalAlign=bottom;endArrow=block;edgeStyle=elbowEdgeStyle;elbow=vertical;curved=0;rounded=0;" edge="1" parent="1" target="SY0zPpIJ2oUqB_J_oxIl-4">
          <mxGeometry width="80" relative="1" as="geometry">
            <mxPoint x="160" y="540" as="sourcePoint" />
            <mxPoint x="240" y="540" as="targetPoint" />
          </mxGeometry>
        </mxCell>
        <mxCell id="SY0zPpIJ2oUqB_J_oxIl-41" value="19: Gọi" style="html=1;verticalAlign=bottom;endArrow=block;edgeStyle=elbowEdgeStyle;elbow=vertical;curved=0;rounded=0;" edge="1" parent="1" target="SY0zPpIJ2oUqB_J_oxIl-21">
          <mxGeometry width="80" relative="1" as="geometry">
            <mxPoint x="530" y="550" as="sourcePoint" />
            <mxPoint x="600" y="550" as="targetPoint" />
          </mxGeometry>
        </mxCell>
        <mxCell id="SY0zPpIJ2oUqB_J_oxIl-42" value="20: Gọi" style="html=1;verticalAlign=bottom;endArrow=block;edgeStyle=elbowEdgeStyle;elbow=vertical;curved=0;rounded=0;" edge="1" parent="1">
          <mxGeometry width="80" relative="1" as="geometry">
            <mxPoint x="600" y="570" as="sourcePoint" />
            <mxPoint x="670" y="570" as="targetPoint" />
          </mxGeometry>
        </mxCell>
        <mxCell id="SY0zPpIJ2oUqB_J_oxIl-43" value="21: getTicketByID()" style="html=1;align=left;spacingLeft=2;endArrow=block;rounded=0;edgeStyle=orthogonalEdgeStyle;curved=0;rounded=0;" edge="1" parent="1">
          <mxGeometry x="-0.0588" relative="1" as="geometry">
            <mxPoint x="680" y="570" as="sourcePoint" />
            <Array as="points">
              <mxPoint x="710" y="570" />
              <mxPoint x="710" y="600" />
            </Array>
            <mxPoint x="685" y="600" as="targetPoint" />
            <mxPoint as="offset" />
          </mxGeometry>
        </mxCell>
        <mxCell id="SY0zPpIJ2oUqB_J_oxIl-44" value="22: Kết quả" style="html=1;verticalAlign=bottom;endArrow=open;dashed=1;endSize=8;edgeStyle=elbowEdgeStyle;elbow=vertical;curved=0;rounded=0;" edge="1" parent="1">
          <mxGeometry relative="1" as="geometry">
            <mxPoint x="670" y="600" as="sourcePoint" />
            <mxPoint x="600" y="600" as="targetPoint" />
          </mxGeometry>
        </mxCell>
        <mxCell id="SY0zPpIJ2oUqB_J_oxIl-45" value="24: Sửa thông tin giá vé" style="html=1;verticalAlign=bottom;endArrow=block;edgeStyle=elbowEdgeStyle;elbow=vertical;curved=0;rounded=0;" edge="1" parent="1" target="SY0zPpIJ2oUqB_J_oxIl-21">
          <mxGeometry width="80" relative="1" as="geometry">
            <mxPoint x="150" y="650" as="sourcePoint" />
            <mxPoint x="230" y="650" as="targetPoint" />
          </mxGeometry>
        </mxCell>
        <mxCell id="SY0zPpIJ2oUqB_J_oxIl-46" value="25: Gọi" style="html=1;verticalAlign=bottom;endArrow=block;edgeStyle=elbowEdgeStyle;elbow=vertical;curved=0;rounded=0;" edge="1" parent="1" target="SY0zPpIJ2oUqB_J_oxIl-10">
          <mxGeometry width="80" relative="1" as="geometry">
            <mxPoint x="600" y="670" as="sourcePoint" />
            <mxPoint x="790" y="670" as="targetPoint" />
          </mxGeometry>
        </mxCell>
        <mxCell id="SY0zPpIJ2oUqB_J_oxIl-47" value="26: setter()" style="html=1;align=left;spacingLeft=2;endArrow=block;rounded=0;edgeStyle=orthogonalEdgeStyle;curved=0;rounded=0;" edge="1" parent="1">
          <mxGeometry x="-0.0588" relative="1" as="geometry">
            <mxPoint x="820" y="670" as="sourcePoint" />
            <Array as="points">
              <mxPoint x="850" y="670" />
              <mxPoint x="850" y="700" />
            </Array>
            <mxPoint x="825" y="700" as="targetPoint" />
            <mxPoint as="offset" />
          </mxGeometry>
        </mxCell>
        <mxCell id="SY0zPpIJ2oUqB_J_oxIl-48" value="27: Trả kết quả" style="html=1;verticalAlign=bottom;endArrow=open;dashed=1;endSize=8;edgeStyle=elbowEdgeStyle;elbow=vertical;curved=0;rounded=0;" edge="1" parent="1" target="SY0zPpIJ2oUqB_J_oxIl-21">
          <mxGeometry relative="1" as="geometry">
            <mxPoint x="800" y="700" as="sourcePoint" />
            <mxPoint x="720" y="700" as="targetPoint" />
          </mxGeometry>
        </mxCell>
        <mxCell id="SY0zPpIJ2oUqB_J_oxIl-49" value="28: Gọi" style="html=1;verticalAlign=bottom;endArrow=block;edgeStyle=elbowEdgeStyle;elbow=vertical;curved=0;rounded=0;" edge="1" parent="1">
          <mxGeometry width="80" relative="1" as="geometry">
            <mxPoint x="600" y="740" as="sourcePoint" />
            <mxPoint x="670" y="740" as="targetPoint" />
          </mxGeometry>
        </mxCell>
        <mxCell id="SY0zPpIJ2oUqB_J_oxIl-50" value="29: UpdateTIcket()" style="html=1;align=left;spacingLeft=2;endArrow=block;rounded=0;edgeStyle=orthogonalEdgeStyle;curved=0;rounded=0;" edge="1" parent="1">
          <mxGeometry x="-0.0588" relative="1" as="geometry">
            <mxPoint x="680" y="740" as="sourcePoint" />
            <Array as="points">
              <mxPoint x="710" y="740" />
              <mxPoint x="710" y="770" />
            </Array>
            <mxPoint x="685" y="770" as="targetPoint" />
            <mxPoint as="offset" />
          </mxGeometry>
        </mxCell>
        <mxCell id="SY0zPpIJ2oUqB_J_oxIl-51" value="30: Kết quả" style="html=1;verticalAlign=bottom;endArrow=open;dashed=1;endSize=8;edgeStyle=elbowEdgeStyle;elbow=vertical;curved=0;rounded=0;" edge="1" parent="1">
          <mxGeometry relative="1" as="geometry">
            <mxPoint x="670" y="770" as="sourcePoint" />
            <mxPoint x="600" y="770" as="targetPoint" />
          </mxGeometry>
        </mxCell>
        <mxCell id="SY0zPpIJ2oUqB_J_oxIl-52" value="31: Thông báo thành công" style="html=1;verticalAlign=bottom;endArrow=open;dashed=1;endSize=8;edgeStyle=elbowEdgeStyle;elbow=vertical;curved=0;rounded=0;" edge="1" parent="1" target="SY0zPpIJ2oUqB_J_oxIl-12">
          <mxGeometry relative="1" as="geometry">
            <mxPoint x="590" y="790" as="sourcePoint" />
            <mxPoint x="510" y="790" as="targetPoint" />
          </mxGeometry>
        </mxCell>
      </root>
    </mxGraphModel>
  </diagram>
  <diagram id="0Z76nOyclF1sExp2FvV7" name="Trang-5">
    <mxGraphModel dx="1434" dy="774" grid="1" gridSize="10" guides="1" tooltips="1" connect="1" arrows="1" fold="1" page="1" pageScale="1" pageWidth="827" pageHeight="1169" math="0" shadow="0">
      <root>
        <mxCell id="0" />
        <mxCell id="1" parent="0" />
        <mxCell id="yKzPhJiVxuT3X4ERfiG_-1" value="1: truy cập hệ thống" style="html=1;verticalAlign=bottom;endArrow=classic;edgeStyle=elbowEdgeStyle;elbow=vertical;curved=0;rounded=0;startArrow=none;startFill=0;endFill=1;" edge="1" parent="1">
          <mxGeometry width="80" relative="1" as="geometry">
            <mxPoint x="170" y="170.18" as="sourcePoint" />
            <mxPoint x="350" y="170.18" as="targetPoint" />
          </mxGeometry>
        </mxCell>
        <mxCell id="yKzPhJiVxuT3X4ERfiG_-2" value="LoginVIew" style="shape=umlLifeline;perimeter=lifelinePerimeter;whiteSpace=wrap;html=1;container=1;dropTarget=0;collapsible=0;recursiveResize=0;outlineConnect=0;portConstraint=eastwest;newEdgeStyle={&quot;edgeStyle&quot;:&quot;elbowEdgeStyle&quot;,&quot;elbow&quot;:&quot;vertical&quot;,&quot;curved&quot;:0,&quot;rounded&quot;:0};participant=umlBoundary;verticalAlign=bottom;labelPosition=center;verticalLabelPosition=top;align=center;" vertex="1" parent="1">
          <mxGeometry x="330" y="80" width="50" height="920" as="geometry" />
        </mxCell>
        <mxCell id="yKzPhJiVxuT3X4ERfiG_-3" value="" style="html=1;points=[];perimeter=orthogonalPerimeter;outlineConnect=0;targetShapes=umlLifeline;portConstraint=eastwest;newEdgeStyle={&quot;edgeStyle&quot;:&quot;elbowEdgeStyle&quot;,&quot;elbow&quot;:&quot;vertical&quot;,&quot;curved&quot;:0,&quot;rounded&quot;:0};" vertex="1" parent="yKzPhJiVxuT3X4ERfiG_-2">
          <mxGeometry x="20" y="90" width="10" height="220" as="geometry" />
        </mxCell>
        <mxCell id="yKzPhJiVxuT3X4ERfiG_-4" value="ShowTimeList" style="shape=umlLifeline;perimeter=lifelinePerimeter;whiteSpace=wrap;html=1;container=1;dropTarget=0;collapsible=0;recursiveResize=0;outlineConnect=0;portConstraint=eastwest;newEdgeStyle={&quot;edgeStyle&quot;:&quot;elbowEdgeStyle&quot;,&quot;elbow&quot;:&quot;vertical&quot;,&quot;curved&quot;:0,&quot;rounded&quot;:0};participant=umlBoundary;labelPosition=center;verticalLabelPosition=top;align=center;verticalAlign=bottom;" vertex="1" parent="1">
          <mxGeometry x="500" y="80" width="50" height="920" as="geometry" />
        </mxCell>
        <mxCell id="yKzPhJiVxuT3X4ERfiG_-22" value="" style="html=1;points=[];perimeter=orthogonalPerimeter;outlineConnect=0;targetShapes=umlLifeline;portConstraint=eastwest;newEdgeStyle={&quot;edgeStyle&quot;:&quot;elbowEdgeStyle&quot;,&quot;elbow&quot;:&quot;vertical&quot;,&quot;curved&quot;:0,&quot;rounded&quot;:0};" vertex="1" parent="yKzPhJiVxuT3X4ERfiG_-4">
          <mxGeometry x="20" y="490" width="10" height="180" as="geometry" />
        </mxCell>
        <mxCell id="yKzPhJiVxuT3X4ERfiG_-6" value="ShowTimeDAL" style="shape=umlLifeline;perimeter=lifelinePerimeter;whiteSpace=wrap;html=1;container=1;dropTarget=0;collapsible=0;recursiveResize=0;outlineConnect=0;portConstraint=eastwest;newEdgeStyle={&quot;edgeStyle&quot;:&quot;elbowEdgeStyle&quot;,&quot;elbow&quot;:&quot;vertical&quot;,&quot;curved&quot;:0,&quot;rounded&quot;:0};participant=umlControl;labelPosition=center;verticalLabelPosition=top;align=center;verticalAlign=bottom;" vertex="1" parent="1">
          <mxGeometry x="720" y="85" width="40" height="915" as="geometry" />
        </mxCell>
        <mxCell id="yKzPhJiVxuT3X4ERfiG_-8" value="" style="html=1;points=[];perimeter=orthogonalPerimeter;outlineConnect=0;targetShapes=umlLifeline;portConstraint=eastwest;newEdgeStyle={&quot;edgeStyle&quot;:&quot;elbowEdgeStyle&quot;,&quot;elbow&quot;:&quot;vertical&quot;,&quot;curved&quot;:0,&quot;rounded&quot;:0};" vertex="1" parent="yKzPhJiVxuT3X4ERfiG_-6">
          <mxGeometry x="15" y="500" width="10" height="80" as="geometry" />
        </mxCell>
        <mxCell id="yKzPhJiVxuT3X4ERfiG_-9" value="" style="html=1;points=[];perimeter=orthogonalPerimeter;outlineConnect=0;targetShapes=umlLifeline;portConstraint=eastwest;newEdgeStyle={&quot;edgeStyle&quot;:&quot;elbowEdgeStyle&quot;,&quot;elbow&quot;:&quot;vertical&quot;,&quot;curved&quot;:0,&quot;rounded&quot;:0};" vertex="1" parent="yKzPhJiVxuT3X4ERfiG_-6">
          <mxGeometry x="15" y="625" width="10" height="75" as="geometry" />
        </mxCell>
        <mxCell id="lsxIUrfgfMwXCd-9Cd6y-2" value="" style="html=1;points=[];perimeter=orthogonalPerimeter;outlineConnect=0;targetShapes=umlLifeline;portConstraint=eastwest;newEdgeStyle={&quot;edgeStyle&quot;:&quot;elbowEdgeStyle&quot;,&quot;elbow&quot;:&quot;vertical&quot;,&quot;curved&quot;:0,&quot;rounded&quot;:0};" vertex="1" parent="yKzPhJiVxuT3X4ERfiG_-6">
          <mxGeometry x="15" y="755" width="10" height="80" as="geometry" />
        </mxCell>
        <mxCell id="yKzPhJiVxuT3X4ERfiG_-10" value="ShowTIme" style="shape=umlLifeline;perimeter=lifelinePerimeter;whiteSpace=wrap;html=1;container=1;dropTarget=0;collapsible=0;recursiveResize=0;outlineConnect=0;portConstraint=eastwest;newEdgeStyle={&quot;edgeStyle&quot;:&quot;elbowEdgeStyle&quot;,&quot;elbow&quot;:&quot;vertical&quot;,&quot;curved&quot;:0,&quot;rounded&quot;:0};participant=umlEntity;labelPosition=center;verticalLabelPosition=top;align=center;verticalAlign=bottom;" vertex="1" parent="1">
          <mxGeometry x="930" y="85" width="40" height="915" as="geometry" />
        </mxCell>
        <mxCell id="yKzPhJiVxuT3X4ERfiG_-11" value="" style="html=1;points=[];perimeter=orthogonalPerimeter;outlineConnect=0;targetShapes=umlLifeline;portConstraint=eastwest;newEdgeStyle={&quot;edgeStyle&quot;:&quot;elbowEdgeStyle&quot;,&quot;elbow&quot;:&quot;vertical&quot;,&quot;curved&quot;:0,&quot;rounded&quot;:0};" vertex="1" parent="yKzPhJiVxuT3X4ERfiG_-10">
          <mxGeometry x="15" y="685" width="10" height="80" as="geometry" />
        </mxCell>
        <mxCell id="yKzPhJiVxuT3X4ERfiG_-12" value="Admin" style="shape=umlLifeline;perimeter=lifelinePerimeter;whiteSpace=wrap;html=1;container=1;dropTarget=0;collapsible=0;recursiveResize=0;outlineConnect=0;portConstraint=eastwest;newEdgeStyle={&quot;edgeStyle&quot;:&quot;elbowEdgeStyle&quot;,&quot;elbow&quot;:&quot;vertical&quot;,&quot;curved&quot;:0,&quot;rounded&quot;:0};participant=umlActor;labelPosition=center;verticalLabelPosition=top;align=center;verticalAlign=bottom;" vertex="1" parent="1">
          <mxGeometry x="140" y="80" width="20" height="920" as="geometry" />
        </mxCell>
        <mxCell id="yKzPhJiVxuT3X4ERfiG_-13" value="" style="html=1;points=[];perimeter=orthogonalPerimeter;outlineConnect=0;targetShapes=umlLifeline;portConstraint=eastwest;newEdgeStyle={&quot;edgeStyle&quot;:&quot;elbowEdgeStyle&quot;,&quot;elbow&quot;:&quot;vertical&quot;,&quot;curved&quot;:0,&quot;rounded&quot;:0};" vertex="1" parent="yKzPhJiVxuT3X4ERfiG_-12">
          <mxGeometry x="5" y="60" width="10" height="830" as="geometry" />
        </mxCell>
        <mxCell id="yKzPhJiVxuT3X4ERfiG_-14" value="2:Hiển thị" style="html=1;verticalAlign=bottom;endArrow=none;edgeStyle=elbowEdgeStyle;elbow=vertical;curved=0;rounded=0;startArrow=classic;startFill=1;endFill=0;dashed=1;" edge="1" parent="1">
          <mxGeometry width="80" relative="1" as="geometry">
            <mxPoint x="170" y="200" as="sourcePoint" />
            <mxPoint x="320" y="200" as="targetPoint" />
          </mxGeometry>
        </mxCell>
        <mxCell id="yKzPhJiVxuT3X4ERfiG_-15" value="3: Nhập thông tin" style="html=1;verticalAlign=bottom;endArrow=classic;edgeStyle=elbowEdgeStyle;elbow=vertical;curved=0;rounded=0;startArrow=none;startFill=0;endFill=1;" edge="1" parent="1">
          <mxGeometry x="-0.0244" width="80" relative="1" as="geometry">
            <mxPoint x="170" y="233" as="sourcePoint" />
            <mxPoint x="350" y="233" as="targetPoint" />
            <Array as="points">
              <mxPoint x="300" y="233" />
              <mxPoint x="320" y="233" />
            </Array>
            <mxPoint as="offset" />
          </mxGeometry>
        </mxCell>
        <mxCell id="yKzPhJiVxuT3X4ERfiG_-16" value="5: setter()" style="html=1;align=left;spacingLeft=2;endArrow=block;rounded=0;edgeStyle=orthogonalEdgeStyle;curved=0;rounded=0;" edge="1" parent="1">
          <mxGeometry x="-0.0588" relative="1" as="geometry">
            <mxPoint x="1060" y="240" as="sourcePoint" />
            <Array as="points">
              <mxPoint x="1090" y="240" />
              <mxPoint x="1090" y="270" />
            </Array>
            <mxPoint x="1065" y="270" as="targetPoint" />
            <mxPoint as="offset" />
          </mxGeometry>
        </mxCell>
        <mxCell id="yKzPhJiVxuT3X4ERfiG_-18" value="AdminHome" style="shape=umlLifeline;perimeter=lifelinePerimeter;whiteSpace=wrap;html=1;container=1;dropTarget=0;collapsible=0;recursiveResize=0;outlineConnect=0;portConstraint=eastwest;newEdgeStyle={&quot;edgeStyle&quot;:&quot;elbowEdgeStyle&quot;,&quot;elbow&quot;:&quot;vertical&quot;,&quot;curved&quot;:0,&quot;rounded&quot;:0};participant=umlBoundary;labelPosition=center;verticalLabelPosition=top;align=center;verticalAlign=bottom;" vertex="1" parent="1">
          <mxGeometry x="414" y="80" width="50" height="920" as="geometry" />
        </mxCell>
        <mxCell id="yKzPhJiVxuT3X4ERfiG_-19" value="" style="html=1;points=[];perimeter=orthogonalPerimeter;outlineConnect=0;targetShapes=umlLifeline;portConstraint=eastwest;newEdgeStyle={&quot;edgeStyle&quot;:&quot;elbowEdgeStyle&quot;,&quot;elbow&quot;:&quot;vertical&quot;,&quot;curved&quot;:0,&quot;rounded&quot;:0};" vertex="1" parent="yKzPhJiVxuT3X4ERfiG_-18">
          <mxGeometry x="20" y="280" width="10" height="50" as="geometry" />
        </mxCell>
        <mxCell id="yKzPhJiVxuT3X4ERfiG_-20" value="" style="html=1;points=[];perimeter=orthogonalPerimeter;outlineConnect=0;targetShapes=umlLifeline;portConstraint=eastwest;newEdgeStyle={&quot;edgeStyle&quot;:&quot;elbowEdgeStyle&quot;,&quot;elbow&quot;:&quot;vertical&quot;,&quot;curved&quot;:0,&quot;rounded&quot;:0};" vertex="1" parent="yKzPhJiVxuT3X4ERfiG_-18">
          <mxGeometry x="20" y="345" width="10" height="65" as="geometry" />
        </mxCell>
        <mxCell id="yKzPhJiVxuT3X4ERfiG_-21" value="ShowTimeDetail" style="shape=umlLifeline;perimeter=lifelinePerimeter;whiteSpace=wrap;html=1;container=1;dropTarget=0;collapsible=0;recursiveResize=0;outlineConnect=0;portConstraint=eastwest;newEdgeStyle={&quot;edgeStyle&quot;:&quot;elbowEdgeStyle&quot;,&quot;elbow&quot;:&quot;vertical&quot;,&quot;curved&quot;:0,&quot;rounded&quot;:0};participant=umlBoundary;labelPosition=center;verticalLabelPosition=top;align=center;verticalAlign=bottom;" vertex="1" parent="1">
          <mxGeometry x="570" y="80" width="50" height="930" as="geometry" />
        </mxCell>
        <mxCell id="lLpCzPh1Ivz2-w_pSPUw-1" value="" style="html=1;points=[];perimeter=orthogonalPerimeter;outlineConnect=0;targetShapes=umlLifeline;portConstraint=eastwest;newEdgeStyle={&quot;edgeStyle&quot;:&quot;elbowEdgeStyle&quot;,&quot;elbow&quot;:&quot;vertical&quot;,&quot;curved&quot;:0,&quot;rounded&quot;:0};" vertex="1" parent="yKzPhJiVxuT3X4ERfiG_-21">
          <mxGeometry x="20" y="610" width="10" height="230" as="geometry" />
        </mxCell>
        <mxCell id="yKzPhJiVxuT3X4ERfiG_-23" value="AccountDAL" style="shape=umlLifeline;perimeter=lifelinePerimeter;whiteSpace=wrap;html=1;container=1;dropTarget=0;collapsible=0;recursiveResize=0;outlineConnect=0;portConstraint=eastwest;newEdgeStyle={&quot;edgeStyle&quot;:&quot;elbowEdgeStyle&quot;,&quot;elbow&quot;:&quot;vertical&quot;,&quot;curved&quot;:0,&quot;rounded&quot;:0};participant=umlControl;labelPosition=center;verticalLabelPosition=top;align=center;verticalAlign=bottom;" vertex="1" parent="1">
          <mxGeometry x="790" y="85" width="40" height="915" as="geometry" />
        </mxCell>
        <mxCell id="yKzPhJiVxuT3X4ERfiG_-24" value="" style="points=[];perimeter=orthogonalPerimeter;outlineConnect=0;targetShapes=umlLifeline;portConstraint=eastwest;newEdgeStyle={&quot;edgeStyle&quot;:&quot;elbowEdgeStyle&quot;,&quot;elbow&quot;:&quot;vertical&quot;,&quot;curved&quot;:0,&quot;rounded&quot;:0};" vertex="1" parent="yKzPhJiVxuT3X4ERfiG_-23">
          <mxGeometry x="15" y="210" width="10" height="80" as="geometry" />
        </mxCell>
        <mxCell id="yKzPhJiVxuT3X4ERfiG_-25" value="Account" style="shape=umlLifeline;perimeter=lifelinePerimeter;whiteSpace=wrap;html=1;container=1;dropTarget=0;collapsible=0;recursiveResize=0;outlineConnect=0;portConstraint=eastwest;newEdgeStyle={&quot;edgeStyle&quot;:&quot;elbowEdgeStyle&quot;,&quot;elbow&quot;:&quot;vertical&quot;,&quot;curved&quot;:0,&quot;rounded&quot;:0};participant=umlEntity;labelPosition=center;verticalLabelPosition=top;align=center;verticalAlign=bottom;" vertex="1" parent="1">
          <mxGeometry x="1030" y="87.5" width="40" height="915" as="geometry" />
        </mxCell>
        <mxCell id="yKzPhJiVxuT3X4ERfiG_-27" value="" style="html=1;points=[];perimeter=orthogonalPerimeter;outlineConnect=0;targetShapes=umlLifeline;portConstraint=eastwest;newEdgeStyle={&quot;edgeStyle&quot;:&quot;elbowEdgeStyle&quot;,&quot;elbow&quot;:&quot;vertical&quot;,&quot;curved&quot;:0,&quot;rounded&quot;:0};" vertex="1" parent="yKzPhJiVxuT3X4ERfiG_-25">
          <mxGeometry x="15" y="140" width="10" height="60" as="geometry" />
        </mxCell>
        <mxCell id="yKzPhJiVxuT3X4ERfiG_-26" value="4: Gọi" style="html=1;verticalAlign=bottom;endArrow=block;edgeStyle=elbowEdgeStyle;elbow=vertical;curved=0;rounded=0;" edge="1" parent="1" target="yKzPhJiVxuT3X4ERfiG_-27">
          <mxGeometry width="80" relative="1" as="geometry">
            <mxPoint x="360" y="240" as="sourcePoint" />
            <mxPoint x="890" y="240" as="targetPoint" />
          </mxGeometry>
        </mxCell>
        <mxCell id="yKzPhJiVxuT3X4ERfiG_-28" value="6: Trả về kết quả" style="html=1;verticalAlign=bottom;endArrow=open;dashed=1;endSize=8;edgeStyle=elbowEdgeStyle;elbow=vertical;curved=0;rounded=0;" edge="1" parent="1" target="yKzPhJiVxuT3X4ERfiG_-2" source="yKzPhJiVxuT3X4ERfiG_-25">
          <mxGeometry relative="1" as="geometry">
            <mxPoint x="880" y="270" as="sourcePoint" />
            <mxPoint x="800" y="270" as="targetPoint" />
            <Array as="points">
              <mxPoint x="1000" y="270" />
            </Array>
          </mxGeometry>
        </mxCell>
        <mxCell id="yKzPhJiVxuT3X4ERfiG_-29" value="7: Gọi" style="html=1;verticalAlign=bottom;endArrow=block;edgeStyle=elbowEdgeStyle;elbow=vertical;curved=0;rounded=0;" edge="1" parent="1" target="yKzPhJiVxuT3X4ERfiG_-23">
          <mxGeometry width="80" relative="1" as="geometry">
            <mxPoint x="360" y="310" as="sourcePoint" />
            <mxPoint x="440" y="310" as="targetPoint" />
          </mxGeometry>
        </mxCell>
        <mxCell id="yKzPhJiVxuT3X4ERfiG_-30" value="8: checkLogin()" style="html=1;align=left;spacingLeft=2;endArrow=block;rounded=0;edgeStyle=orthogonalEdgeStyle;curved=0;rounded=0;" edge="1" parent="1">
          <mxGeometry x="-0.0588" relative="1" as="geometry">
            <mxPoint x="820" y="315" as="sourcePoint" />
            <Array as="points">
              <mxPoint x="850" y="315" />
              <mxPoint x="850" y="345" />
            </Array>
            <mxPoint x="825" y="345" as="targetPoint" />
            <mxPoint as="offset" />
          </mxGeometry>
        </mxCell>
        <mxCell id="yKzPhJiVxuT3X4ERfiG_-31" value="9: Trả kết quả" style="html=1;verticalAlign=bottom;endArrow=open;dashed=1;endSize=8;edgeStyle=elbowEdgeStyle;elbow=vertical;curved=0;rounded=0;" edge="1" parent="1" target="yKzPhJiVxuT3X4ERfiG_-2" source="yKzPhJiVxuT3X4ERfiG_-23">
          <mxGeometry relative="1" as="geometry">
            <mxPoint x="730" y="340" as="sourcePoint" />
            <mxPoint x="650" y="340" as="targetPoint" />
            <Array as="points">
              <mxPoint x="530" y="350" />
            </Array>
          </mxGeometry>
        </mxCell>
        <mxCell id="yKzPhJiVxuT3X4ERfiG_-32" value="10: Gọi" style="html=1;verticalAlign=bottom;endArrow=block;edgeStyle=elbowEdgeStyle;elbow=vertical;curved=0;rounded=0;" edge="1" parent="1" target="yKzPhJiVxuT3X4ERfiG_-18">
          <mxGeometry width="80" relative="1" as="geometry">
            <mxPoint x="360" y="370" as="sourcePoint" />
            <mxPoint x="440" y="370" as="targetPoint" />
          </mxGeometry>
        </mxCell>
        <mxCell id="yKzPhJiVxuT3X4ERfiG_-33" value="11; HIển thị" style="html=1;verticalAlign=bottom;endArrow=open;dashed=1;endSize=8;edgeStyle=elbowEdgeStyle;elbow=vertical;curved=0;rounded=0;" edge="1" parent="1" target="yKzPhJiVxuT3X4ERfiG_-12">
          <mxGeometry relative="1" as="geometry">
            <mxPoint x="430" y="400" as="sourcePoint" />
            <mxPoint x="350" y="400" as="targetPoint" />
          </mxGeometry>
        </mxCell>
        <mxCell id="yKzPhJiVxuT3X4ERfiG_-34" value="12; chọn quản lí suất chiếu" style="html=1;verticalAlign=bottom;endArrow=block;edgeStyle=elbowEdgeStyle;elbow=vertical;curved=0;rounded=0;" edge="1" parent="1" target="yKzPhJiVxuT3X4ERfiG_-18">
          <mxGeometry width="80" relative="1" as="geometry">
            <mxPoint x="160" y="430" as="sourcePoint" />
            <mxPoint x="240" y="430" as="targetPoint" />
          </mxGeometry>
        </mxCell>
        <mxCell id="yKzPhJiVxuT3X4ERfiG_-35" value="13: Gọi" style="html=1;verticalAlign=bottom;endArrow=block;edgeStyle=elbowEdgeStyle;elbow=vertical;curved=0;rounded=0;" edge="1" parent="1" target="yKzPhJiVxuT3X4ERfiG_-53">
          <mxGeometry width="80" relative="1" as="geometry">
            <mxPoint x="440" y="450" as="sourcePoint" />
            <mxPoint x="520" y="450" as="targetPoint" />
          </mxGeometry>
        </mxCell>
        <mxCell id="yKzPhJiVxuT3X4ERfiG_-36" value="14: Gọi" style="html=1;verticalAlign=bottom;endArrow=block;edgeStyle=elbowEdgeStyle;elbow=vertical;curved=0;rounded=0;exitX=1;exitY=0.273;exitDx=0;exitDy=0;exitPerimeter=0;" edge="1" parent="1" target="yKzPhJiVxuT3X4ERfiG_-54" source="yKzPhJiVxuT3X4ERfiG_-5">
          <mxGeometry width="80" relative="1" as="geometry">
            <mxPoint x="530" y="460" as="sourcePoint" />
            <mxPoint x="610" y="460" as="targetPoint" />
            <Array as="points">
              <mxPoint x="850" y="460" />
            </Array>
          </mxGeometry>
        </mxCell>
        <mxCell id="yKzPhJiVxuT3X4ERfiG_-37" value="15: getMovieList()" style="html=1;align=left;spacingLeft=2;endArrow=block;rounded=0;edgeStyle=orthogonalEdgeStyle;curved=0;rounded=0;" edge="1" parent="1">
          <mxGeometry x="-0.0588" relative="1" as="geometry">
            <mxPoint x="880" y="470" as="sourcePoint" />
            <Array as="points">
              <mxPoint x="910" y="470" />
              <mxPoint x="910" y="500" />
            </Array>
            <mxPoint x="885" y="500" as="targetPoint" />
            <mxPoint as="offset" />
          </mxGeometry>
        </mxCell>
        <mxCell id="yKzPhJiVxuT3X4ERfiG_-39" value="17: Hiển thị" style="html=1;verticalAlign=bottom;endArrow=open;dashed=1;endSize=8;edgeStyle=elbowEdgeStyle;elbow=vertical;curved=0;rounded=0;" edge="1" parent="1" target="yKzPhJiVxuT3X4ERfiG_-12" source="yKzPhJiVxuT3X4ERfiG_-5">
          <mxGeometry relative="1" as="geometry">
            <mxPoint x="520" y="510" as="sourcePoint" />
            <mxPoint x="440" y="510" as="targetPoint" />
            <Array as="points">
              <mxPoint x="480" y="520" />
            </Array>
          </mxGeometry>
        </mxCell>
        <mxCell id="yKzPhJiVxuT3X4ERfiG_-40" value="18: Chọn 1 phim" style="html=1;verticalAlign=bottom;endArrow=block;edgeStyle=elbowEdgeStyle;elbow=vertical;curved=0;rounded=0;" edge="1" parent="1" target="yKzPhJiVxuT3X4ERfiG_-5">
          <mxGeometry width="80" relative="1" as="geometry">
            <mxPoint x="160" y="540" as="sourcePoint" />
            <mxPoint x="240" y="540" as="targetPoint" />
          </mxGeometry>
        </mxCell>
        <mxCell id="yKzPhJiVxuT3X4ERfiG_-47" value="31: setter()" style="html=1;align=left;spacingLeft=2;endArrow=block;rounded=0;edgeStyle=orthogonalEdgeStyle;curved=0;rounded=0;" edge="1" parent="1">
          <mxGeometry x="-0.0588" relative="1" as="geometry">
            <mxPoint x="960" y="800" as="sourcePoint" />
            <Array as="points">
              <mxPoint x="990" y="800" />
              <mxPoint x="990" y="830" />
            </Array>
            <mxPoint x="965" y="830" as="targetPoint" />
            <mxPoint as="offset" />
          </mxGeometry>
        </mxCell>
        <mxCell id="yKzPhJiVxuT3X4ERfiG_-53" value="MovieList" style="shape=umlLifeline;perimeter=lifelinePerimeter;whiteSpace=wrap;html=1;container=1;dropTarget=0;collapsible=0;recursiveResize=0;outlineConnect=0;portConstraint=eastwest;newEdgeStyle={&quot;edgeStyle&quot;:&quot;elbowEdgeStyle&quot;,&quot;elbow&quot;:&quot;vertical&quot;,&quot;curved&quot;:0,&quot;rounded&quot;:0};participant=umlBoundary;labelPosition=center;verticalLabelPosition=top;align=center;verticalAlign=bottom;" vertex="1" parent="1">
          <mxGeometry x="640" y="80" width="50" height="930" as="geometry" />
        </mxCell>
        <mxCell id="yKzPhJiVxuT3X4ERfiG_-5" value="" style="html=1;points=[];perimeter=orthogonalPerimeter;outlineConnect=0;targetShapes=umlLifeline;portConstraint=eastwest;newEdgeStyle={&quot;edgeStyle&quot;:&quot;elbowEdgeStyle&quot;,&quot;elbow&quot;:&quot;vertical&quot;,&quot;curved&quot;:0,&quot;rounded&quot;:0};" vertex="1" parent="yKzPhJiVxuT3X4ERfiG_-53">
          <mxGeometry x="20" y="350" width="10" height="160" as="geometry" />
        </mxCell>
        <mxCell id="yKzPhJiVxuT3X4ERfiG_-54" value="MovieDAL" style="shape=umlLifeline;perimeter=lifelinePerimeter;whiteSpace=wrap;html=1;container=1;dropTarget=0;collapsible=0;recursiveResize=0;outlineConnect=0;portConstraint=eastwest;newEdgeStyle={&quot;edgeStyle&quot;:&quot;elbowEdgeStyle&quot;,&quot;elbow&quot;:&quot;vertical&quot;,&quot;curved&quot;:0,&quot;rounded&quot;:0};participant=umlControl;labelPosition=center;verticalLabelPosition=top;align=center;verticalAlign=bottom;" vertex="1" parent="1">
          <mxGeometry x="860" y="85" width="40" height="915" as="geometry" />
        </mxCell>
        <mxCell id="yKzPhJiVxuT3X4ERfiG_-7" value="" style="html=1;points=[];perimeter=orthogonalPerimeter;outlineConnect=0;targetShapes=umlLifeline;portConstraint=eastwest;newEdgeStyle={&quot;edgeStyle&quot;:&quot;elbowEdgeStyle&quot;,&quot;elbow&quot;:&quot;vertical&quot;,&quot;curved&quot;:0,&quot;rounded&quot;:0};" vertex="1" parent="yKzPhJiVxuT3X4ERfiG_-54">
          <mxGeometry x="15" y="360" width="10" height="80" as="geometry" />
        </mxCell>
        <mxCell id="yKzPhJiVxuT3X4ERfiG_-56" value="16: Trả ra kết quả" style="html=1;verticalAlign=bottom;endArrow=open;dashed=1;endSize=8;edgeStyle=elbowEdgeStyle;elbow=vertical;curved=0;rounded=0;" edge="1" parent="1" target="yKzPhJiVxuT3X4ERfiG_-5">
          <mxGeometry relative="1" as="geometry">
            <mxPoint x="870" y="510" as="sourcePoint" />
            <mxPoint x="790" y="510" as="targetPoint" />
          </mxGeometry>
        </mxCell>
        <mxCell id="yKzPhJiVxuT3X4ERfiG_-57" value="19: Gọi" style="html=1;verticalAlign=bottom;endArrow=none;edgeStyle=elbowEdgeStyle;elbow=vertical;curved=0;rounded=0;startArrow=classic;startFill=1;endFill=0;" edge="1" parent="1" source="yKzPhJiVxuT3X4ERfiG_-4">
          <mxGeometry width="80" relative="1" as="geometry">
            <mxPoint x="580" y="580" as="sourcePoint" />
            <mxPoint x="660" y="580" as="targetPoint" />
          </mxGeometry>
        </mxCell>
        <mxCell id="yKzPhJiVxuT3X4ERfiG_-58" value="20: Gọi" style="html=1;verticalAlign=bottom;endArrow=block;edgeStyle=elbowEdgeStyle;elbow=vertical;curved=0;rounded=0;" edge="1" parent="1" target="yKzPhJiVxuT3X4ERfiG_-6">
          <mxGeometry width="80" relative="1" as="geometry">
            <mxPoint x="530" y="620" as="sourcePoint" />
            <mxPoint x="610" y="620" as="targetPoint" />
            <Array as="points">
              <mxPoint x="690" y="610" />
            </Array>
          </mxGeometry>
        </mxCell>
        <mxCell id="yKzPhJiVxuT3X4ERfiG_-60" value="21: getShowTImeList()" style="html=1;align=left;spacingLeft=2;endArrow=block;rounded=0;edgeStyle=orthogonalEdgeStyle;curved=0;rounded=0;" edge="1" parent="1">
          <mxGeometry x="-0.0588" relative="1" as="geometry">
            <mxPoint x="750" y="610" as="sourcePoint" />
            <Array as="points">
              <mxPoint x="780" y="610" />
              <mxPoint x="780" y="640" />
            </Array>
            <mxPoint x="755" y="640" as="targetPoint" />
            <mxPoint as="offset" />
          </mxGeometry>
        </mxCell>
        <mxCell id="yKzPhJiVxuT3X4ERfiG_-61" value="22: Trả kết quả" style="html=1;verticalAlign=bottom;endArrow=open;dashed=1;endSize=8;edgeStyle=elbowEdgeStyle;elbow=vertical;curved=0;rounded=0;" edge="1" parent="1" target="yKzPhJiVxuT3X4ERfiG_-4">
          <mxGeometry relative="1" as="geometry">
            <mxPoint x="730" y="640" as="sourcePoint" />
            <mxPoint x="650" y="640" as="targetPoint" />
          </mxGeometry>
        </mxCell>
        <mxCell id="yKzPhJiVxuT3X4ERfiG_-62" value="22: Hiển thị" style="html=1;verticalAlign=bottom;endArrow=open;dashed=1;endSize=8;edgeStyle=elbowEdgeStyle;elbow=vertical;curved=0;rounded=0;" edge="1" parent="1" target="yKzPhJiVxuT3X4ERfiG_-12">
          <mxGeometry relative="1" as="geometry">
            <mxPoint x="510" y="660" as="sourcePoint" />
            <mxPoint x="430" y="660" as="targetPoint" />
          </mxGeometry>
        </mxCell>
        <mxCell id="yKzPhJiVxuT3X4ERfiG_-63" value="23: Chọn một suất chiếu" style="html=1;verticalAlign=bottom;endArrow=block;edgeStyle=elbowEdgeStyle;elbow=vertical;curved=0;rounded=0;" edge="1" parent="1" target="yKzPhJiVxuT3X4ERfiG_-4">
          <mxGeometry width="80" relative="1" as="geometry">
            <mxPoint x="150" y="700" as="sourcePoint" />
            <mxPoint x="230" y="700" as="targetPoint" />
          </mxGeometry>
        </mxCell>
        <mxCell id="lLpCzPh1Ivz2-w_pSPUw-2" value="24: Gọi" style="html=1;verticalAlign=bottom;endArrow=block;edgeStyle=elbowEdgeStyle;elbow=vertical;curved=0;rounded=0;" edge="1" parent="1">
          <mxGeometry width="80" relative="1" as="geometry">
            <mxPoint x="530" y="720" as="sourcePoint" />
            <mxPoint x="590" y="720" as="targetPoint" />
          </mxGeometry>
        </mxCell>
        <mxCell id="lLpCzPh1Ivz2-w_pSPUw-3" value="25: Gọi" style="html=1;verticalAlign=bottom;endArrow=block;edgeStyle=elbowEdgeStyle;elbow=vertical;curved=0;rounded=0;" edge="1" parent="1" target="yKzPhJiVxuT3X4ERfiG_-6">
          <mxGeometry width="80" relative="1" as="geometry">
            <mxPoint x="600" y="730" as="sourcePoint" />
            <mxPoint x="680" y="730" as="targetPoint" />
          </mxGeometry>
        </mxCell>
        <mxCell id="lLpCzPh1Ivz2-w_pSPUw-4" value="26: getShowTImebyID()" style="html=1;align=left;spacingLeft=2;endArrow=block;rounded=0;edgeStyle=orthogonalEdgeStyle;curved=0;rounded=0;" edge="1" parent="1">
          <mxGeometry x="-0.0588" relative="1" as="geometry">
            <mxPoint x="750" y="740" as="sourcePoint" />
            <Array as="points">
              <mxPoint x="780" y="740" />
              <mxPoint x="780" y="770" />
            </Array>
            <mxPoint x="755" y="770" as="targetPoint" />
            <mxPoint as="offset" />
          </mxGeometry>
        </mxCell>
        <mxCell id="lLpCzPh1Ivz2-w_pSPUw-5" value="27: Trả vế kết quả" style="html=1;verticalAlign=bottom;endArrow=open;dashed=1;endSize=8;edgeStyle=elbowEdgeStyle;elbow=vertical;curved=0;rounded=0;" edge="1" parent="1" target="yKzPhJiVxuT3X4ERfiG_-21">
          <mxGeometry relative="1" as="geometry">
            <mxPoint x="730" y="770" as="sourcePoint" />
            <mxPoint x="650" y="770" as="targetPoint" />
          </mxGeometry>
        </mxCell>
        <mxCell id="lLpCzPh1Ivz2-w_pSPUw-6" value="28: Hiển thị" style="html=1;verticalAlign=bottom;endArrow=open;dashed=1;endSize=8;edgeStyle=elbowEdgeStyle;elbow=vertical;curved=0;rounded=0;" edge="1" parent="1" target="yKzPhJiVxuT3X4ERfiG_-12">
          <mxGeometry relative="1" as="geometry">
            <mxPoint x="590" y="780" as="sourcePoint" />
            <mxPoint x="510" y="780" as="targetPoint" />
          </mxGeometry>
        </mxCell>
        <mxCell id="P3bFWYgfT6UZ_LqKt14x-1" value="29: Sửa thông tin phòng" style="html=1;verticalAlign=bottom;endArrow=block;edgeStyle=elbowEdgeStyle;elbow=vertical;curved=0;rounded=0;" edge="1" parent="1" target="yKzPhJiVxuT3X4ERfiG_-21">
          <mxGeometry width="80" relative="1" as="geometry">
            <mxPoint x="160" y="800" as="sourcePoint" />
            <mxPoint x="240" y="800" as="targetPoint" />
          </mxGeometry>
        </mxCell>
        <mxCell id="-97jyua8PEeBCuZ1dbFv-1" value="30: Gọi" style="html=1;verticalAlign=bottom;endArrow=block;edgeStyle=elbowEdgeStyle;elbow=vertical;curved=0;rounded=0;" edge="1" parent="1" target="yKzPhJiVxuT3X4ERfiG_-10">
          <mxGeometry width="80" relative="1" as="geometry">
            <mxPoint x="600" y="800" as="sourcePoint" />
            <mxPoint x="680" y="800" as="targetPoint" />
          </mxGeometry>
        </mxCell>
        <mxCell id="lsxIUrfgfMwXCd-9Cd6y-1" value="32: Trả kết quả" style="html=1;verticalAlign=bottom;endArrow=open;dashed=1;endSize=8;edgeStyle=elbowEdgeStyle;elbow=vertical;curved=0;rounded=0;" edge="1" parent="1" target="yKzPhJiVxuT3X4ERfiG_-21">
          <mxGeometry relative="1" as="geometry">
            <mxPoint x="940" y="830" as="sourcePoint" />
            <mxPoint x="860" y="830" as="targetPoint" />
          </mxGeometry>
        </mxCell>
        <mxCell id="lsxIUrfgfMwXCd-9Cd6y-3" value="33: Gọi" style="html=1;verticalAlign=bottom;endArrow=block;edgeStyle=elbowEdgeStyle;elbow=vertical;curved=0;rounded=0;" edge="1" parent="1" target="yKzPhJiVxuT3X4ERfiG_-6">
          <mxGeometry width="80" relative="1" as="geometry">
            <mxPoint x="600" y="860" as="sourcePoint" />
            <mxPoint x="680" y="860" as="targetPoint" />
          </mxGeometry>
        </mxCell>
        <mxCell id="lsxIUrfgfMwXCd-9Cd6y-4" value="33: updateShowtime()" style="html=1;align=left;spacingLeft=2;endArrow=block;rounded=0;edgeStyle=orthogonalEdgeStyle;curved=0;rounded=0;" edge="1" parent="1">
          <mxGeometry x="-0.0588" relative="1" as="geometry">
            <mxPoint x="750" y="860" as="sourcePoint" />
            <Array as="points">
              <mxPoint x="780" y="860" />
              <mxPoint x="780" y="890" />
            </Array>
            <mxPoint x="755" y="890" as="targetPoint" />
            <mxPoint as="offset" />
          </mxGeometry>
        </mxCell>
        <mxCell id="WVuYx6xklYFZiUfvNss7-1" value="34: Kết quả" style="html=1;verticalAlign=bottom;endArrow=open;dashed=1;endSize=8;edgeStyle=elbowEdgeStyle;elbow=vertical;curved=0;rounded=0;" edge="1" parent="1" target="yKzPhJiVxuT3X4ERfiG_-21">
          <mxGeometry relative="1" as="geometry">
            <mxPoint x="730" y="900" as="sourcePoint" />
            <mxPoint x="650" y="900" as="targetPoint" />
          </mxGeometry>
        </mxCell>
        <mxCell id="WVuYx6xklYFZiUfvNss7-2" value="35: Thông báo thành công" style="html=1;verticalAlign=bottom;endArrow=open;dashed=1;endSize=8;edgeStyle=elbowEdgeStyle;elbow=vertical;curved=0;rounded=0;" edge="1" parent="1" target="yKzPhJiVxuT3X4ERfiG_-12">
          <mxGeometry relative="1" as="geometry">
            <mxPoint x="590" y="910" as="sourcePoint" />
            <mxPoint x="510" y="910" as="targetPoint" />
          </mxGeometry>
        </mxCell>
      </root>
    </mxGraphModel>
  </diagram>
  <diagram id="Xz67-0KijehCCjhNrt0T" name="Trang-6">
    <mxGraphModel dx="1434" dy="774" grid="1" gridSize="10" guides="1" tooltips="1" connect="1" arrows="1" fold="1" page="1" pageScale="1" pageWidth="827" pageHeight="1169" math="0" shadow="0">
      <root>
        <mxCell id="0" />
        <mxCell id="1" parent="0" />
        <mxCell id="JCrTwe-QqIcApUy9v8-Y-1" value="1: truy cập hệ thống" style="html=1;verticalAlign=bottom;endArrow=classic;edgeStyle=elbowEdgeStyle;elbow=vertical;curved=0;rounded=0;startArrow=none;startFill=0;endFill=1;" edge="1" parent="1">
          <mxGeometry width="80" relative="1" as="geometry">
            <mxPoint x="170" y="170.18" as="sourcePoint" />
            <mxPoint x="350" y="170.18" as="targetPoint" />
          </mxGeometry>
        </mxCell>
        <mxCell id="JCrTwe-QqIcApUy9v8-Y-2" value="LoginVIew" style="shape=umlLifeline;perimeter=lifelinePerimeter;whiteSpace=wrap;html=1;container=1;dropTarget=0;collapsible=0;recursiveResize=0;outlineConnect=0;portConstraint=eastwest;newEdgeStyle={&quot;edgeStyle&quot;:&quot;elbowEdgeStyle&quot;,&quot;elbow&quot;:&quot;vertical&quot;,&quot;curved&quot;:0,&quot;rounded&quot;:0};participant=umlBoundary;verticalAlign=bottom;labelPosition=center;verticalLabelPosition=top;align=center;" vertex="1" parent="1">
          <mxGeometry x="330" y="80" width="50" height="1010" as="geometry" />
        </mxCell>
        <mxCell id="JCrTwe-QqIcApUy9v8-Y-3" value="" style="html=1;points=[];perimeter=orthogonalPerimeter;outlineConnect=0;targetShapes=umlLifeline;portConstraint=eastwest;newEdgeStyle={&quot;edgeStyle&quot;:&quot;elbowEdgeStyle&quot;,&quot;elbow&quot;:&quot;vertical&quot;,&quot;curved&quot;:0,&quot;rounded&quot;:0};" vertex="1" parent="JCrTwe-QqIcApUy9v8-Y-2">
          <mxGeometry x="20" y="90" width="10" height="220" as="geometry" />
        </mxCell>
        <mxCell id="JCrTwe-QqIcApUy9v8-Y-4" value="AccountList" style="shape=umlLifeline;perimeter=lifelinePerimeter;whiteSpace=wrap;html=1;container=1;dropTarget=0;collapsible=0;recursiveResize=0;outlineConnect=0;portConstraint=eastwest;newEdgeStyle={&quot;edgeStyle&quot;:&quot;elbowEdgeStyle&quot;,&quot;elbow&quot;:&quot;vertical&quot;,&quot;curved&quot;:0,&quot;rounded&quot;:0};participant=umlBoundary;labelPosition=center;verticalLabelPosition=top;align=center;verticalAlign=bottom;" vertex="1" parent="1">
          <mxGeometry x="500" y="80" width="50" height="1010" as="geometry" />
        </mxCell>
        <mxCell id="JCrTwe-QqIcApUy9v8-Y-5" value="" style="html=1;points=[];perimeter=orthogonalPerimeter;outlineConnect=0;targetShapes=umlLifeline;portConstraint=eastwest;newEdgeStyle={&quot;edgeStyle&quot;:&quot;elbowEdgeStyle&quot;,&quot;elbow&quot;:&quot;vertical&quot;,&quot;curved&quot;:0,&quot;rounded&quot;:0};" vertex="1" parent="JCrTwe-QqIcApUy9v8-Y-4">
          <mxGeometry x="20" y="360" width="10" height="110" as="geometry" />
        </mxCell>
        <mxCell id="7TOfiV5aCh_nW4SAE520-1" value="" style="html=1;points=[];perimeter=orthogonalPerimeter;outlineConnect=0;targetShapes=umlLifeline;portConstraint=eastwest;newEdgeStyle={&quot;edgeStyle&quot;:&quot;elbowEdgeStyle&quot;,&quot;elbow&quot;:&quot;vertical&quot;,&quot;curved&quot;:0,&quot;rounded&quot;:0};" vertex="1" parent="JCrTwe-QqIcApUy9v8-Y-4">
          <mxGeometry x="20" y="750" width="10" height="80" as="geometry" />
        </mxCell>
        <mxCell id="JCrTwe-QqIcApUy9v8-Y-12" value="Admin" style="shape=umlLifeline;perimeter=lifelinePerimeter;whiteSpace=wrap;html=1;container=1;dropTarget=0;collapsible=0;recursiveResize=0;outlineConnect=0;portConstraint=eastwest;newEdgeStyle={&quot;edgeStyle&quot;:&quot;elbowEdgeStyle&quot;,&quot;elbow&quot;:&quot;vertical&quot;,&quot;curved&quot;:0,&quot;rounded&quot;:0};participant=umlActor;labelPosition=center;verticalLabelPosition=top;align=center;verticalAlign=bottom;" vertex="1" parent="1">
          <mxGeometry x="140" y="80" width="20" height="1010" as="geometry" />
        </mxCell>
        <mxCell id="JCrTwe-QqIcApUy9v8-Y-13" value="" style="html=1;points=[];perimeter=orthogonalPerimeter;outlineConnect=0;targetShapes=umlLifeline;portConstraint=eastwest;newEdgeStyle={&quot;edgeStyle&quot;:&quot;elbowEdgeStyle&quot;,&quot;elbow&quot;:&quot;vertical&quot;,&quot;curved&quot;:0,&quot;rounded&quot;:0};" vertex="1" parent="JCrTwe-QqIcApUy9v8-Y-12">
          <mxGeometry x="5" y="60" width="10" height="920" as="geometry" />
        </mxCell>
        <mxCell id="JCrTwe-QqIcApUy9v8-Y-14" value="2:Hiển thị" style="html=1;verticalAlign=bottom;endArrow=none;edgeStyle=elbowEdgeStyle;elbow=vertical;curved=0;rounded=0;startArrow=classic;startFill=1;endFill=0;dashed=1;" edge="1" parent="1">
          <mxGeometry width="80" relative="1" as="geometry">
            <mxPoint x="170" y="200" as="sourcePoint" />
            <mxPoint x="320" y="200" as="targetPoint" />
          </mxGeometry>
        </mxCell>
        <mxCell id="JCrTwe-QqIcApUy9v8-Y-15" value="3: Nhập thông tin" style="html=1;verticalAlign=bottom;endArrow=classic;edgeStyle=elbowEdgeStyle;elbow=vertical;curved=0;rounded=0;startArrow=none;startFill=0;endFill=1;" edge="1" parent="1">
          <mxGeometry x="-0.0244" width="80" relative="1" as="geometry">
            <mxPoint x="170" y="233" as="sourcePoint" />
            <mxPoint x="350" y="233" as="targetPoint" />
            <Array as="points">
              <mxPoint x="300" y="233" />
              <mxPoint x="320" y="233" />
            </Array>
            <mxPoint as="offset" />
          </mxGeometry>
        </mxCell>
        <mxCell id="JCrTwe-QqIcApUy9v8-Y-16" value="5: setter()" style="html=1;align=left;spacingLeft=2;endArrow=block;rounded=0;edgeStyle=orthogonalEdgeStyle;curved=0;rounded=0;" edge="1" parent="1">
          <mxGeometry x="-0.0588" relative="1" as="geometry">
            <mxPoint x="930" y="230" as="sourcePoint" />
            <Array as="points">
              <mxPoint x="960" y="230" />
              <mxPoint x="960" y="260" />
            </Array>
            <mxPoint x="935" y="260" as="targetPoint" />
            <mxPoint as="offset" />
          </mxGeometry>
        </mxCell>
        <mxCell id="JCrTwe-QqIcApUy9v8-Y-17" value="23: Hiển thị" style="html=1;verticalAlign=bottom;endArrow=open;dashed=1;endSize=8;edgeStyle=elbowEdgeStyle;elbow=vertical;curved=0;rounded=0;" edge="1" parent="1" source="JCrTwe-QqIcApUy9v8-Y-22" target="JCrTwe-QqIcApUy9v8-Y-12">
          <mxGeometry relative="1" as="geometry">
            <mxPoint x="350" y="610" as="sourcePoint" />
            <mxPoint x="270" y="610" as="targetPoint" />
            <Array as="points">
              <mxPoint x="470" y="620" />
            </Array>
          </mxGeometry>
        </mxCell>
        <mxCell id="JCrTwe-QqIcApUy9v8-Y-18" value="AdminHome" style="shape=umlLifeline;perimeter=lifelinePerimeter;whiteSpace=wrap;html=1;container=1;dropTarget=0;collapsible=0;recursiveResize=0;outlineConnect=0;portConstraint=eastwest;newEdgeStyle={&quot;edgeStyle&quot;:&quot;elbowEdgeStyle&quot;,&quot;elbow&quot;:&quot;vertical&quot;,&quot;curved&quot;:0,&quot;rounded&quot;:0};participant=umlBoundary;labelPosition=center;verticalLabelPosition=top;align=center;verticalAlign=bottom;" vertex="1" parent="1">
          <mxGeometry x="414" y="80" width="50" height="1010" as="geometry" />
        </mxCell>
        <mxCell id="JCrTwe-QqIcApUy9v8-Y-19" value="" style="html=1;points=[];perimeter=orthogonalPerimeter;outlineConnect=0;targetShapes=umlLifeline;portConstraint=eastwest;newEdgeStyle={&quot;edgeStyle&quot;:&quot;elbowEdgeStyle&quot;,&quot;elbow&quot;:&quot;vertical&quot;,&quot;curved&quot;:0,&quot;rounded&quot;:0};" vertex="1" parent="JCrTwe-QqIcApUy9v8-Y-18">
          <mxGeometry x="20" y="280" width="10" height="50" as="geometry" />
        </mxCell>
        <mxCell id="JCrTwe-QqIcApUy9v8-Y-20" value="" style="html=1;points=[];perimeter=orthogonalPerimeter;outlineConnect=0;targetShapes=umlLifeline;portConstraint=eastwest;newEdgeStyle={&quot;edgeStyle&quot;:&quot;elbowEdgeStyle&quot;,&quot;elbow&quot;:&quot;vertical&quot;,&quot;curved&quot;:0,&quot;rounded&quot;:0};" vertex="1" parent="JCrTwe-QqIcApUy9v8-Y-18">
          <mxGeometry x="20" y="345" width="10" height="65" as="geometry" />
        </mxCell>
        <mxCell id="JCrTwe-QqIcApUy9v8-Y-21" value="AccountDetail" style="shape=umlLifeline;perimeter=lifelinePerimeter;whiteSpace=wrap;html=1;container=1;dropTarget=0;collapsible=0;recursiveResize=0;outlineConnect=0;portConstraint=eastwest;newEdgeStyle={&quot;edgeStyle&quot;:&quot;elbowEdgeStyle&quot;,&quot;elbow&quot;:&quot;vertical&quot;,&quot;curved&quot;:0,&quot;rounded&quot;:0};participant=umlBoundary;labelPosition=center;verticalLabelPosition=top;align=center;verticalAlign=bottom;" vertex="1" parent="1">
          <mxGeometry x="570" y="80" width="50" height="1010" as="geometry" />
        </mxCell>
        <mxCell id="JCrTwe-QqIcApUy9v8-Y-22" value="" style="html=1;points=[];perimeter=orthogonalPerimeter;outlineConnect=0;targetShapes=umlLifeline;portConstraint=eastwest;newEdgeStyle={&quot;edgeStyle&quot;:&quot;elbowEdgeStyle&quot;,&quot;elbow&quot;:&quot;vertical&quot;,&quot;curved&quot;:0,&quot;rounded&quot;:0};" vertex="1" parent="JCrTwe-QqIcApUy9v8-Y-21">
          <mxGeometry x="20" y="460" width="10" height="290" as="geometry" />
        </mxCell>
        <mxCell id="JCrTwe-QqIcApUy9v8-Y-23" value="AccountDAL" style="shape=umlLifeline;perimeter=lifelinePerimeter;whiteSpace=wrap;html=1;container=1;dropTarget=0;collapsible=0;recursiveResize=0;outlineConnect=0;portConstraint=eastwest;newEdgeStyle={&quot;edgeStyle&quot;:&quot;elbowEdgeStyle&quot;,&quot;elbow&quot;:&quot;vertical&quot;,&quot;curved&quot;:0,&quot;rounded&quot;:0};participant=umlControl;labelPosition=center;verticalLabelPosition=top;align=center;verticalAlign=bottom;" vertex="1" parent="1">
          <mxGeometry x="720" y="80" width="40" height="1010" as="geometry" />
        </mxCell>
        <mxCell id="JCrTwe-QqIcApUy9v8-Y-24" value="" style="points=[];perimeter=orthogonalPerimeter;outlineConnect=0;targetShapes=umlLifeline;portConstraint=eastwest;newEdgeStyle={&quot;edgeStyle&quot;:&quot;elbowEdgeStyle&quot;,&quot;elbow&quot;:&quot;vertical&quot;,&quot;curved&quot;:0,&quot;rounded&quot;:0};" vertex="1" parent="JCrTwe-QqIcApUy9v8-Y-23">
          <mxGeometry x="15" y="210" width="10" height="80" as="geometry" />
        </mxCell>
        <mxCell id="JCrTwe-QqIcApUy9v8-Y-7" value="" style="html=1;points=[];perimeter=orthogonalPerimeter;outlineConnect=0;targetShapes=umlLifeline;portConstraint=eastwest;newEdgeStyle={&quot;edgeStyle&quot;:&quot;elbowEdgeStyle&quot;,&quot;elbow&quot;:&quot;vertical&quot;,&quot;curved&quot;:0,&quot;rounded&quot;:0};" vertex="1" parent="JCrTwe-QqIcApUy9v8-Y-23">
          <mxGeometry x="15" y="360" width="10" height="80" as="geometry" />
        </mxCell>
        <mxCell id="JCrTwe-QqIcApUy9v8-Y-8" value="" style="html=1;points=[];perimeter=orthogonalPerimeter;outlineConnect=0;targetShapes=umlLifeline;portConstraint=eastwest;newEdgeStyle={&quot;edgeStyle&quot;:&quot;elbowEdgeStyle&quot;,&quot;elbow&quot;:&quot;vertical&quot;,&quot;curved&quot;:0,&quot;rounded&quot;:0};" vertex="1" parent="JCrTwe-QqIcApUy9v8-Y-23">
          <mxGeometry x="15" y="465" width="10" height="80" as="geometry" />
        </mxCell>
        <mxCell id="JCrTwe-QqIcApUy9v8-Y-9" value="" style="html=1;points=[];perimeter=orthogonalPerimeter;outlineConnect=0;targetShapes=umlLifeline;portConstraint=eastwest;newEdgeStyle={&quot;edgeStyle&quot;:&quot;elbowEdgeStyle&quot;,&quot;elbow&quot;:&quot;vertical&quot;,&quot;curved&quot;:0,&quot;rounded&quot;:0};" vertex="1" parent="JCrTwe-QqIcApUy9v8-Y-23">
          <mxGeometry x="15" y="640" width="10" height="80" as="geometry" />
        </mxCell>
        <mxCell id="JCrTwe-QqIcApUy9v8-Y-25" value="Account" style="shape=umlLifeline;perimeter=lifelinePerimeter;whiteSpace=wrap;html=1;container=1;dropTarget=0;collapsible=0;recursiveResize=0;outlineConnect=0;portConstraint=eastwest;newEdgeStyle={&quot;edgeStyle&quot;:&quot;elbowEdgeStyle&quot;,&quot;elbow&quot;:&quot;vertical&quot;,&quot;curved&quot;:0,&quot;rounded&quot;:0};participant=umlEntity;labelPosition=center;verticalLabelPosition=top;align=center;verticalAlign=bottom;" vertex="1" parent="1">
          <mxGeometry x="900" y="70" width="40" height="1010" as="geometry" />
        </mxCell>
        <mxCell id="JCrTwe-QqIcApUy9v8-Y-27" value="" style="html=1;points=[];perimeter=orthogonalPerimeter;outlineConnect=0;targetShapes=umlLifeline;portConstraint=eastwest;newEdgeStyle={&quot;edgeStyle&quot;:&quot;elbowEdgeStyle&quot;,&quot;elbow&quot;:&quot;vertical&quot;,&quot;curved&quot;:0,&quot;rounded&quot;:0};" vertex="1" parent="JCrTwe-QqIcApUy9v8-Y-25">
          <mxGeometry x="15" y="140" width="10" height="90" as="geometry" />
        </mxCell>
        <mxCell id="JCrTwe-QqIcApUy9v8-Y-53" value="" style="html=1;points=[];perimeter=orthogonalPerimeter;outlineConnect=0;targetShapes=umlLifeline;portConstraint=eastwest;newEdgeStyle={&quot;edgeStyle&quot;:&quot;elbowEdgeStyle&quot;,&quot;elbow&quot;:&quot;vertical&quot;,&quot;curved&quot;:0,&quot;rounded&quot;:0};" vertex="1" parent="JCrTwe-QqIcApUy9v8-Y-25">
          <mxGeometry x="15" y="580" width="10" height="80" as="geometry" />
        </mxCell>
        <mxCell id="JCrTwe-QqIcApUy9v8-Y-26" value="4: Gọi" style="html=1;verticalAlign=bottom;endArrow=block;edgeStyle=elbowEdgeStyle;elbow=vertical;curved=0;rounded=0;" edge="1" parent="1" target="JCrTwe-QqIcApUy9v8-Y-27">
          <mxGeometry width="80" relative="1" as="geometry">
            <mxPoint x="360" y="240" as="sourcePoint" />
            <mxPoint x="890" y="240" as="targetPoint" />
          </mxGeometry>
        </mxCell>
        <mxCell id="JCrTwe-QqIcApUy9v8-Y-28" value="6: Trả về kết quả" style="html=1;verticalAlign=bottom;endArrow=open;dashed=1;endSize=8;edgeStyle=elbowEdgeStyle;elbow=vertical;curved=0;rounded=0;" edge="1" parent="1" target="JCrTwe-QqIcApUy9v8-Y-2" source="JCrTwe-QqIcApUy9v8-Y-25">
          <mxGeometry relative="1" as="geometry">
            <mxPoint x="830" y="270" as="sourcePoint" />
            <mxPoint x="800" y="270" as="targetPoint" />
            <Array as="points">
              <mxPoint x="590" y="280" />
            </Array>
          </mxGeometry>
        </mxCell>
        <mxCell id="JCrTwe-QqIcApUy9v8-Y-29" value="7: Gọi" style="html=1;verticalAlign=bottom;endArrow=block;edgeStyle=elbowEdgeStyle;elbow=vertical;curved=0;rounded=0;" edge="1" parent="1" target="JCrTwe-QqIcApUy9v8-Y-23">
          <mxGeometry width="80" relative="1" as="geometry">
            <mxPoint x="360" y="310" as="sourcePoint" />
            <mxPoint x="440" y="310" as="targetPoint" />
          </mxGeometry>
        </mxCell>
        <mxCell id="JCrTwe-QqIcApUy9v8-Y-30" value="8: checkLogin()" style="html=1;align=left;spacingLeft=2;endArrow=block;rounded=0;edgeStyle=orthogonalEdgeStyle;curved=0;rounded=0;" edge="1" parent="1">
          <mxGeometry x="-0.0588" relative="1" as="geometry">
            <mxPoint x="750" y="310" as="sourcePoint" />
            <Array as="points">
              <mxPoint x="780" y="310" />
              <mxPoint x="780" y="340" />
            </Array>
            <mxPoint x="755" y="340" as="targetPoint" />
            <mxPoint as="offset" />
          </mxGeometry>
        </mxCell>
        <mxCell id="JCrTwe-QqIcApUy9v8-Y-31" value="9: Trả kết quả" style="html=1;verticalAlign=bottom;endArrow=open;dashed=1;endSize=8;edgeStyle=elbowEdgeStyle;elbow=vertical;curved=0;rounded=0;" edge="1" parent="1" target="JCrTwe-QqIcApUy9v8-Y-2">
          <mxGeometry relative="1" as="geometry">
            <mxPoint x="730" y="340" as="sourcePoint" />
            <mxPoint x="650" y="340" as="targetPoint" />
          </mxGeometry>
        </mxCell>
        <mxCell id="JCrTwe-QqIcApUy9v8-Y-32" value="10: Gọi" style="html=1;verticalAlign=bottom;endArrow=block;edgeStyle=elbowEdgeStyle;elbow=vertical;curved=0;rounded=0;" edge="1" parent="1" target="JCrTwe-QqIcApUy9v8-Y-18">
          <mxGeometry width="80" relative="1" as="geometry">
            <mxPoint x="360" y="370" as="sourcePoint" />
            <mxPoint x="440" y="370" as="targetPoint" />
          </mxGeometry>
        </mxCell>
        <mxCell id="JCrTwe-QqIcApUy9v8-Y-33" value="11; HIển thị" style="html=1;verticalAlign=bottom;endArrow=open;dashed=1;endSize=8;edgeStyle=elbowEdgeStyle;elbow=vertical;curved=0;rounded=0;" edge="1" parent="1" target="JCrTwe-QqIcApUy9v8-Y-12">
          <mxGeometry relative="1" as="geometry">
            <mxPoint x="430" y="400" as="sourcePoint" />
            <mxPoint x="350" y="400" as="targetPoint" />
          </mxGeometry>
        </mxCell>
        <mxCell id="JCrTwe-QqIcApUy9v8-Y-34" value="12: Chọn quản lí tài khoản" style="html=1;verticalAlign=bottom;endArrow=block;edgeStyle=elbowEdgeStyle;elbow=vertical;curved=0;rounded=0;" edge="1" parent="1" target="JCrTwe-QqIcApUy9v8-Y-18">
          <mxGeometry width="80" relative="1" as="geometry">
            <mxPoint x="160" y="430" as="sourcePoint" />
            <mxPoint x="240" y="430" as="targetPoint" />
          </mxGeometry>
        </mxCell>
        <mxCell id="JCrTwe-QqIcApUy9v8-Y-35" value="13: Gọi" style="html=1;verticalAlign=bottom;endArrow=block;edgeStyle=elbowEdgeStyle;elbow=vertical;curved=0;rounded=0;" edge="1" parent="1">
          <mxGeometry width="80" relative="1" as="geometry">
            <mxPoint x="440" y="450" as="sourcePoint" />
            <mxPoint x="520" y="450" as="targetPoint" />
          </mxGeometry>
        </mxCell>
        <mxCell id="JCrTwe-QqIcApUy9v8-Y-36" value="14: Gọi" style="html=1;verticalAlign=bottom;endArrow=block;edgeStyle=elbowEdgeStyle;elbow=vertical;curved=0;rounded=0;" edge="1" parent="1" target="JCrTwe-QqIcApUy9v8-Y-23">
          <mxGeometry width="80" relative="1" as="geometry">
            <mxPoint x="530" y="460" as="sourcePoint" />
            <mxPoint x="610" y="460" as="targetPoint" />
          </mxGeometry>
        </mxCell>
        <mxCell id="JCrTwe-QqIcApUy9v8-Y-37" value="15: getAccountList()" style="html=1;align=left;spacingLeft=2;endArrow=block;rounded=0;edgeStyle=orthogonalEdgeStyle;curved=0;rounded=0;" edge="1" parent="1">
          <mxGeometry x="-0.0588" relative="1" as="geometry">
            <mxPoint x="750" y="470" as="sourcePoint" />
            <Array as="points">
              <mxPoint x="780" y="470" />
              <mxPoint x="780" y="500" />
            </Array>
            <mxPoint x="755" y="500" as="targetPoint" />
            <mxPoint as="offset" />
          </mxGeometry>
        </mxCell>
        <mxCell id="JCrTwe-QqIcApUy9v8-Y-38" value="16: Trả về kết quả" style="html=1;verticalAlign=bottom;endArrow=open;dashed=1;endSize=8;edgeStyle=elbowEdgeStyle;elbow=vertical;curved=0;rounded=0;" edge="1" parent="1" source="JCrTwe-QqIcApUy9v8-Y-23">
          <mxGeometry relative="1" as="geometry">
            <mxPoint x="620" y="500" as="sourcePoint" />
            <mxPoint x="530" y="510" as="targetPoint" />
            <Array as="points">
              <mxPoint x="620" y="510" />
            </Array>
          </mxGeometry>
        </mxCell>
        <mxCell id="JCrTwe-QqIcApUy9v8-Y-39" value="17: Hiển thị" style="html=1;verticalAlign=bottom;endArrow=open;dashed=1;endSize=8;edgeStyle=elbowEdgeStyle;elbow=vertical;curved=0;rounded=0;" edge="1" parent="1" target="JCrTwe-QqIcApUy9v8-Y-12">
          <mxGeometry relative="1" as="geometry">
            <mxPoint x="520" y="510" as="sourcePoint" />
            <mxPoint x="440" y="510" as="targetPoint" />
            <Array as="points">
              <mxPoint x="480" y="520" />
            </Array>
          </mxGeometry>
        </mxCell>
        <mxCell id="JCrTwe-QqIcApUy9v8-Y-40" value="18: Chọn một tài khoản" style="html=1;verticalAlign=bottom;endArrow=block;edgeStyle=elbowEdgeStyle;elbow=vertical;curved=0;rounded=0;" edge="1" parent="1" target="JCrTwe-QqIcApUy9v8-Y-4">
          <mxGeometry width="80" relative="1" as="geometry">
            <mxPoint x="160" y="540" as="sourcePoint" />
            <mxPoint x="240" y="540" as="targetPoint" />
          </mxGeometry>
        </mxCell>
        <mxCell id="JCrTwe-QqIcApUy9v8-Y-41" value="19: Gọi" style="html=1;verticalAlign=bottom;endArrow=block;edgeStyle=elbowEdgeStyle;elbow=vertical;curved=0;rounded=0;" edge="1" parent="1" target="JCrTwe-QqIcApUy9v8-Y-21">
          <mxGeometry width="80" relative="1" as="geometry">
            <mxPoint x="530" y="550" as="sourcePoint" />
            <mxPoint x="600" y="550" as="targetPoint" />
          </mxGeometry>
        </mxCell>
        <mxCell id="JCrTwe-QqIcApUy9v8-Y-42" value="20: Gọi" style="html=1;verticalAlign=bottom;endArrow=block;edgeStyle=elbowEdgeStyle;elbow=vertical;curved=0;rounded=0;" edge="1" parent="1" target="JCrTwe-QqIcApUy9v8-Y-23">
          <mxGeometry width="80" relative="1" as="geometry">
            <mxPoint x="600" y="570" as="sourcePoint" />
            <mxPoint x="670" y="570" as="targetPoint" />
          </mxGeometry>
        </mxCell>
        <mxCell id="JCrTwe-QqIcApUy9v8-Y-43" value="21: getAccountByID" style="html=1;align=left;spacingLeft=2;endArrow=block;rounded=0;edgeStyle=orthogonalEdgeStyle;curved=0;rounded=0;" edge="1" parent="1">
          <mxGeometry x="-0.0588" relative="1" as="geometry">
            <mxPoint x="750" y="570" as="sourcePoint" />
            <Array as="points">
              <mxPoint x="780" y="570" />
              <mxPoint x="780" y="600" />
            </Array>
            <mxPoint x="755" y="600" as="targetPoint" />
            <mxPoint as="offset" />
          </mxGeometry>
        </mxCell>
        <mxCell id="JCrTwe-QqIcApUy9v8-Y-44" value="22: Kết quả" style="html=1;verticalAlign=bottom;endArrow=open;dashed=1;endSize=8;edgeStyle=elbowEdgeStyle;elbow=vertical;curved=0;rounded=0;" edge="1" parent="1" source="JCrTwe-QqIcApUy9v8-Y-23">
          <mxGeometry relative="1" as="geometry">
            <mxPoint x="670" y="600" as="sourcePoint" />
            <mxPoint x="600" y="600" as="targetPoint" />
          </mxGeometry>
        </mxCell>
        <mxCell id="JCrTwe-QqIcApUy9v8-Y-45" value="24: Sửa thông tin tài khoản" style="html=1;verticalAlign=bottom;endArrow=block;edgeStyle=elbowEdgeStyle;elbow=vertical;curved=0;rounded=0;" edge="1" parent="1" target="JCrTwe-QqIcApUy9v8-Y-21">
          <mxGeometry width="80" relative="1" as="geometry">
            <mxPoint x="150" y="650" as="sourcePoint" />
            <mxPoint x="230" y="650" as="targetPoint" />
          </mxGeometry>
        </mxCell>
        <mxCell id="JCrTwe-QqIcApUy9v8-Y-46" value="25: Gọi" style="html=1;verticalAlign=bottom;endArrow=block;edgeStyle=elbowEdgeStyle;elbow=vertical;curved=0;rounded=0;" edge="1" parent="1" target="JCrTwe-QqIcApUy9v8-Y-25">
          <mxGeometry width="80" relative="1" as="geometry">
            <mxPoint x="600" y="670" as="sourcePoint" />
            <mxPoint x="809.5" y="670" as="targetPoint" />
          </mxGeometry>
        </mxCell>
        <mxCell id="JCrTwe-QqIcApUy9v8-Y-47" value="26: setter()" style="html=1;align=left;spacingLeft=2;endArrow=block;rounded=0;edgeStyle=orthogonalEdgeStyle;curved=0;rounded=0;" edge="1" parent="1">
          <mxGeometry x="-0.0588" relative="1" as="geometry">
            <mxPoint x="930" y="670" as="sourcePoint" />
            <Array as="points">
              <mxPoint x="960" y="670" />
              <mxPoint x="960" y="700" />
            </Array>
            <mxPoint x="935" y="700" as="targetPoint" />
            <mxPoint as="offset" />
          </mxGeometry>
        </mxCell>
        <mxCell id="JCrTwe-QqIcApUy9v8-Y-48" value="27: Trả kết quả" style="html=1;verticalAlign=bottom;endArrow=open;dashed=1;endSize=8;edgeStyle=elbowEdgeStyle;elbow=vertical;curved=0;rounded=0;" edge="1" parent="1" target="JCrTwe-QqIcApUy9v8-Y-21" source="JCrTwe-QqIcApUy9v8-Y-25">
          <mxGeometry relative="1" as="geometry">
            <mxPoint x="800" y="700" as="sourcePoint" />
            <mxPoint x="720" y="700" as="targetPoint" />
            <Array as="points">
              <mxPoint x="660" y="710" />
            </Array>
          </mxGeometry>
        </mxCell>
        <mxCell id="JCrTwe-QqIcApUy9v8-Y-49" value="28: Gọi" style="html=1;verticalAlign=bottom;endArrow=block;edgeStyle=elbowEdgeStyle;elbow=vertical;curved=0;rounded=0;" edge="1" parent="1" target="JCrTwe-QqIcApUy9v8-Y-23">
          <mxGeometry width="80" relative="1" as="geometry">
            <mxPoint x="600" y="740" as="sourcePoint" />
            <mxPoint x="670" y="740" as="targetPoint" />
          </mxGeometry>
        </mxCell>
        <mxCell id="JCrTwe-QqIcApUy9v8-Y-50" value="29: UpdateAccount()" style="html=1;align=left;spacingLeft=2;endArrow=block;rounded=0;edgeStyle=orthogonalEdgeStyle;curved=0;rounded=0;" edge="1" parent="1">
          <mxGeometry x="-0.0588" relative="1" as="geometry">
            <mxPoint x="750" y="740" as="sourcePoint" />
            <Array as="points">
              <mxPoint x="780" y="740" />
              <mxPoint x="780" y="770" />
            </Array>
            <mxPoint x="755" y="770" as="targetPoint" />
            <mxPoint as="offset" />
          </mxGeometry>
        </mxCell>
        <mxCell id="JCrTwe-QqIcApUy9v8-Y-51" value="30: Kết quả" style="html=1;verticalAlign=bottom;endArrow=open;dashed=1;endSize=8;edgeStyle=elbowEdgeStyle;elbow=vertical;curved=0;rounded=0;" edge="1" parent="1" source="JCrTwe-QqIcApUy9v8-Y-23">
          <mxGeometry relative="1" as="geometry">
            <mxPoint x="670" y="770" as="sourcePoint" />
            <mxPoint x="600" y="770" as="targetPoint" />
          </mxGeometry>
        </mxCell>
        <mxCell id="JCrTwe-QqIcApUy9v8-Y-52" value="31: Thông báo thành công" style="html=1;verticalAlign=bottom;endArrow=open;dashed=1;endSize=8;edgeStyle=elbowEdgeStyle;elbow=vertical;curved=0;rounded=0;" edge="1" parent="1" target="JCrTwe-QqIcApUy9v8-Y-12">
          <mxGeometry relative="1" as="geometry">
            <mxPoint x="590" y="790" as="sourcePoint" />
            <mxPoint x="510" y="790" as="targetPoint" />
          </mxGeometry>
        </mxCell>
        <mxCell id="7TOfiV5aCh_nW4SAE520-2" value="32: Người dùng chọn phê duyệt" style="html=1;verticalAlign=bottom;endArrow=block;edgeStyle=elbowEdgeStyle;elbow=vertical;curved=0;rounded=0;" edge="1" parent="1" target="7TOfiV5aCh_nW4SAE520-1">
          <mxGeometry width="80" relative="1" as="geometry">
            <mxPoint x="160" y="840" as="sourcePoint" />
            <mxPoint x="240" y="840" as="targetPoint" />
          </mxGeometry>
        </mxCell>
        <mxCell id="7TOfiV5aCh_nW4SAE520-3" value="ApprovalList" style="shape=umlLifeline;perimeter=lifelinePerimeter;whiteSpace=wrap;html=1;container=1;dropTarget=0;collapsible=0;recursiveResize=0;outlineConnect=0;portConstraint=eastwest;newEdgeStyle={&quot;edgeStyle&quot;:&quot;elbowEdgeStyle&quot;,&quot;elbow&quot;:&quot;vertical&quot;,&quot;curved&quot;:0,&quot;rounded&quot;:0};participant=umlBoundary;labelPosition=center;verticalLabelPosition=top;align=center;verticalAlign=bottom;" vertex="1" parent="1">
          <mxGeometry x="640" y="80" width="50" height="1020" as="geometry" />
        </mxCell>
        <mxCell id="7TOfiV5aCh_nW4SAE520-5" value="" style="html=1;points=[];perimeter=orthogonalPerimeter;outlineConnect=0;targetShapes=umlLifeline;portConstraint=eastwest;newEdgeStyle={&quot;edgeStyle&quot;:&quot;elbowEdgeStyle&quot;,&quot;elbow&quot;:&quot;vertical&quot;,&quot;curved&quot;:0,&quot;rounded&quot;:0};" vertex="1" parent="7TOfiV5aCh_nW4SAE520-3">
          <mxGeometry x="20" y="770" width="10" height="200" as="geometry" />
        </mxCell>
        <mxCell id="7TOfiV5aCh_nW4SAE520-4" value="AprrovalDAL" style="shape=umlLifeline;perimeter=lifelinePerimeter;whiteSpace=wrap;html=1;container=1;dropTarget=0;collapsible=0;recursiveResize=0;outlineConnect=0;portConstraint=eastwest;newEdgeStyle={&quot;edgeStyle&quot;:&quot;elbowEdgeStyle&quot;,&quot;elbow&quot;:&quot;vertical&quot;,&quot;curved&quot;:0,&quot;rounded&quot;:0};participant=umlControl;labelPosition=center;verticalLabelPosition=top;align=center;verticalAlign=bottom;" vertex="1" parent="1">
          <mxGeometry x="810" y="80" width="40" height="1020" as="geometry" />
        </mxCell>
        <mxCell id="7TOfiV5aCh_nW4SAE520-7" value="" style="html=1;points=[];perimeter=orthogonalPerimeter;outlineConnect=0;targetShapes=umlLifeline;portConstraint=eastwest;newEdgeStyle={&quot;edgeStyle&quot;:&quot;elbowEdgeStyle&quot;,&quot;elbow&quot;:&quot;vertical&quot;,&quot;curved&quot;:0,&quot;rounded&quot;:0};" vertex="1" parent="7TOfiV5aCh_nW4SAE520-4">
          <mxGeometry x="15" y="780" width="10" height="70" as="geometry" />
        </mxCell>
        <mxCell id="7TOfiV5aCh_nW4SAE520-13" value="" style="html=1;points=[];perimeter=orthogonalPerimeter;outlineConnect=0;targetShapes=umlLifeline;portConstraint=eastwest;newEdgeStyle={&quot;edgeStyle&quot;:&quot;elbowEdgeStyle&quot;,&quot;elbow&quot;:&quot;vertical&quot;,&quot;curved&quot;:0,&quot;rounded&quot;:0};" vertex="1" parent="7TOfiV5aCh_nW4SAE520-4">
          <mxGeometry x="15" y="880" width="10" height="80" as="geometry" />
        </mxCell>
        <mxCell id="7TOfiV5aCh_nW4SAE520-6" value="34: Gọi" style="html=1;verticalAlign=bottom;endArrow=block;edgeStyle=elbowEdgeStyle;elbow=vertical;curved=0;rounded=0;" edge="1" parent="1" target="7TOfiV5aCh_nW4SAE520-3">
          <mxGeometry width="80" relative="1" as="geometry">
            <mxPoint x="530" y="860" as="sourcePoint" />
            <mxPoint x="610" y="860" as="targetPoint" />
          </mxGeometry>
        </mxCell>
        <mxCell id="7TOfiV5aCh_nW4SAE520-8" value="35: Gọi" style="html=1;verticalAlign=bottom;endArrow=block;edgeStyle=elbowEdgeStyle;elbow=vertical;curved=0;rounded=0;" edge="1" parent="1" target="7TOfiV5aCh_nW4SAE520-4">
          <mxGeometry width="80" relative="1" as="geometry">
            <mxPoint x="670" y="880" as="sourcePoint" />
            <mxPoint x="750" y="880" as="targetPoint" />
          </mxGeometry>
        </mxCell>
        <mxCell id="7TOfiV5aCh_nW4SAE520-9" value="36: getApprovalList" style="html=1;align=left;spacingLeft=2;endArrow=block;rounded=0;edgeStyle=orthogonalEdgeStyle;curved=0;rounded=0;" edge="1" parent="1">
          <mxGeometry x="-0.0588" relative="1" as="geometry">
            <mxPoint x="840" y="880" as="sourcePoint" />
            <Array as="points">
              <mxPoint x="870" y="880" />
              <mxPoint x="870" y="910" />
            </Array>
            <mxPoint x="845" y="910" as="targetPoint" />
            <mxPoint as="offset" />
          </mxGeometry>
        </mxCell>
        <mxCell id="7TOfiV5aCh_nW4SAE520-10" value="36: Trả về kết quả" style="html=1;verticalAlign=bottom;endArrow=open;dashed=1;endSize=8;edgeStyle=elbowEdgeStyle;elbow=vertical;curved=0;rounded=0;" edge="1" parent="1" target="7TOfiV5aCh_nW4SAE520-3">
          <mxGeometry relative="1" as="geometry">
            <mxPoint x="820" y="910" as="sourcePoint" />
            <mxPoint x="740" y="910" as="targetPoint" />
          </mxGeometry>
        </mxCell>
        <mxCell id="7TOfiV5aCh_nW4SAE520-11" value="37: Hiển thị" style="html=1;verticalAlign=bottom;endArrow=open;dashed=1;endSize=8;edgeStyle=elbowEdgeStyle;elbow=vertical;curved=0;rounded=0;" edge="1" parent="1" target="JCrTwe-QqIcApUy9v8-Y-12">
          <mxGeometry relative="1" as="geometry">
            <mxPoint x="660" y="930" as="sourcePoint" />
            <mxPoint x="580" y="930" as="targetPoint" />
          </mxGeometry>
        </mxCell>
        <mxCell id="7TOfiV5aCh_nW4SAE520-12" value="38: Người dùng chọn phê duyệt 1 tài khoản" style="html=1;verticalAlign=bottom;endArrow=block;edgeStyle=elbowEdgeStyle;elbow=vertical;curved=0;rounded=0;" edge="1" parent="1" target="7TOfiV5aCh_nW4SAE520-3">
          <mxGeometry width="80" relative="1" as="geometry">
            <mxPoint x="150" y="970" as="sourcePoint" />
            <mxPoint x="230" y="970" as="targetPoint" />
          </mxGeometry>
        </mxCell>
        <mxCell id="7TOfiV5aCh_nW4SAE520-14" value="39: Gọi" style="html=1;verticalAlign=bottom;endArrow=block;edgeStyle=elbowEdgeStyle;elbow=vertical;curved=0;rounded=0;" edge="1" parent="1" target="7TOfiV5aCh_nW4SAE520-4">
          <mxGeometry width="80" relative="1" as="geometry">
            <mxPoint x="670" y="980" as="sourcePoint" />
            <mxPoint x="750" y="980" as="targetPoint" />
          </mxGeometry>
        </mxCell>
        <mxCell id="7TOfiV5aCh_nW4SAE520-15" value="40: approvalAccount()" style="html=1;align=left;spacingLeft=2;endArrow=block;rounded=0;edgeStyle=orthogonalEdgeStyle;curved=0;rounded=0;" edge="1" parent="1">
          <mxGeometry x="-0.0588" relative="1" as="geometry">
            <mxPoint x="840" y="980" as="sourcePoint" />
            <Array as="points">
              <mxPoint x="870" y="980" />
              <mxPoint x="870" y="1010" />
            </Array>
            <mxPoint x="845" y="1010" as="targetPoint" />
            <mxPoint as="offset" />
          </mxGeometry>
        </mxCell>
        <mxCell id="7TOfiV5aCh_nW4SAE520-16" value="41: Trả về kết quả" style="html=1;verticalAlign=bottom;endArrow=open;dashed=1;endSize=8;edgeStyle=elbowEdgeStyle;elbow=vertical;curved=0;rounded=0;" edge="1" parent="1" target="7TOfiV5aCh_nW4SAE520-3">
          <mxGeometry relative="1" as="geometry">
            <mxPoint x="820" y="1010" as="sourcePoint" />
            <mxPoint x="740" y="1010" as="targetPoint" />
          </mxGeometry>
        </mxCell>
        <mxCell id="7TOfiV5aCh_nW4SAE520-17" value="42: Thông báo thành công" style="html=1;verticalAlign=bottom;endArrow=open;dashed=1;endSize=8;edgeStyle=elbowEdgeStyle;elbow=vertical;curved=0;rounded=0;" edge="1" parent="1" target="JCrTwe-QqIcApUy9v8-Y-12">
          <mxGeometry relative="1" as="geometry">
            <mxPoint x="660" y="1030" as="sourcePoint" />
            <mxPoint x="580" y="1030" as="targetPoint" />
          </mxGeometry>
        </mxCell>
      </root>
    </mxGraphModel>
  </diagram>
  <diagram id="UGNMIwkaedu1NhBQgXix" name="Trang-7">
    <mxGraphModel dx="1434" dy="774" grid="1" gridSize="10" guides="1" tooltips="1" connect="1" arrows="1" fold="1" page="1" pageScale="1" pageWidth="827" pageHeight="1169" math="0" shadow="0">
      <root>
        <mxCell id="0" />
        <mxCell id="1" parent="0" />
        <mxCell id="xP1RgcXKaqRj2tJErLLx-1" value="1: truy cập hệ thống" style="html=1;verticalAlign=bottom;endArrow=classic;edgeStyle=elbowEdgeStyle;elbow=vertical;curved=0;rounded=0;startArrow=none;startFill=0;endFill=1;" edge="1" parent="1">
          <mxGeometry width="80" relative="1" as="geometry">
            <mxPoint x="170" y="170.18" as="sourcePoint" />
            <mxPoint x="350" y="170.18" as="targetPoint" />
          </mxGeometry>
        </mxCell>
        <mxCell id="xP1RgcXKaqRj2tJErLLx-2" value="LoginVIew" style="shape=umlLifeline;perimeter=lifelinePerimeter;whiteSpace=wrap;html=1;container=1;dropTarget=0;collapsible=0;recursiveResize=0;outlineConnect=0;portConstraint=eastwest;newEdgeStyle={&quot;edgeStyle&quot;:&quot;elbowEdgeStyle&quot;,&quot;elbow&quot;:&quot;vertical&quot;,&quot;curved&quot;:0,&quot;rounded&quot;:0};participant=umlBoundary;verticalAlign=bottom;labelPosition=center;verticalLabelPosition=top;align=center;" vertex="1" parent="1">
          <mxGeometry x="330" y="80" width="50" height="820" as="geometry" />
        </mxCell>
        <mxCell id="xP1RgcXKaqRj2tJErLLx-3" value="" style="html=1;points=[];perimeter=orthogonalPerimeter;outlineConnect=0;targetShapes=umlLifeline;portConstraint=eastwest;newEdgeStyle={&quot;edgeStyle&quot;:&quot;elbowEdgeStyle&quot;,&quot;elbow&quot;:&quot;vertical&quot;,&quot;curved&quot;:0,&quot;rounded&quot;:0};" vertex="1" parent="xP1RgcXKaqRj2tJErLLx-2">
          <mxGeometry x="20" y="90" width="10" height="220" as="geometry" />
        </mxCell>
        <mxCell id="xP1RgcXKaqRj2tJErLLx-4" value="RoomList" style="shape=umlLifeline;perimeter=lifelinePerimeter;whiteSpace=wrap;html=1;container=1;dropTarget=0;collapsible=0;recursiveResize=0;outlineConnect=0;portConstraint=eastwest;newEdgeStyle={&quot;edgeStyle&quot;:&quot;elbowEdgeStyle&quot;,&quot;elbow&quot;:&quot;vertical&quot;,&quot;curved&quot;:0,&quot;rounded&quot;:0};participant=umlBoundary;labelPosition=center;verticalLabelPosition=top;align=center;verticalAlign=bottom;" vertex="1" parent="1">
          <mxGeometry x="500" y="80" width="50" height="810" as="geometry" />
        </mxCell>
        <mxCell id="xP1RgcXKaqRj2tJErLLx-5" value="" style="html=1;points=[];perimeter=orthogonalPerimeter;outlineConnect=0;targetShapes=umlLifeline;portConstraint=eastwest;newEdgeStyle={&quot;edgeStyle&quot;:&quot;elbowEdgeStyle&quot;,&quot;elbow&quot;:&quot;vertical&quot;,&quot;curved&quot;:0,&quot;rounded&quot;:0};" vertex="1" parent="xP1RgcXKaqRj2tJErLLx-4">
          <mxGeometry x="20" y="360" width="10" height="110" as="geometry" />
        </mxCell>
        <mxCell id="xP1RgcXKaqRj2tJErLLx-6" value="RoomDAL" style="shape=umlLifeline;perimeter=lifelinePerimeter;whiteSpace=wrap;html=1;container=1;dropTarget=0;collapsible=0;recursiveResize=0;outlineConnect=0;portConstraint=eastwest;newEdgeStyle={&quot;edgeStyle&quot;:&quot;elbowEdgeStyle&quot;,&quot;elbow&quot;:&quot;vertical&quot;,&quot;curved&quot;:0,&quot;rounded&quot;:0};participant=umlControl;labelPosition=center;verticalLabelPosition=top;align=center;verticalAlign=bottom;" vertex="1" parent="1">
          <mxGeometry x="650" y="80" width="40" height="810" as="geometry" />
        </mxCell>
        <mxCell id="xP1RgcXKaqRj2tJErLLx-7" value="" style="html=1;points=[];perimeter=orthogonalPerimeter;outlineConnect=0;targetShapes=umlLifeline;portConstraint=eastwest;newEdgeStyle={&quot;edgeStyle&quot;:&quot;elbowEdgeStyle&quot;,&quot;elbow&quot;:&quot;vertical&quot;,&quot;curved&quot;:0,&quot;rounded&quot;:0};" vertex="1" parent="xP1RgcXKaqRj2tJErLLx-6">
          <mxGeometry x="15" y="360" width="10" height="80" as="geometry" />
        </mxCell>
        <mxCell id="xP1RgcXKaqRj2tJErLLx-8" value="" style="html=1;points=[];perimeter=orthogonalPerimeter;outlineConnect=0;targetShapes=umlLifeline;portConstraint=eastwest;newEdgeStyle={&quot;edgeStyle&quot;:&quot;elbowEdgeStyle&quot;,&quot;elbow&quot;:&quot;vertical&quot;,&quot;curved&quot;:0,&quot;rounded&quot;:0};" vertex="1" parent="xP1RgcXKaqRj2tJErLLx-6">
          <mxGeometry x="15" y="465" width="10" height="80" as="geometry" />
        </mxCell>
        <mxCell id="xP1RgcXKaqRj2tJErLLx-9" value="" style="html=1;points=[];perimeter=orthogonalPerimeter;outlineConnect=0;targetShapes=umlLifeline;portConstraint=eastwest;newEdgeStyle={&quot;edgeStyle&quot;:&quot;elbowEdgeStyle&quot;,&quot;elbow&quot;:&quot;vertical&quot;,&quot;curved&quot;:0,&quot;rounded&quot;:0};" vertex="1" parent="xP1RgcXKaqRj2tJErLLx-6">
          <mxGeometry x="15" y="640" width="10" height="80" as="geometry" />
        </mxCell>
        <mxCell id="xP1RgcXKaqRj2tJErLLx-10" value="Room" style="shape=umlLifeline;perimeter=lifelinePerimeter;whiteSpace=wrap;html=1;container=1;dropTarget=0;collapsible=0;recursiveResize=0;outlineConnect=0;portConstraint=eastwest;newEdgeStyle={&quot;edgeStyle&quot;:&quot;elbowEdgeStyle&quot;,&quot;elbow&quot;:&quot;vertical&quot;,&quot;curved&quot;:0,&quot;rounded&quot;:0};participant=umlEntity;labelPosition=center;verticalLabelPosition=top;align=center;verticalAlign=bottom;" vertex="1" parent="1">
          <mxGeometry x="790" y="80" width="40" height="810" as="geometry" />
        </mxCell>
        <mxCell id="xP1RgcXKaqRj2tJErLLx-11" value="" style="html=1;points=[];perimeter=orthogonalPerimeter;outlineConnect=0;targetShapes=umlLifeline;portConstraint=eastwest;newEdgeStyle={&quot;edgeStyle&quot;:&quot;elbowEdgeStyle&quot;,&quot;elbow&quot;:&quot;vertical&quot;,&quot;curved&quot;:0,&quot;rounded&quot;:0};" vertex="1" parent="xP1RgcXKaqRj2tJErLLx-10">
          <mxGeometry x="15" y="570" width="10" height="80" as="geometry" />
        </mxCell>
        <mxCell id="xP1RgcXKaqRj2tJErLLx-12" value="Admin" style="shape=umlLifeline;perimeter=lifelinePerimeter;whiteSpace=wrap;html=1;container=1;dropTarget=0;collapsible=0;recursiveResize=0;outlineConnect=0;portConstraint=eastwest;newEdgeStyle={&quot;edgeStyle&quot;:&quot;elbowEdgeStyle&quot;,&quot;elbow&quot;:&quot;vertical&quot;,&quot;curved&quot;:0,&quot;rounded&quot;:0};participant=umlActor;labelPosition=center;verticalLabelPosition=top;align=center;verticalAlign=bottom;" vertex="1" parent="1">
          <mxGeometry x="140" y="80" width="20" height="820" as="geometry" />
        </mxCell>
        <mxCell id="xP1RgcXKaqRj2tJErLLx-13" value="" style="html=1;points=[];perimeter=orthogonalPerimeter;outlineConnect=0;targetShapes=umlLifeline;portConstraint=eastwest;newEdgeStyle={&quot;edgeStyle&quot;:&quot;elbowEdgeStyle&quot;,&quot;elbow&quot;:&quot;vertical&quot;,&quot;curved&quot;:0,&quot;rounded&quot;:0};" vertex="1" parent="xP1RgcXKaqRj2tJErLLx-12">
          <mxGeometry x="5" y="60" width="10" height="730" as="geometry" />
        </mxCell>
        <mxCell id="xP1RgcXKaqRj2tJErLLx-14" value="2:Hiển thị" style="html=1;verticalAlign=bottom;endArrow=none;edgeStyle=elbowEdgeStyle;elbow=vertical;curved=0;rounded=0;startArrow=classic;startFill=1;endFill=0;dashed=1;" edge="1" parent="1">
          <mxGeometry width="80" relative="1" as="geometry">
            <mxPoint x="170" y="200" as="sourcePoint" />
            <mxPoint x="320" y="200" as="targetPoint" />
          </mxGeometry>
        </mxCell>
        <mxCell id="xP1RgcXKaqRj2tJErLLx-15" value="3: Nhập thông tin" style="html=1;verticalAlign=bottom;endArrow=classic;edgeStyle=elbowEdgeStyle;elbow=vertical;curved=0;rounded=0;startArrow=none;startFill=0;endFill=1;" edge="1" parent="1">
          <mxGeometry x="-0.0244" width="80" relative="1" as="geometry">
            <mxPoint x="170" y="233" as="sourcePoint" />
            <mxPoint x="350" y="233" as="targetPoint" />
            <Array as="points">
              <mxPoint x="300" y="233" />
              <mxPoint x="320" y="233" />
            </Array>
            <mxPoint as="offset" />
          </mxGeometry>
        </mxCell>
        <mxCell id="xP1RgcXKaqRj2tJErLLx-16" value="5: setter()" style="html=1;align=left;spacingLeft=2;endArrow=block;rounded=0;edgeStyle=orthogonalEdgeStyle;curved=0;rounded=0;" edge="1" parent="1">
          <mxGeometry x="-0.0588" relative="1" as="geometry">
            <mxPoint x="900" y="235" as="sourcePoint" />
            <Array as="points">
              <mxPoint x="930" y="235" />
              <mxPoint x="930" y="265" />
            </Array>
            <mxPoint x="905" y="265" as="targetPoint" />
            <mxPoint as="offset" />
          </mxGeometry>
        </mxCell>
        <mxCell id="xP1RgcXKaqRj2tJErLLx-17" value="23: Hiển thị" style="html=1;verticalAlign=bottom;endArrow=open;dashed=1;endSize=8;edgeStyle=elbowEdgeStyle;elbow=vertical;curved=0;rounded=0;" edge="1" parent="1" source="xP1RgcXKaqRj2tJErLLx-22" target="xP1RgcXKaqRj2tJErLLx-12">
          <mxGeometry relative="1" as="geometry">
            <mxPoint x="350" y="610" as="sourcePoint" />
            <mxPoint x="270" y="610" as="targetPoint" />
            <Array as="points">
              <mxPoint x="470" y="620" />
            </Array>
          </mxGeometry>
        </mxCell>
        <mxCell id="xP1RgcXKaqRj2tJErLLx-18" value="AdminHome" style="shape=umlLifeline;perimeter=lifelinePerimeter;whiteSpace=wrap;html=1;container=1;dropTarget=0;collapsible=0;recursiveResize=0;outlineConnect=0;portConstraint=eastwest;newEdgeStyle={&quot;edgeStyle&quot;:&quot;elbowEdgeStyle&quot;,&quot;elbow&quot;:&quot;vertical&quot;,&quot;curved&quot;:0,&quot;rounded&quot;:0};participant=umlBoundary;labelPosition=center;verticalLabelPosition=top;align=center;verticalAlign=bottom;" vertex="1" parent="1">
          <mxGeometry x="414" y="80" width="50" height="810" as="geometry" />
        </mxCell>
        <mxCell id="xP1RgcXKaqRj2tJErLLx-19" value="" style="html=1;points=[];perimeter=orthogonalPerimeter;outlineConnect=0;targetShapes=umlLifeline;portConstraint=eastwest;newEdgeStyle={&quot;edgeStyle&quot;:&quot;elbowEdgeStyle&quot;,&quot;elbow&quot;:&quot;vertical&quot;,&quot;curved&quot;:0,&quot;rounded&quot;:0};" vertex="1" parent="xP1RgcXKaqRj2tJErLLx-18">
          <mxGeometry x="20" y="280" width="10" height="50" as="geometry" />
        </mxCell>
        <mxCell id="xP1RgcXKaqRj2tJErLLx-20" value="" style="html=1;points=[];perimeter=orthogonalPerimeter;outlineConnect=0;targetShapes=umlLifeline;portConstraint=eastwest;newEdgeStyle={&quot;edgeStyle&quot;:&quot;elbowEdgeStyle&quot;,&quot;elbow&quot;:&quot;vertical&quot;,&quot;curved&quot;:0,&quot;rounded&quot;:0};" vertex="1" parent="xP1RgcXKaqRj2tJErLLx-18">
          <mxGeometry x="20" y="345" width="10" height="65" as="geometry" />
        </mxCell>
        <mxCell id="xP1RgcXKaqRj2tJErLLx-21" value="RoomDetail" style="shape=umlLifeline;perimeter=lifelinePerimeter;whiteSpace=wrap;html=1;container=1;dropTarget=0;collapsible=0;recursiveResize=0;outlineConnect=0;portConstraint=eastwest;newEdgeStyle={&quot;edgeStyle&quot;:&quot;elbowEdgeStyle&quot;,&quot;elbow&quot;:&quot;vertical&quot;,&quot;curved&quot;:0,&quot;rounded&quot;:0};participant=umlBoundary;labelPosition=center;verticalLabelPosition=top;align=center;verticalAlign=bottom;" vertex="1" parent="1">
          <mxGeometry x="570" y="80" width="50" height="820" as="geometry" />
        </mxCell>
        <mxCell id="xP1RgcXKaqRj2tJErLLx-22" value="" style="html=1;points=[];perimeter=orthogonalPerimeter;outlineConnect=0;targetShapes=umlLifeline;portConstraint=eastwest;newEdgeStyle={&quot;edgeStyle&quot;:&quot;elbowEdgeStyle&quot;,&quot;elbow&quot;:&quot;vertical&quot;,&quot;curved&quot;:0,&quot;rounded&quot;:0};" vertex="1" parent="xP1RgcXKaqRj2tJErLLx-21">
          <mxGeometry x="20" y="460" width="10" height="320" as="geometry" />
        </mxCell>
        <mxCell id="xP1RgcXKaqRj2tJErLLx-23" value="AccountDAL" style="shape=umlLifeline;perimeter=lifelinePerimeter;whiteSpace=wrap;html=1;container=1;dropTarget=0;collapsible=0;recursiveResize=0;outlineConnect=0;portConstraint=eastwest;newEdgeStyle={&quot;edgeStyle&quot;:&quot;elbowEdgeStyle&quot;,&quot;elbow&quot;:&quot;vertical&quot;,&quot;curved&quot;:0,&quot;rounded&quot;:0};participant=umlControl;labelPosition=center;verticalLabelPosition=top;align=center;verticalAlign=bottom;" vertex="1" parent="1">
          <mxGeometry x="720" y="80" width="40" height="810" as="geometry" />
        </mxCell>
        <mxCell id="xP1RgcXKaqRj2tJErLLx-24" value="" style="points=[];perimeter=orthogonalPerimeter;outlineConnect=0;targetShapes=umlLifeline;portConstraint=eastwest;newEdgeStyle={&quot;edgeStyle&quot;:&quot;elbowEdgeStyle&quot;,&quot;elbow&quot;:&quot;vertical&quot;,&quot;curved&quot;:0,&quot;rounded&quot;:0};" vertex="1" parent="xP1RgcXKaqRj2tJErLLx-23">
          <mxGeometry x="15" y="210" width="10" height="80" as="geometry" />
        </mxCell>
        <mxCell id="xP1RgcXKaqRj2tJErLLx-25" value="Account" style="shape=umlLifeline;perimeter=lifelinePerimeter;whiteSpace=wrap;html=1;container=1;dropTarget=0;collapsible=0;recursiveResize=0;outlineConnect=0;portConstraint=eastwest;newEdgeStyle={&quot;edgeStyle&quot;:&quot;elbowEdgeStyle&quot;,&quot;elbow&quot;:&quot;vertical&quot;,&quot;curved&quot;:0,&quot;rounded&quot;:0};participant=umlEntity;labelPosition=center;verticalLabelPosition=top;align=center;verticalAlign=bottom;" vertex="1" parent="1">
          <mxGeometry x="870" y="80" width="40" height="800" as="geometry" />
        </mxCell>
        <mxCell id="xP1RgcXKaqRj2tJErLLx-26" value="4: Gọi" style="html=1;verticalAlign=bottom;endArrow=block;edgeStyle=elbowEdgeStyle;elbow=vertical;curved=0;rounded=0;" edge="1" parent="1" target="xP1RgcXKaqRj2tJErLLx-27">
          <mxGeometry width="80" relative="1" as="geometry">
            <mxPoint x="360" y="240" as="sourcePoint" />
            <mxPoint x="890" y="240" as="targetPoint" />
          </mxGeometry>
        </mxCell>
        <mxCell id="xP1RgcXKaqRj2tJErLLx-27" value="" style="html=1;points=[];perimeter=orthogonalPerimeter;outlineConnect=0;targetShapes=umlLifeline;portConstraint=eastwest;newEdgeStyle={&quot;edgeStyle&quot;:&quot;elbowEdgeStyle&quot;,&quot;elbow&quot;:&quot;vertical&quot;,&quot;curved&quot;:0,&quot;rounded&quot;:0};" vertex="1" parent="1">
          <mxGeometry x="885" y="220" width="10" height="60" as="geometry" />
        </mxCell>
        <mxCell id="xP1RgcXKaqRj2tJErLLx-28" value="6: Trả về kết quả" style="html=1;verticalAlign=bottom;endArrow=open;dashed=1;endSize=8;edgeStyle=elbowEdgeStyle;elbow=vertical;curved=0;rounded=0;" edge="1" parent="1" target="xP1RgcXKaqRj2tJErLLx-2">
          <mxGeometry relative="1" as="geometry">
            <mxPoint x="880" y="270" as="sourcePoint" />
            <mxPoint x="800" y="270" as="targetPoint" />
          </mxGeometry>
        </mxCell>
        <mxCell id="xP1RgcXKaqRj2tJErLLx-29" value="7: Gọi" style="html=1;verticalAlign=bottom;endArrow=block;edgeStyle=elbowEdgeStyle;elbow=vertical;curved=0;rounded=0;" edge="1" parent="1" target="xP1RgcXKaqRj2tJErLLx-23">
          <mxGeometry width="80" relative="1" as="geometry">
            <mxPoint x="360" y="310" as="sourcePoint" />
            <mxPoint x="440" y="310" as="targetPoint" />
          </mxGeometry>
        </mxCell>
        <mxCell id="xP1RgcXKaqRj2tJErLLx-30" value="8: checkLogin()" style="html=1;align=left;spacingLeft=2;endArrow=block;rounded=0;edgeStyle=orthogonalEdgeStyle;curved=0;rounded=0;" edge="1" parent="1">
          <mxGeometry x="-0.0588" relative="1" as="geometry">
            <mxPoint x="750" y="310" as="sourcePoint" />
            <Array as="points">
              <mxPoint x="780" y="310" />
              <mxPoint x="780" y="340" />
            </Array>
            <mxPoint x="755" y="340" as="targetPoint" />
            <mxPoint as="offset" />
          </mxGeometry>
        </mxCell>
        <mxCell id="xP1RgcXKaqRj2tJErLLx-31" value="9: Trả kết quả" style="html=1;verticalAlign=bottom;endArrow=open;dashed=1;endSize=8;edgeStyle=elbowEdgeStyle;elbow=vertical;curved=0;rounded=0;" edge="1" parent="1" target="xP1RgcXKaqRj2tJErLLx-2">
          <mxGeometry relative="1" as="geometry">
            <mxPoint x="730" y="340" as="sourcePoint" />
            <mxPoint x="650" y="340" as="targetPoint" />
          </mxGeometry>
        </mxCell>
        <mxCell id="xP1RgcXKaqRj2tJErLLx-32" value="10: Gọi" style="html=1;verticalAlign=bottom;endArrow=block;edgeStyle=elbowEdgeStyle;elbow=vertical;curved=0;rounded=0;" edge="1" parent="1" target="xP1RgcXKaqRj2tJErLLx-18">
          <mxGeometry width="80" relative="1" as="geometry">
            <mxPoint x="360" y="370" as="sourcePoint" />
            <mxPoint x="440" y="370" as="targetPoint" />
          </mxGeometry>
        </mxCell>
        <mxCell id="xP1RgcXKaqRj2tJErLLx-33" value="11; HIển thị" style="html=1;verticalAlign=bottom;endArrow=open;dashed=1;endSize=8;edgeStyle=elbowEdgeStyle;elbow=vertical;curved=0;rounded=0;" edge="1" parent="1" target="xP1RgcXKaqRj2tJErLLx-12">
          <mxGeometry relative="1" as="geometry">
            <mxPoint x="430" y="400" as="sourcePoint" />
            <mxPoint x="350" y="400" as="targetPoint" />
          </mxGeometry>
        </mxCell>
        <mxCell id="xP1RgcXKaqRj2tJErLLx-34" value="12: Chọn quản lí phòng chiếu" style="html=1;verticalAlign=bottom;endArrow=block;edgeStyle=elbowEdgeStyle;elbow=vertical;curved=0;rounded=0;" edge="1" parent="1" target="xP1RgcXKaqRj2tJErLLx-18">
          <mxGeometry width="80" relative="1" as="geometry">
            <mxPoint x="160" y="430" as="sourcePoint" />
            <mxPoint x="240" y="430" as="targetPoint" />
          </mxGeometry>
        </mxCell>
        <mxCell id="xP1RgcXKaqRj2tJErLLx-35" value="13: Gọi" style="html=1;verticalAlign=bottom;endArrow=block;edgeStyle=elbowEdgeStyle;elbow=vertical;curved=0;rounded=0;" edge="1" parent="1">
          <mxGeometry width="80" relative="1" as="geometry">
            <mxPoint x="440" y="450" as="sourcePoint" />
            <mxPoint x="520" y="450" as="targetPoint" />
          </mxGeometry>
        </mxCell>
        <mxCell id="xP1RgcXKaqRj2tJErLLx-36" value="14: Gọi" style="html=1;verticalAlign=bottom;endArrow=block;edgeStyle=elbowEdgeStyle;elbow=vertical;curved=0;rounded=0;" edge="1" parent="1" target="xP1RgcXKaqRj2tJErLLx-6">
          <mxGeometry width="80" relative="1" as="geometry">
            <mxPoint x="530" y="460" as="sourcePoint" />
            <mxPoint x="610" y="460" as="targetPoint" />
          </mxGeometry>
        </mxCell>
        <mxCell id="xP1RgcXKaqRj2tJErLLx-37" value="15: getRoomList()" style="html=1;align=left;spacingLeft=2;endArrow=block;rounded=0;edgeStyle=orthogonalEdgeStyle;curved=0;rounded=0;" edge="1" parent="1">
          <mxGeometry x="-0.0588" relative="1" as="geometry">
            <mxPoint x="680" y="470" as="sourcePoint" />
            <Array as="points">
              <mxPoint x="710" y="470" />
              <mxPoint x="710" y="500" />
            </Array>
            <mxPoint x="685" y="500" as="targetPoint" />
            <mxPoint as="offset" />
          </mxGeometry>
        </mxCell>
        <mxCell id="xP1RgcXKaqRj2tJErLLx-38" value="16: Trả về kết quả" style="html=1;verticalAlign=bottom;endArrow=open;dashed=1;endSize=8;edgeStyle=elbowEdgeStyle;elbow=vertical;curved=0;rounded=0;" edge="1" parent="1" source="xP1RgcXKaqRj2tJErLLx-6">
          <mxGeometry relative="1" as="geometry">
            <mxPoint x="620" y="500" as="sourcePoint" />
            <mxPoint x="530" y="510" as="targetPoint" />
            <Array as="points">
              <mxPoint x="620" y="510" />
            </Array>
          </mxGeometry>
        </mxCell>
        <mxCell id="xP1RgcXKaqRj2tJErLLx-39" value="17: Hiển thị" style="html=1;verticalAlign=bottom;endArrow=open;dashed=1;endSize=8;edgeStyle=elbowEdgeStyle;elbow=vertical;curved=0;rounded=0;" edge="1" parent="1" target="xP1RgcXKaqRj2tJErLLx-12">
          <mxGeometry relative="1" as="geometry">
            <mxPoint x="520" y="510" as="sourcePoint" />
            <mxPoint x="440" y="510" as="targetPoint" />
            <Array as="points">
              <mxPoint x="480" y="520" />
            </Array>
          </mxGeometry>
        </mxCell>
        <mxCell id="xP1RgcXKaqRj2tJErLLx-40" value="18: Chọn một phòng" style="html=1;verticalAlign=bottom;endArrow=block;edgeStyle=elbowEdgeStyle;elbow=vertical;curved=0;rounded=0;" edge="1" parent="1" target="xP1RgcXKaqRj2tJErLLx-4">
          <mxGeometry width="80" relative="1" as="geometry">
            <mxPoint x="160" y="540" as="sourcePoint" />
            <mxPoint x="240" y="540" as="targetPoint" />
          </mxGeometry>
        </mxCell>
        <mxCell id="xP1RgcXKaqRj2tJErLLx-41" value="19: Gọi" style="html=1;verticalAlign=bottom;endArrow=block;edgeStyle=elbowEdgeStyle;elbow=vertical;curved=0;rounded=0;" edge="1" parent="1" target="xP1RgcXKaqRj2tJErLLx-21">
          <mxGeometry width="80" relative="1" as="geometry">
            <mxPoint x="530" y="550" as="sourcePoint" />
            <mxPoint x="600" y="550" as="targetPoint" />
          </mxGeometry>
        </mxCell>
        <mxCell id="xP1RgcXKaqRj2tJErLLx-42" value="20: Gọi" style="html=1;verticalAlign=bottom;endArrow=block;edgeStyle=elbowEdgeStyle;elbow=vertical;curved=0;rounded=0;" edge="1" parent="1">
          <mxGeometry width="80" relative="1" as="geometry">
            <mxPoint x="600" y="570" as="sourcePoint" />
            <mxPoint x="670" y="570" as="targetPoint" />
          </mxGeometry>
        </mxCell>
        <mxCell id="xP1RgcXKaqRj2tJErLLx-43" value="21: GetRoomByID()" style="html=1;align=left;spacingLeft=2;endArrow=block;rounded=0;edgeStyle=orthogonalEdgeStyle;curved=0;rounded=0;" edge="1" parent="1">
          <mxGeometry x="-0.0588" relative="1" as="geometry">
            <mxPoint x="680" y="570" as="sourcePoint" />
            <Array as="points">
              <mxPoint x="710" y="570" />
              <mxPoint x="710" y="600" />
            </Array>
            <mxPoint x="685" y="600" as="targetPoint" />
            <mxPoint as="offset" />
          </mxGeometry>
        </mxCell>
        <mxCell id="xP1RgcXKaqRj2tJErLLx-44" value="22: Kết quả" style="html=1;verticalAlign=bottom;endArrow=open;dashed=1;endSize=8;edgeStyle=elbowEdgeStyle;elbow=vertical;curved=0;rounded=0;" edge="1" parent="1">
          <mxGeometry relative="1" as="geometry">
            <mxPoint x="670" y="600" as="sourcePoint" />
            <mxPoint x="600" y="600" as="targetPoint" />
          </mxGeometry>
        </mxCell>
        <mxCell id="xP1RgcXKaqRj2tJErLLx-45" value="24: Sửa thông tin phòng chiếu" style="html=1;verticalAlign=bottom;endArrow=block;edgeStyle=elbowEdgeStyle;elbow=vertical;curved=0;rounded=0;" edge="1" parent="1" target="xP1RgcXKaqRj2tJErLLx-21">
          <mxGeometry width="80" relative="1" as="geometry">
            <mxPoint x="150" y="650" as="sourcePoint" />
            <mxPoint x="230" y="650" as="targetPoint" />
          </mxGeometry>
        </mxCell>
        <mxCell id="xP1RgcXKaqRj2tJErLLx-46" value="25: Gọi" style="html=1;verticalAlign=bottom;endArrow=block;edgeStyle=elbowEdgeStyle;elbow=vertical;curved=0;rounded=0;" edge="1" parent="1" target="xP1RgcXKaqRj2tJErLLx-10">
          <mxGeometry width="80" relative="1" as="geometry">
            <mxPoint x="600" y="670" as="sourcePoint" />
            <mxPoint x="790" y="670" as="targetPoint" />
          </mxGeometry>
        </mxCell>
        <mxCell id="xP1RgcXKaqRj2tJErLLx-47" value="26: setter()" style="html=1;align=left;spacingLeft=2;endArrow=block;rounded=0;edgeStyle=orthogonalEdgeStyle;curved=0;rounded=0;" edge="1" parent="1">
          <mxGeometry x="-0.0588" relative="1" as="geometry">
            <mxPoint x="820" y="670" as="sourcePoint" />
            <Array as="points">
              <mxPoint x="850" y="670" />
              <mxPoint x="850" y="700" />
            </Array>
            <mxPoint x="825" y="700" as="targetPoint" />
            <mxPoint as="offset" />
          </mxGeometry>
        </mxCell>
        <mxCell id="xP1RgcXKaqRj2tJErLLx-48" value="27: Trả kết quả" style="html=1;verticalAlign=bottom;endArrow=open;dashed=1;endSize=8;edgeStyle=elbowEdgeStyle;elbow=vertical;curved=0;rounded=0;" edge="1" parent="1" target="xP1RgcXKaqRj2tJErLLx-21">
          <mxGeometry relative="1" as="geometry">
            <mxPoint x="800" y="700" as="sourcePoint" />
            <mxPoint x="720" y="700" as="targetPoint" />
          </mxGeometry>
        </mxCell>
        <mxCell id="xP1RgcXKaqRj2tJErLLx-49" value="28: Gọi" style="html=1;verticalAlign=bottom;endArrow=block;edgeStyle=elbowEdgeStyle;elbow=vertical;curved=0;rounded=0;" edge="1" parent="1">
          <mxGeometry width="80" relative="1" as="geometry">
            <mxPoint x="600" y="740" as="sourcePoint" />
            <mxPoint x="670" y="740" as="targetPoint" />
          </mxGeometry>
        </mxCell>
        <mxCell id="xP1RgcXKaqRj2tJErLLx-50" value="29: updateRoom()" style="html=1;align=left;spacingLeft=2;endArrow=block;rounded=0;edgeStyle=orthogonalEdgeStyle;curved=0;rounded=0;" edge="1" parent="1">
          <mxGeometry x="-0.0588" relative="1" as="geometry">
            <mxPoint x="680" y="740" as="sourcePoint" />
            <Array as="points">
              <mxPoint x="710" y="740" />
              <mxPoint x="710" y="770" />
            </Array>
            <mxPoint x="685" y="770" as="targetPoint" />
            <mxPoint as="offset" />
          </mxGeometry>
        </mxCell>
        <mxCell id="xP1RgcXKaqRj2tJErLLx-51" value="30: Kết quả" style="html=1;verticalAlign=bottom;endArrow=open;dashed=1;endSize=8;edgeStyle=elbowEdgeStyle;elbow=vertical;curved=0;rounded=0;" edge="1" parent="1">
          <mxGeometry relative="1" as="geometry">
            <mxPoint x="670" y="770" as="sourcePoint" />
            <mxPoint x="600" y="770" as="targetPoint" />
          </mxGeometry>
        </mxCell>
        <mxCell id="xP1RgcXKaqRj2tJErLLx-52" value="31: Thông báo thành công" style="html=1;verticalAlign=bottom;endArrow=open;dashed=1;endSize=8;edgeStyle=elbowEdgeStyle;elbow=vertical;curved=0;rounded=0;" edge="1" parent="1" target="xP1RgcXKaqRj2tJErLLx-12">
          <mxGeometry relative="1" as="geometry">
            <mxPoint x="590" y="790" as="sourcePoint" />
            <mxPoint x="510" y="790" as="targetPoint" />
          </mxGeometry>
        </mxCell>
      </root>
    </mxGraphModel>
  </diagram>
  <diagram id="X_HNVyfD1i4PPEwvcjG_" name="Trang-8">
    <mxGraphModel dx="1434" dy="774" grid="1" gridSize="10" guides="1" tooltips="1" connect="1" arrows="1" fold="1" page="1" pageScale="1" pageWidth="827" pageHeight="1169" math="0" shadow="0">
      <root>
        <mxCell id="0" />
        <mxCell id="1" parent="0" />
      </root>
    </mxGraphModel>
  </diagram>
</mxfile>
